<svg height="1024" legacy-metrics="false" node-id="1" sillyvg="true" template-height="1024" template-width="1024" version="1.1" viewBox="0 0 1024 1024" width="1024" xmlns="http://www.w3.org/2000/svg" xmlns:xlink="http://www.w3.org/1999/xlink"><defs node-id="174"><linearGradient gradientUnits="objectBoundingBox" id="linearGradient-1" node-id="5" x1="0.5" x2="0.5" y1="1" y2="-0.41476682"><stop offset="0" stop-color="#ffdc4d" stop-opacity="0"></stop><stop offset="1" stop-color="#f4b538"></stop></linearGradient><linearGradient gradientUnits="objectBoundingBox" id="linearGradient-2" node-id="8" x1="0.5" x2="0.5" y1="1" y2="-0.41476682"><stop offset="0" stop-color="#ffdc4d" stop-opacity="0"></stop><stop offset="1" stop-color="#f4b538"></stop></linearGradient><linearGradient gradientUnits="objectBoundingBox" id="linearGradient-3" node-id="11" x1="0.30925605" x2="0.6502806" y1="0.12199528" y2="0.70419234"><stop offset="0" stop-color="#ffdc4d"></stop><stop offset="1" stop-color="#f4b538"></stop></linearGradient><linearGradient gradientUnits="objectBoundingBox" id="linearGradient-4" node-id="14" x1="0.70631" x2="0.3307674" y1="0.09061224" y2="1"><stop offset="0" stop-color="#ffdc4d"></stop><stop offset="1" stop-color="#f4b538"></stop></linearGradient><linearGradient gradientUnits="objectBoundingBox" id="linearGradient-5" node-id="17" x1="0.08677686" x2="0.82556427" y1="0.12199528" y2="0.70419234"><stop offset="0" stop-color="#ffdc4d"></stop><stop offset="1" stop-color="#f4b538"></stop></linearGradient><linearGradient gradientUnits="objectBoundingBox" id="linearGradient-6" node-id="20" x1="0.89393276" x2="0.17686361" y1="0.18911596" y2="0.87969387"><stop offset="0" stop-color="#ffdc4d"></stop><stop offset="1" stop-color="#f4b538"></stop></linearGradient><linearGradient gradientUnits="objectBoundingBox" id="linearGradient-7" node-id="23" x1="0.89393276" x2="0.17686361" y1="0.39524356" y2="0.6279428"><stop offset="0" stop-color="#ffdc4d"></stop><stop offset="1" stop-color="#f4b538"></stop></linearGradient><linearGradient gradientUnits="objectBoundingBox" id="linearGradient-8" node-id="26" x1="0.46555158" x2="0.5138005" y1="-0.33132026" y2="1.2517982"><stop offset="0" stop-color="#ffdc4d" stop-opacity="0.5"></stop><stop offset="1" stop-color="#f4b538"></stop></linearGradient><linearGradient gradientUnits="objectBoundingBox" id="linearGradient-9" node-id="29" x1="0.45249513" x2="0.51903105" y1="-0.33132026" y2="1.2517982"><stop offset="0" stop-color="#ffdc4d" stop-opacity="0.5"></stop><stop offset="1" stop-color="#f4b538"></stop></linearGradient><linearGradient gradientUnits="objectBoundingBox" id="linearGradient-10" node-id="32" x1="0.40340716" x2="0.53869635" y1="-0.33132026" y2="1.2517982"><stop offset="0" stop-color="#ffdc4d" stop-opacity="0.5"></stop><stop offset="1" stop-color="#f4b538"></stop></linearGradient><linearGradient gradientUnits="objectBoundingBox" id="linearGradient-11" node-id="35" x1="0.3950359" x2="0.54205" y1="-0.33132026" y2="1.2517982"><stop offset="0" stop-color="#ffdc4d" stop-opacity="0.5"></stop><stop offset="1" stop-color="#f4b538"></stop></linearGradient><linearGradient gradientUnits="objectBoundingBox" id="linearGradient-12" node-id="38" x1="0.41413826" x2="0.53439736" y1="-0.33132026" y2="1.2517982"><stop offset="0" stop-color="#ffdc4d" stop-opacity="0.5"></stop><stop offset="1" stop-color="#f4b538"></stop></linearGradient><linearGradient gradientUnits="objectBoundingBox" id="linearGradient-13" node-id="41" x1="0.5" x2="0.5" y1="0" y2="1"><stop offset="0" stop-color="#f9ab21"></stop><stop offset="1" stop-color="#fee127"></stop></linearGradient><linearGradient gradientUnits="objectBoundingBox" id="linearGradient-14" node-id="44" x1="0.4525116" x2="0.9923633" y1="0.9971597" y2="0.9971597"><stop offset="0" stop-color="#ffdc4d"></stop><stop offset="1" stop-color="#f4b538"></stop></linearGradient><linearGradient gradientUnits="objectBoundingBox" id="linearGradient-15" node-id="47" x1="0.4525116" x2="0.9923633" y1="0.9971597" y2="0.9971597"><stop offset="0" stop-color="#ffdc4d"></stop><stop offset="1" stop-color="#f4b538"></stop></linearGradient><linearGradient gradientUnits="objectBoundingBox" id="linearGradient-16" node-id="50" x1="0.9577932" x2="0.14739501" y1="0" y2="0.5794622"><stop offset="0" stop-color="#ffdc4d"></stop><stop offset="1" stop-color="#f4b538"></stop></linearGradient><linearGradient gradientUnits="objectBoundingBox" id="linearGradient-17" node-id="53" x1="0.6995816" x2="-0.7159909" y1="0.63526064" y2="0.6648987"><stop offset="0" stop-color="#ffdc4d"></stop><stop offset="1" stop-color="#f4b538"></stop></linearGradient><linearGradient gradientUnits="objectBoundingBox" id="linearGradient-18" node-id="56" x1="0.46323758" x2="0.57436657" y1="0" y2="0.99999994"><stop offset="0" stop-color="#ffdc4d"></stop><stop offset="1" stop-color="#f4b538"></stop></linearGradient><linearGradient gradientUnits="objectBoundingBox" id="linearGradient-19" node-id="59" x1="0" x2="1.5114496" y1="0" y2="1"><stop offset="0" stop-color="#ffdc4d"></stop><stop offset="1" stop-color="#f4b538"></stop></linearGradient><linearGradient gradientUnits="objectBoundingBox" id="linearGradient-20" node-id="62" x1="-0.3757821" x2="1.2396222" y1="-0.51265955" y2="1.5164537"><stop offset="0" stop-color="#fff29d"></stop><stop offset="1" stop-color="#f9ab21"></stop></linearGradient><clipPath id="mask-22" node-id="142"><path d="M 389.00 194.50 C 389.00 301.92 301.92 389.00 194.50 389.00 C 87.08 389.00 0.00 301.92 0.00 194.50 C -0.00 87.08 87.08 0.00 194.50 0.00 C 301.92 -0.00 389.00 87.08 389.00 194.50 Z" fill="#000000" fill-rule="evenodd" node-id="297" stroke="none" target-height="389" target-width="389" target-x="0" target-y="0"></path></clipPath><linearGradient gradientUnits="objectBoundingBox" id="linearGradient-23" node-id="66" x1="0.27272034" x2="0.7285986" y1="-0.08925286" y2="0.3978337"><stop offset="0" stop-color="#fff29d"></stop><stop offset="1" stop-color="#f9ab21"></stop></linearGradient><linearGradient gradientUnits="objectBoundingBox" id="linearGradient-24" node-id="69" x1="-0.55389845" x2="0.7868453" y1="-0.53336746" y2="0.8462482"><stop offset="0" stop-color="#fff29d"></stop><stop offset="1" stop-color="#f9ab21"></stop></linearGradient><linearGradient gradientUnits="objectBoundingBox" id="linearGradient-25" node-id="72" x1="0.23831105" x2="0.77382725" y1="0.32725003" y2="0.6108684"><stop offset="0" stop-color="#fff29d"></stop><stop offset="1" stop-color="#f9ab21"></stop></linearGradient><linearGradient gradientUnits="objectBoundingBox" id="linearGradient-26" node-id="75" x1="0.4525116" x2="0.9923633" y1="0.9971597" y2="0.9971597"><stop offset="0" stop-color="#ffdc4d"></stop><stop offset="1" stop-color="#f4b538"></stop></linearGradient><linearGradient gradientUnits="objectBoundingBox" id="linearGradient-27" node-id="78" x1="0.4525116" x2="0.9923633" y1="0.9971597" y2="0.9971597"><stop offset="0" stop-color="#ffdc4d"></stop><stop offset="1" stop-color="#f4b538"></stop></linearGradient><linearGradient gradientUnits="objectBoundingBox" id="linearGradient-28" node-id="81" x1="0.4525116" x2="0.9923633" y1="0.9971597" y2="0.9971597"><stop offset="0" stop-color="#ffdc4d"></stop><stop offset="1" stop-color="#f4b538"></stop></linearGradient><linearGradient gradientUnits="objectBoundingBox" id="linearGradient-29" node-id="84" x1="0.4525116" x2="0.9923633" y1="0.9971597" y2="0.9971597"><stop offset="0" stop-color="#ffdc4d"></stop><stop offset="1" stop-color="#f4b538"></stop></linearGradient><linearGradient gradientUnits="objectBoundingBox" id="linearGradient-30" node-id="87" x1="0.4525116" x2="0.9923633" y1="0.9971597" y2="0.9971597"><stop offset="0" stop-color="#ffdc4d"></stop><stop offset="1" stop-color="#f4b538"></stop></linearGradient><linearGradient gradientUnits="objectBoundingBox" id="linearGradient-31" node-id="90" x1="0.86275023" x2="-0.000000000000027057475" y1="-0.028050492" y2="-0.028050492"><stop offset="0" stop-color="#1d181c"></stop><stop offset="0.3" stop-color="#2c2422"></stop><stop offset="0.5" stop-color="#42352c"></stop><stop offset="0.7" stop-color="#57352c"></stop><stop offset="1" stop-color="#923629"></stop></linearGradient><linearGradient gradientUnits="objectBoundingBox" id="linearGradient-32" node-id="96" x1="0.5" x2="0.5" y1="-0.19003879" y2="1"><stop offset="0" stop-color="#ffcda5"></stop><stop offset="1" stop-color="#ffe8d1"></stop></linearGradient><linearGradient gradientUnits="objectBoundingBox" id="linearGradient-33" node-id="99" x1="0.5" x2="0.5" y1="0" y2="1"><stop offset="0" stop-color="#fff2df"></stop><stop offset="1" stop-color="#fee0bc"></stop></linearGradient><linearGradient gradientUnits="objectBoundingBox" id="linearGradient-34" node-id="102" x1="0.20414202" x2="0.6435098" y1="0.23445843" y2="1"><stop offset="0" stop-color="#fff2df"></stop><stop offset="1" stop-color="#fee0bc"></stop></linearGradient><linearGradient gradientUnits="objectBoundingBox" id="linearGradient-35" node-id="105" x1="0.49999997" x2="0.49999997" y1="0" y2="0.99999994"><stop offset="0" stop-color="#fff2df"></stop><stop offset="1" stop-color="#fee0bc"></stop></linearGradient><linearGradient gradientUnits="objectBoundingBox" id="linearGradient-36" node-id="108" x1="-0.08680927" x2="1.2003694" y1="0.66756016" y2="0.5"><stop offset="0" stop-color="#41b093"></stop><stop offset="1" stop-color="#184657"></stop></linearGradient><clipPath id="mask-22_7" node-id="142"><path d="M 676.00 576.50 L 675.77 585.75 L 675.14 594.82 L 674.11 603.73 L 672.69 612.49 L 670.86 621.10 L 668.03 631.78 L 664.64 642.15 L 660.71 652.23 L 656.23 662.04 L 651.20 671.59 L 645.71 680.79 L 639.73 689.64 L 633.27 698.15 L 626.35 706.30 L 619.03 714.03 L 611.30 721.35 L 603.15 728.27 L 594.64 734.73 L 585.79 740.71 L 576.59 746.20 L 567.04 751.23 L 557.23 755.71 L 547.15 759.64 L 536.78 763.03 L 526.10 765.86 L 517.49 767.69 L 508.73 769.11 L 499.82 770.14 L 490.75 770.78 L 481.50 771.00 L 472.25 770.77 L 463.18 770.14 L 454.27 769.11 L 445.51 767.69 L 436.90 765.86 L 426.22 763.03 L 415.85 759.64 L 405.77 755.71 L 395.96 751.23 L 386.41 746.20 L 377.21 740.71 L 368.36 734.73 L 359.85 728.27 L 351.70 721.35 L 343.97 714.03 L 336.65 706.30 L 329.73 698.15 L 323.27 689.64 L 317.29 680.79 L 311.80 671.59 L 306.77 662.04 L 302.29 652.23 L 298.36 642.15 L 294.97 631.78 L 292.14 621.10 L 290.31 612.49 L 288.89 603.73 L 287.86 594.82 L 287.22 585.75 L 287.00 576.50 L 287.22 567.25 L 287.86 558.18 L 288.89 549.27 L 290.31 540.51 L 292.14 531.90 L 294.97 521.22 L 298.36 510.85 L 302.29 500.77 L 306.77 490.96 L 311.80 481.41 L 317.29 472.21 L 323.27 463.36 L 329.73 454.85 L 336.65 446.70 L 343.97 438.97 L 351.70 431.65 L 359.85 424.73 L 368.36 418.27 L 377.21 412.29 L 386.41 406.80 L 395.96 401.77 L 405.77 397.29 L 415.85 393.36 L 426.22 389.97 L 436.90 387.14 L 445.51 385.31 L 454.27 383.89 L 463.18 382.86 L 472.25 382.22 L 481.50 382.00 L 490.75 382.22 L 499.82 382.86 L 508.73 383.89 L 517.49 385.31 L 526.10 387.14 L 536.78 389.97 L 547.15 393.36 L 557.23 397.29 L 567.04 401.77 L 576.59 406.80 L 585.79 412.29 L 594.64 418.27 L 603.15 424.73 L 611.30 431.65 L 619.03 438.97 L 626.35 446.70 L 633.27 454.85 L 639.73 463.36 L 645.71 472.21 L 651.20 481.41 L 656.23 490.96 L 660.71 500.77 L 664.64 510.85 L 668.03 521.22 L 670.86 531.90 L 672.69 540.51 L 674.11 549.27 L 675.14 558.18 L 675.78 567.25 L 676.00 576.50 Z" fill="#000000" fill-rule="evenodd" node-id="297" stroke-linecap="butt" stroke-width="1" target-height="389" target-width="389" target-x="287" target-y="382"></path></clipPath><clipPath id="mask-22_8" node-id="142"><path d="M 676.00 576.50 L 675.77 585.75 L 675.14 594.82 L 674.11 603.73 L 672.69 612.49 L 670.86 621.10 L 668.03 631.78 L 664.64 642.15 L 660.71 652.23 L 656.23 662.04 L 651.20 671.59 L 645.71 680.79 L 639.73 689.64 L 633.27 698.15 L 626.35 706.30 L 619.03 714.03 L 611.30 721.35 L 603.15 728.27 L 594.64 734.73 L 585.79 740.71 L 576.59 746.20 L 567.04 751.23 L 557.23 755.71 L 547.15 759.64 L 536.78 763.03 L 526.10 765.86 L 517.49 767.69 L 508.73 769.11 L 499.82 770.14 L 490.75 770.78 L 481.50 771.00 L 472.25 770.77 L 463.18 770.14 L 454.27 769.11 L 445.51 767.69 L 436.90 765.86 L 426.22 763.03 L 415.85 759.64 L 405.77 755.71 L 395.96 751.23 L 386.41 746.20 L 377.21 740.71 L 368.36 734.73 L 359.85 728.27 L 351.70 721.35 L 343.97 714.03 L 336.65 706.30 L 329.73 698.15 L 323.27 689.64 L 317.29 680.79 L 311.80 671.59 L 306.77 662.04 L 302.29 652.23 L 298.36 642.15 L 294.97 631.78 L 292.14 621.10 L 290.31 612.49 L 288.89 603.73 L 287.86 594.82 L 287.22 585.75 L 287.00 576.50 L 287.22 567.25 L 287.86 558.18 L 288.89 549.27 L 290.31 540.51 L 292.14 531.90 L 294.97 521.22 L 298.36 510.85 L 302.29 500.77 L 306.77 490.96 L 311.80 481.41 L 317.29 472.21 L 323.27 463.36 L 329.73 454.85 L 336.65 446.70 L 343.97 438.97 L 351.70 431.65 L 359.85 424.73 L 368.36 418.27 L 377.21 412.29 L 386.41 406.80 L 395.96 401.77 L 405.77 397.29 L 415.85 393.36 L 426.22 389.97 L 436.90 387.14 L 445.51 385.31 L 454.27 383.89 L 463.18 382.86 L 472.25 382.22 L 481.50 382.00 L 490.75 382.22 L 499.82 382.86 L 508.73 383.89 L 517.49 385.31 L 526.10 387.14 L 536.78 389.97 L 547.15 393.36 L 557.23 397.29 L 567.04 401.77 L 576.59 406.80 L 585.79 412.29 L 594.64 418.27 L 603.15 424.73 L 611.30 431.65 L 619.03 438.97 L 626.35 446.70 L 633.27 454.85 L 639.73 463.36 L 645.71 472.21 L 651.20 481.41 L 656.23 490.96 L 660.71 500.77 L 664.64 510.85 L 668.03 521.22 L 670.86 531.90 L 672.69 540.51 L 674.11 549.27 L 675.14 558.18 L 675.78 567.25 L 676.00 576.50 Z" fill="#000000" fill-rule="evenodd" node-id="297" stroke-linecap="butt" stroke-width="1" target-height="389" target-width="389" target-x="287" target-y="382"></path></clipPath><clipPath id="mask-22_9" node-id="142"><path d="M 676.00 576.50 L 675.77 585.75 L 675.14 594.82 L 674.11 603.73 L 672.69 612.49 L 670.86 621.10 L 668.03 631.78 L 664.64 642.15 L 660.71 652.23 L 656.23 662.04 L 651.20 671.59 L 645.71 680.79 L 639.73 689.64 L 633.27 698.15 L 626.35 706.30 L 619.03 714.03 L 611.30 721.35 L 603.15 728.27 L 594.64 734.73 L 585.79 740.71 L 576.59 746.20 L 567.04 751.23 L 557.23 755.71 L 547.15 759.64 L 536.78 763.03 L 526.10 765.86 L 517.49 767.69 L 508.73 769.11 L 499.82 770.14 L 490.75 770.78 L 481.50 771.00 L 472.25 770.77 L 463.18 770.14 L 454.27 769.11 L 445.51 767.69 L 436.90 765.86 L 426.22 763.03 L 415.85 759.64 L 405.77 755.71 L 395.96 751.23 L 386.41 746.20 L 377.21 740.71 L 368.36 734.73 L 359.85 728.27 L 351.70 721.35 L 343.97 714.03 L 336.65 706.30 L 329.73 698.15 L 323.27 689.64 L 317.29 680.79 L 311.80 671.59 L 306.77 662.04 L 302.29 652.23 L 298.36 642.15 L 294.97 631.78 L 292.14 621.10 L 290.31 612.49 L 288.89 603.73 L 287.86 594.82 L 287.22 585.75 L 287.00 576.50 L 287.22 567.25 L 287.86 558.18 L 288.89 549.27 L 290.31 540.51 L 292.14 531.90 L 294.97 521.22 L 298.36 510.85 L 302.29 500.77 L 306.77 490.96 L 311.80 481.41 L 317.29 472.21 L 323.27 463.36 L 329.73 454.85 L 336.65 446.70 L 343.97 438.97 L 351.70 431.65 L 359.85 424.73 L 368.36 418.27 L 377.21 412.29 L 386.41 406.80 L 395.96 401.77 L 405.77 397.29 L 415.85 393.36 L 426.22 389.97 L 436.90 387.14 L 445.51 385.31 L 454.27 383.89 L 463.18 382.86 L 472.25 382.22 L 481.50 382.00 L 490.75 382.22 L 499.82 382.86 L 508.73 383.89 L 517.49 385.31 L 526.10 387.14 L 536.78 389.97 L 547.15 393.36 L 557.23 397.29 L 567.04 401.77 L 576.59 406.80 L 585.79 412.29 L 594.64 418.27 L 603.15 424.73 L 611.30 431.65 L 619.03 438.97 L 626.35 446.70 L 633.27 454.85 L 639.73 463.36 L 645.71 472.21 L 651.20 481.41 L 656.23 490.96 L 660.71 500.77 L 664.64 510.85 L 668.03 521.22 L 670.86 531.90 L 672.69 540.51 L 674.11 549.27 L 675.14 558.18 L 675.78 567.25 L 676.00 576.50 Z" fill="#000000" fill-rule="evenodd" node-id="297" stroke-linecap="butt" stroke-width="1" target-height="389" target-width="389" target-x="287" target-y="382"></path></clipPath><clipPath id="mask-22_10" node-id="142"><path d="M 676.00 576.50 L 675.77 585.75 L 675.14 594.82 L 674.11 603.73 L 672.69 612.49 L 670.86 621.10 L 668.03 631.78 L 664.64 642.15 L 660.71 652.23 L 656.23 662.04 L 651.20 671.59 L 645.71 680.79 L 639.73 689.64 L 633.27 698.15 L 626.35 706.30 L 619.03 714.03 L 611.30 721.35 L 603.15 728.27 L 594.64 734.73 L 585.79 740.71 L 576.59 746.20 L 567.04 751.23 L 557.23 755.71 L 547.15 759.64 L 536.78 763.03 L 526.10 765.86 L 517.49 767.69 L 508.73 769.11 L 499.82 770.14 L 490.75 770.78 L 481.50 771.00 L 472.25 770.77 L 463.18 770.14 L 454.27 769.11 L 445.51 767.69 L 436.90 765.86 L 426.22 763.03 L 415.85 759.64 L 405.77 755.71 L 395.96 751.23 L 386.41 746.20 L 377.21 740.71 L 368.36 734.73 L 359.85 728.27 L 351.70 721.35 L 343.97 714.03 L 336.65 706.30 L 329.73 698.15 L 323.27 689.64 L 317.29 680.79 L 311.80 671.59 L 306.77 662.04 L 302.29 652.23 L 298.36 642.15 L 294.97 631.78 L 292.14 621.10 L 290.31 612.49 L 288.89 603.73 L 287.86 594.82 L 287.22 585.75 L 287.00 576.50 L 287.22 567.25 L 287.86 558.18 L 288.89 549.27 L 290.31 540.51 L 292.14 531.90 L 294.97 521.22 L 298.36 510.85 L 302.29 500.77 L 306.77 490.96 L 311.80 481.41 L 317.29 472.21 L 323.27 463.36 L 329.73 454.85 L 336.65 446.70 L 343.97 438.97 L 351.70 431.65 L 359.85 424.73 L 368.36 418.27 L 377.21 412.29 L 386.41 406.80 L 395.96 401.77 L 405.77 397.29 L 415.85 393.36 L 426.22 389.97 L 436.90 387.14 L 445.51 385.31 L 454.27 383.89 L 463.18 382.86 L 472.25 382.22 L 481.50 382.00 L 490.75 382.22 L 499.82 382.86 L 508.73 383.89 L 517.49 385.31 L 526.10 387.14 L 536.78 389.97 L 547.15 393.36 L 557.23 397.29 L 567.04 401.77 L 576.59 406.80 L 585.79 412.29 L 594.64 418.27 L 603.15 424.73 L 611.30 431.65 L 619.03 438.97 L 626.35 446.70 L 633.27 454.85 L 639.73 463.36 L 645.71 472.21 L 651.20 481.41 L 656.23 490.96 L 660.71 500.77 L 664.64 510.85 L 668.03 521.22 L 670.86 531.90 L 672.69 540.51 L 674.11 549.27 L 675.14 558.18 L 675.78 567.25 L 676.00 576.50 Z" fill="#000000" fill-rule="evenodd" node-id="297" stroke-linecap="butt" stroke-width="1" target-height="389" target-width="389" target-x="287" target-y="382"></path></clipPath><clipPath id="mask-22_11" node-id="142"><path d="M 676.00 576.50 L 675.77 585.75 L 675.14 594.82 L 674.11 603.73 L 672.69 612.49 L 670.86 621.10 L 668.03 631.78 L 664.64 642.15 L 660.71 652.23 L 656.23 662.04 L 651.20 671.59 L 645.71 680.79 L 639.73 689.64 L 633.27 698.15 L 626.35 706.30 L 619.03 714.03 L 611.30 721.35 L 603.15 728.27 L 594.64 734.73 L 585.79 740.71 L 576.59 746.20 L 567.04 751.23 L 557.23 755.71 L 547.15 759.64 L 536.78 763.03 L 526.10 765.86 L 517.49 767.69 L 508.73 769.11 L 499.82 770.14 L 490.75 770.78 L 481.50 771.00 L 472.25 770.77 L 463.18 770.14 L 454.27 769.11 L 445.51 767.69 L 436.90 765.86 L 426.22 763.03 L 415.85 759.64 L 405.77 755.71 L 395.96 751.23 L 386.41 746.20 L 377.21 740.71 L 368.36 734.73 L 359.85 728.27 L 351.70 721.35 L 343.97 714.03 L 336.65 706.30 L 329.73 698.15 L 323.27 689.64 L 317.29 680.79 L 311.80 671.59 L 306.77 662.04 L 302.29 652.23 L 298.36 642.15 L 294.97 631.78 L 292.14 621.10 L 290.31 612.49 L 288.89 603.73 L 287.86 594.82 L 287.22 585.75 L 287.00 576.50 L 287.22 567.25 L 287.86 558.18 L 288.89 549.27 L 290.31 540.51 L 292.14 531.90 L 294.97 521.22 L 298.36 510.85 L 302.29 500.77 L 306.77 490.96 L 311.80 481.41 L 317.29 472.21 L 323.27 463.36 L 329.73 454.85 L 336.65 446.70 L 343.97 438.97 L 351.70 431.65 L 359.85 424.73 L 368.36 418.27 L 377.21 412.29 L 386.41 406.80 L 395.96 401.77 L 405.77 397.29 L 415.85 393.36 L 426.22 389.97 L 436.90 387.14 L 445.51 385.31 L 454.27 383.89 L 463.18 382.86 L 472.25 382.22 L 481.50 382.00 L 490.75 382.22 L 499.82 382.86 L 508.73 383.89 L 517.49 385.31 L 526.10 387.14 L 536.78 389.97 L 547.15 393.36 L 557.23 397.29 L 567.04 401.77 L 576.59 406.80 L 585.79 412.29 L 594.64 418.27 L 603.15 424.73 L 611.30 431.65 L 619.03 438.97 L 626.35 446.70 L 633.27 454.85 L 639.73 463.36 L 645.71 472.21 L 651.20 481.41 L 656.23 490.96 L 660.71 500.77 L 664.64 510.85 L 668.03 521.22 L 670.86 531.90 L 672.69 540.51 L 674.11 549.27 L 675.14 558.18 L 675.78 567.25 L 676.00 576.50 Z" fill="#000000" fill-rule="evenodd" node-id="297" stroke-linecap="butt" stroke-width="1" target-height="389" target-width="389" target-x="287" target-y="382"></path></clipPath><clipPath id="mask-22_12" node-id="142"><path d="M 676.00 576.50 L 675.77 585.75 L 675.14 594.82 L 674.11 603.73 L 672.69 612.49 L 670.86 621.10 L 668.03 631.78 L 664.64 642.15 L 660.71 652.23 L 656.23 662.04 L 651.20 671.59 L 645.71 680.79 L 639.73 689.64 L 633.27 698.15 L 626.35 706.30 L 619.03 714.03 L 611.30 721.35 L 603.15 728.27 L 594.64 734.73 L 585.79 740.71 L 576.59 746.20 L 567.04 751.23 L 557.23 755.71 L 547.15 759.64 L 536.78 763.03 L 526.10 765.86 L 517.49 767.69 L 508.73 769.11 L 499.82 770.14 L 490.75 770.78 L 481.50 771.00 L 472.25 770.77 L 463.18 770.14 L 454.27 769.11 L 445.51 767.69 L 436.90 765.86 L 426.22 763.03 L 415.85 759.64 L 405.77 755.71 L 395.96 751.23 L 386.41 746.20 L 377.21 740.71 L 368.36 734.73 L 359.85 728.27 L 351.70 721.35 L 343.97 714.03 L 336.65 706.30 L 329.73 698.15 L 323.27 689.64 L 317.29 680.79 L 311.80 671.59 L 306.77 662.04 L 302.29 652.23 L 298.36 642.15 L 294.97 631.78 L 292.14 621.10 L 290.31 612.49 L 288.89 603.73 L 287.86 594.82 L 287.22 585.75 L 287.00 576.50 L 287.22 567.25 L 287.86 558.18 L 288.89 549.27 L 290.31 540.51 L 292.14 531.90 L 294.97 521.22 L 298.36 510.85 L 302.29 500.77 L 306.77 490.96 L 311.80 481.41 L 317.29 472.21 L 323.27 463.36 L 329.73 454.85 L 336.65 446.70 L 343.97 438.97 L 351.70 431.65 L 359.85 424.73 L 368.36 418.27 L 377.21 412.29 L 386.41 406.80 L 395.96 401.77 L 405.77 397.29 L 415.85 393.36 L 426.22 389.97 L 436.90 387.14 L 445.51 385.31 L 454.27 383.89 L 463.18 382.86 L 472.25 382.22 L 481.50 382.00 L 490.75 382.22 L 499.82 382.86 L 508.73 383.89 L 517.49 385.31 L 526.10 387.14 L 536.78 389.97 L 547.15 393.36 L 557.23 397.29 L 567.04 401.77 L 576.59 406.80 L 585.79 412.29 L 594.64 418.27 L 603.15 424.73 L 611.30 431.65 L 619.03 438.97 L 626.35 446.70 L 633.27 454.85 L 639.73 463.36 L 645.71 472.21 L 651.20 481.41 L 656.23 490.96 L 660.71 500.77 L 664.64 510.85 L 668.03 521.22 L 670.86 531.90 L 672.69 540.51 L 674.11 549.27 L 675.14 558.18 L 675.78 567.25 L 676.00 576.50 Z" fill="#000000" fill-rule="evenodd" node-id="297" stroke-linecap="butt" stroke-width="1" target-height="389" target-width="389" target-x="287" target-y="382"></path></clipPath></defs><path d="M 0.00 0.00 L 1024.00 0.00 L 1024.00 1024.00 L 0.00 1024.00 Z" fill="none" id="矩形" node-id="112" stroke="none" target-height="1024" target-width="1024" target-x="0" target-y="0"></path><g node-id="457"><path d="M 47.68 650.05 C 39.55 614.98 -13.39 386.58 136.30 355.17 C 286.00 323.77 374.43 360.35 440.20 296.40 C 505.98 232.46 522.38 242.95 576.41 247.18 C 630.43 251.41 693.04 205.25 714.08 191.39 C 735.12 177.52 925.09 88.31 973.65 355.17 C 981.33 470.55 987.71 595.72 933.97 643.13 C 880.23 690.54 934.95 733.12 973.65 737.85 C 1012.35 742.58 955.56 823.59 866.17 858.96 C 806.73 885.62 422.28 962.05 192.05 883.48 C 80.88 835.88 55.82 685.12 47.68 650.05 Z" fill="#f1bc01" fill-opacity="0.05" fill-rule="evenodd" group-id="1" id="路径-58" node-id="113" stroke-linecap="butt" stroke-opacity="0.05" stroke-width="1" target-height="751.9589" target-width="953.95276" target-x="32.04002" target-y="166.01213"></path></g><path d="M 280.00 340.12 C 280.00 354.50 265.40 366.00 246.97 366.00 L 144.80 366.00 C 126.36 364.85 111.00 353.93 111.00 338.98 C 111.00 329.20 117.91 320.57 127.90 315.98 C 127.13 314.25 126.36 312.52 126.36 310.80 C 126.36 301.02 136.35 292.40 149.41 292.40 C 154.79 292.40 159.40 294.12 163.24 296.43 C 172.45 283.20 189.35 274.00 209.33 274.00 C 236.98 274.00 259.26 291.82 259.26 313.68 L 259.26 315.98 C 271.55 320.00 280.00 329.20 280.00 340.12 Z" fill="url(#linearGradient-1)" fill-rule="evenodd" id="路径" node-id="114" stroke="none" target-height="92" target-width="169" target-x="111" target-y="274"></path><path d="M 814.00 225.31 C 814.00 236.25 803.81 245.00 790.94 245.00 L 719.60 245.00 C 706.73 244.12 696.00 235.81 696.00 224.44 C 696.00 217.00 700.83 210.44 707.80 206.94 C 707.26 205.62 706.73 204.31 706.73 203.00 C 706.73 195.56 713.70 189.00 722.82 189.00 C 726.57 189.00 729.79 190.31 732.47 192.06 C 738.91 182.00 750.71 175.00 764.65 175.00 C 783.96 175.00 799.52 188.56 799.52 205.19 L 799.52 206.94 C 808.10 210.00 814.00 217.00 814.00 225.31 Z" fill="url(#linearGradient-2)" fill-rule="evenodd" id="路径" node-id="115" stroke="none" target-height="70" target-width="118" target-x="696" target-y="175"></path><path d="M 882.00 232.31 C 882.00 243.25 871.81 252.00 858.94 252.00 L 787.60 252.00 C 774.73 251.12 764.00 242.81 764.00 231.44 C 764.00 224.00 768.83 217.44 775.80 213.94 C 775.26 212.62 774.73 211.31 774.73 210.00 C 774.73 202.56 781.70 196.00 790.82 196.00 C 794.57 196.00 797.79 197.31 800.47 199.06 C 806.91 189.00 818.71 182.00 832.65 182.00 C 851.96 182.00 867.52 195.56 867.52 212.19 L 867.52 213.94 C 876.10 217.00 882.00 224.00 882.00 232.31 Z" fill="url(#linearGradient-2)" fill-rule="evenodd" id="路径备份" node-id="116" stroke="none" target-height="70" target-width="118" target-x="764" target-y="182"></path><path d="M 160.79 674.66 L 158.95 670.73 L 157.16 666.29 L 154.09 657.46 L 151.76 650.21 L 151.00 647.31 L 150.48 644.14 L 150.01 637.86 L 150.05 636.79 L 150.38 635.88 L 151.01 635.37 L 151.76 635.16 L 153.99 635.01 L 156.16 635.26 L 158.32 635.91 L 161.41 637.43 L 164.46 639.54 L 167.33 641.99 L 170.06 644.66 L 173.01 647.98 L 175.87 651.78 L 178.63 656.07 L 182.35 662.84 L 185.72 670.13 L 188.69 677.61 L 191.20 684.96 L 191.76 688.73 L 191.95 691.04 L 191.99 693.53 L 191.82 696.01 L 191.38 698.25 L 190.59 700.25 L 189.43 701.73 L 188.11 702.58 L 186.77 702.97 L 185.37 702.95 L 183.25 702.35 L 181.06 701.23 L 177.13 698.42 L 173.43 695.08 L 170.20 691.35 L 167.38 687.38 L 165.13 683.66 L 161.97 677.42 L 160.79 674.66 Z" fill="url(#linearGradient-3)" fill-rule="evenodd" group-id="2" id="路径" node-id="118" stroke-linecap="butt" stroke-width="1" target-height="67.96094" target-width="41.98668" target-x="150.00658" target-y="635.0133"></path><path d="M 205.95 727.53 L 207.64 726.42 L 209.08 724.73 L 210.21 722.70 L 211.07 720.44 L 212.60 716.28 L 214.30 712.55 L 216.18 709.21 L 219.40 704.50 L 222.86 700.25 L 230.28 692.30 L 233.99 688.33 L 237.61 684.12 L 242.94 677.05 L 245.41 673.34 L 247.74 669.43 L 250.09 665.01 L 251.25 662.51 L 252.20 660.03 L 252.84 657.58 L 252.99 655.54 L 252.77 654.30 L 252.24 653.34 L 251.38 652.59 L 250.30 652.17 L 248.67 652.01 L 246.28 652.24 L 243.64 652.93 L 240.86 654.04 L 237.90 655.61 L 233.65 658.42 L 229.37 661.81 L 225.27 665.48 L 221.50 669.20 L 215.12 676.17 L 211.07 681.10 L 208.75 684.43 L 206.47 688.31 L 204.39 692.39 L 202.53 696.54 L 200.88 700.69 L 199.59 704.38 L 198.56 707.89 L 198.00 710.41 L 198.28 716.76 L 198.91 721.22 L 199.76 724.23 L 200.76 726.16 L 201.83 727.31 L 203.00 727.88 L 204.34 727.98 L 205.95 727.53 Z" fill="url(#linearGradient-4)" fill-rule="evenodd" group-id="2" id="路径" node-id="119" stroke-linecap="butt" stroke-width="1" target-height="75.97162" target-width="54.9888" target-x="198" target-y="652.00507"></path><path d="M 171.80 765.63 L 172.53 766.75 L 173.34 767.46 L 174.25 767.86 L 175.75 767.98 L 177.21 767.58 L 178.48 766.75 L 179.36 765.63 L 180.81 762.92 L 181.31 761.66 L 181.70 759.93 L 181.91 757.87 L 182.00 754.48 L 181.77 750.67 L 181.13 746.59 L 180.16 742.57 L 178.99 738.93 L 177.58 735.58 L 176.26 733.23 L 175.57 731.88 L 173.73 729.30 L 171.32 726.58 L 167.71 723.26 L 165.02 721.18 L 161.82 719.08 L 158.03 716.98 L 154.25 715.16 L 150.25 713.92 L 146.16 713.22 L 142.35 713.00 L 138.72 713.20 L 135.94 713.73 L 134.22 714.34 L 133.17 714.98 L 132.59 715.63 L 132.14 716.83 L 131.99 717.99 L 132.14 719.16 L 132.74 720.87 L 133.67 722.47 L 135.72 725.06 L 137.73 727.09 L 140.10 729.09 L 145.90 733.50 L 149.33 736.17 L 153.59 739.73 L 157.41 743.50 L 161.15 747.90 L 164.80 753.01 L 168.35 758.90 L 171.80 765.63 Z" fill="url(#linearGradient-5)" fill-rule="evenodd" group-id="2" id="路径" node-id="120" stroke-linecap="butt" stroke-width="1" target-height="54.97699" target-width="50.008545" target-x="131.99146" target-y="713.0001"></path><path d="M 247.18 697.03 L 251.34 695.01 L 253.43 693.90 L 254.95 693.14 L 257.38 692.22 L 262.22 690.60 L 265.20 689.90 L 270.19 689.27 L 275.75 689.00 L 278.39 689.09 L 280.44 689.35 L 282.13 689.91 L 282.84 690.60 L 282.97 691.66 L 282.60 692.88 L 281.56 694.38 L 279.44 696.44 L 276.40 698.78 L 269.58 703.17 L 263.27 706.90 L 260.79 708.48 L 259.69 709.36 L 255.14 712.39 L 250.86 715.85 L 246.87 719.51 L 243.51 722.86 L 238.39 728.08 L 237.18 729.41 L 235.98 731.06 L 233.76 734.70 L 231.72 738.18 L 229.22 742.41 L 227.98 744.31 L 226.42 746.26 L 225.15 747.56 L 223.81 748.66 L 222.35 749.51 L 220.83 749.95 L 219.05 749.87 L 217.32 749.15 L 215.84 747.89 L 214.64 746.11 L 213.71 743.88 L 213.23 742.03 L 213.02 740.20 L 213.03 738.33 L 213.37 734.01 L 213.90 730.64 L 214.99 726.90 L 215.77 725.30 L 216.56 724.38 L 217.88 722.97 L 219.52 720.95 L 220.83 719.50 L 221.80 718.38 L 222.27 717.31 L 222.77 714.96 L 223.18 713.79 L 224.05 712.49 L 225.46 710.96 L 227.79 708.54 L 230.17 706.22 L 231.72 705.02 L 234.95 703.44 L 239.15 701.12 L 242.34 699.41 L 247.18 697.03 Z" fill="url(#linearGradient-6)" fill-rule="evenodd" group-id="2" id="路径" node-id="121" stroke-linecap="butt" stroke-width="1" target-height="60.95337" target-width="69.95401" target-x="213.01825" target-y="689"></path><path d="M 235.08 754.16 L 238.06 751.47 L 241.28 749.32 L 248.11 745.71 L 251.31 744.27 L 254.48 743.34 L 257.70 742.94 L 260.89 743.13 L 264.24 743.82 L 265.93 744.12 L 267.61 744.24 L 269.28 744.06 L 270.97 743.47 L 271.45 743.16 L 271.76 742.72 L 271.78 742.17 L 271.55 741.34 L 270.77 739.61 L 270.10 738.21 L 268.80 735.59 L 267.04 733.35 L 264.90 731.47 L 262.44 730.02 L 259.74 729.05 L 256.83 728.57 L 253.33 728.65 L 249.75 729.37 L 246.27 730.65 L 242.86 732.46 L 239.68 734.72 L 236.75 737.39 L 234.15 740.40 L 231.89 743.63 L 229.96 747.10 L 228.36 750.74 L 227.11 754.43 L 226.19 758.18 L 225.87 761.27 L 226.00 762.80 L 226.38 764.16 L 226.84 764.75 L 227.54 764.93 L 228.18 764.66 L 228.76 764.15 L 230.36 762.05 L 231.65 759.71 L 232.89 757.32 L 234.31 755.08 L 235.08 754.16 Z" fill="url(#linearGradient-7)" fill-rule="evenodd" group-id="2" id="路径" node-id="122" stroke-linecap="butt" stroke-width="1" target-height="36.367737" target-width="45.912888" target-x="225.86818" target-y="728.5651"></path><path d="M 190.77 716.29 L 193.04 731.16 L 194.77 746.19 L 196.23 761.68 L 197.53 777.20 L 199.83 808.79 L 201.67 840.63 L 201.87 844.67 L 201.99 845.41 L 202.27 846.00 L 202.70 846.43 L 203.26 846.60 L 203.79 846.48 L 204.30 846.08 L 204.64 845.51 L 204.76 844.78 L 202.97 812.62 L 200.67 780.33 L 197.94 748.80 L 196.30 733.75 L 194.18 718.84 L 192.84 711.37 L 191.29 703.97 L 189.49 696.66 L 187.41 689.51 L 186.25 686.01 L 185.90 685.43 L 185.40 685.12 L 184.84 685.06 L 184.30 685.26 L 183.85 685.75 L 183.60 686.39 L 183.55 687.09 L 183.70 687.81 L 185.87 694.73 L 187.75 701.82 L 189.37 709.01 L 190.77 716.29 Z" fill="url(#linearGradient-8)" fill-rule="evenodd" group-id="2" id="路径" node-id="123" stroke-linecap="butt" stroke-width="1" target-height="161.54553" target-width="21.208069" target-x="183.55267" target-y="685.05774"></path><path d="M 208.52 705.73 L 204.61 715.16 L 201.14 724.90 L 198.08 734.96 L 195.43 745.41 L 193.21 756.04 L 191.44 766.86 L 189.99 778.83 L 189.00 790.86 L 188.49 802.97 L 188.42 815.11 L 188.74 827.21 L 189.46 839.28 L 189.81 843.67 L 190.03 844.36 L 190.45 844.83 L 191.00 845.08 L 191.55 845.06 L 192.08 844.74 L 192.43 844.20 L 192.61 843.53 L 192.63 842.77 L 191.81 831.00 L 191.37 819.19 L 191.30 807.35 L 191.64 795.50 L 192.43 783.72 L 193.66 771.98 L 195.26 761.12 L 197.31 750.43 L 199.80 739.91 L 202.60 730.07 L 205.81 720.53 L 209.42 711.26 L 213.52 702.17 L 218.02 693.53 L 222.93 685.32 L 224.89 682.35 L 225.20 681.72 L 225.34 681.02 L 225.27 680.32 L 224.97 679.67 L 224.51 679.26 L 223.96 679.09 L 223.41 679.18 L 222.93 679.60 L 217.72 687.84 L 212.91 696.54 L 208.52 705.73 Z" fill="url(#linearGradient-9)" fill-rule="evenodd" group-id="2" id="路径" node-id="124" stroke-linecap="butt" stroke-width="1" target-height="165.99597" target-width="36.918976" target-x="188.41846" target-y="679.08826"></path><path d="M 223.70 731.19 L 219.63 738.00 L 216.03 745.26 L 212.88 753.00 L 210.16 761.31 L 207.96 769.87 L 206.27 778.71 L 204.94 789.10 L 204.19 799.57 L 204.00 810.13 L 204.32 820.72 L 205.03 831.26 L 206.15 841.74 L 206.64 845.62 L 206.88 846.30 L 207.32 846.75 L 207.89 846.98 L 208.44 846.94 L 208.96 846.60 L 209.31 846.05 L 209.47 845.38 L 209.46 844.62 L 208.27 834.46 L 207.45 824.24 L 206.99 813.94 L 206.94 806.28 L 207.17 798.62 L 207.69 790.99 L 208.54 783.44 L 209.67 776.35 L 211.12 769.38 L 212.65 763.47 L 213.52 760.51 L 214.41 757.75 L 216.52 752.00 L 218.88 746.46 L 221.50 741.12 L 222.94 738.50 L 224.25 736.26 L 227.42 731.44 L 230.80 726.98 L 234.46 722.84 L 238.26 719.21 L 240.28 717.51 L 240.70 717.02 L 240.95 716.36 L 240.99 715.64 L 240.81 714.93 L 240.41 714.38 L 239.91 714.07 L 239.35 714.01 L 238.80 714.26 L 234.69 717.87 L 230.81 721.88 L 227.14 726.31 L 223.70 731.19 Z" fill="url(#linearGradient-10)" fill-rule="evenodd" group-id="2" id="路径" node-id="125" stroke-linecap="butt" stroke-width="1" target-height="132.97107" target-width="36.986115" target-x="204.00424" target-y="714.0122"></path><path d="M 225.39 760.85 L 222.61 766.65 L 220.08 772.67 L 217.81 778.90 L 215.76 785.35 L 213.98 791.94 L 212.45 798.67 L 210.70 808.91 L 209.55 819.31 L 209.04 829.46 L 209.14 839.63 L 209.25 842.10 L 209.40 842.83 L 209.70 843.44 L 210.17 843.86 L 210.74 844.00 L 211.29 843.84 L 211.79 843.43 L 212.13 842.85 L 212.23 842.10 L 211.98 832.03 L 212.34 821.97 L 212.74 816.89 L 212.86 815.68 L 212.89 815.38 L 212.87 815.60 L 212.89 815.43 L 212.97 814.67 L 213.79 808.41 L 214.83 802.20 L 217.00 792.34 L 219.74 782.76 L 219.92 782.19 L 220.01 781.91 L 220.07 781.74 L 220.05 781.78 L 220.04 781.83 L 220.09 781.66 L 220.19 781.38 L 220.40 780.74 L 222.95 773.83 L 224.84 769.33 L 226.87 764.94 L 229.06 760.67 L 231.37 756.54 L 231.94 755.58 L 232.02 755.45 L 231.93 755.60 L 232.08 755.36 L 232.41 754.83 L 233.64 752.88 L 237.57 747.22 L 237.88 746.61 L 238.00 745.88 L 237.90 745.15 L 237.57 744.54 L 237.07 744.14 L 236.52 744.00 L 235.97 744.12 L 235.47 744.54 L 231.87 749.68 L 228.51 755.11 L 225.39 760.85 Z" fill="url(#linearGradient-11)" fill-rule="evenodd" group-id="2" id="路径" node-id="126" stroke-linecap="butt" stroke-width="1" target-height="99.9978" target-width="28.96341" target-x="209.03622" target-y="744.0004"></path><path d="M 165.18 744.14 L 165.52 744.67 L 165.65 744.86 L 165.70 744.94 L 165.75 745.02 L 167.04 747.08 L 169.53 751.35 L 171.81 755.69 L 173.94 760.18 L 175.92 764.78 L 177.76 769.50 L 177.95 770.03 L 178.01 770.18 L 177.95 770.04 L 178.06 770.34 L 179.33 774.00 L 180.86 778.80 L 183.60 788.75 L 185.90 798.91 L 187.85 809.28 L 189.51 819.75 L 190.06 823.62 L 190.15 824.29 L 190.21 824.72 L 190.90 830.02 L 192.18 840.54 L 192.48 843.15 L 192.65 843.87 L 192.96 844.46 L 193.43 844.87 L 194.00 844.98 L 194.53 844.80 L 195.02 844.37 L 195.34 843.78 L 195.41 843.04 L 192.69 821.33 L 191.08 810.76 L 189.19 800.27 L 186.96 789.98 L 184.31 779.89 L 182.24 773.21 L 179.93 766.71 L 177.37 760.37 L 174.53 754.21 L 171.42 748.35 L 168.05 742.76 L 166.51 740.43 L 166.03 740.02 L 165.46 739.92 L 164.89 740.09 L 164.43 740.51 L 164.14 741.17 L 164.07 741.85 L 164.20 742.53 L 164.52 743.17 L 165.18 744.14 Z" fill="url(#linearGradient-12)" fill-rule="evenodd" group-id="2" id="路径" node-id="127" stroke-linecap="butt" stroke-width="1" target-height="105.05823" target-width="31.344894" target-x="164.06589" target-y="739.9198"></path><path d="M 209.95 822.74 L 212.65 828.19 L 215.31 833.00 L 217.14 835.80 L 218.19 836.95 L 219.29 837.71 L 220.52 838.00 L 221.75 837.69 L 222.78 836.83 L 223.59 835.24 L 223.93 833.35 L 224.00 831.30 L 223.86 821.83 L 223.31 812.44 L 222.65 806.21 L 221.71 800.19 L 220.50 794.38 L 218.92 788.68 L 216.98 783.34 L 214.68 778.34 L 212.87 775.36 L 210.74 772.69 L 208.35 770.42 L 206.03 768.87 L 204.39 768.21 L 202.95 768.01 L 201.64 768.21 L 200.52 768.84 L 199.53 770.04 L 198.66 772.03 L 198.21 774.20 L 198.01 777.32 L 198.19 781.66 L 199.10 788.81 L 200.54 795.99 L 202.42 803.07 L 204.66 809.92 L 207.23 816.57 L 209.95 822.74 Z" fill="url(#linearGradient-13)" fill-rule="evenodd" group-id="2" id="路径" node-id="128" stroke-linecap="butt" stroke-width="1" target-height="69.99121" target-width="25.990173" target-x="198.00784" target-y="768.00867"></path><path d="M 178.50 925.00 L 230.50 925.00 L 231.72 925.17 L 232.77 925.61 L 233.68 926.32 L 234.39 927.23 L 234.83 928.28 L 235.00 929.50 L 235.00 929.50 L 234.83 930.72 L 234.39 931.77 L 233.68 932.68 L 232.77 933.39 L 231.72 933.83 L 230.50 934.00 L 178.50 934.00 L 177.28 933.83 L 176.23 933.39 L 175.32 932.68 L 174.61 931.77 L 174.17 930.72 L 174.00 929.50 L 174.00 929.50 L 174.17 928.28 L 174.61 927.23 L 175.32 926.32 L 176.23 925.61 L 177.28 925.17 L 178.50 925.00 Z" fill="#f1bc01" fill-opacity="0.3" fill-rule="evenodd" group-id="2,8" id="矩形" node-id="129" stroke-linecap="butt" stroke-opacity="0.3" stroke-width="1" target-height="9" target-width="61" target-x="174" target-y="925"></path><path d="M 179.80 844.00 L 230.20 844.00 L 231.83 844.23 L 233.23 844.81 L 234.44 845.76 L 235.39 846.97 L 235.97 848.37 L 236.20 850.00 L 236.15 850.75 L 226.99 923.75 L 226.62 925.20 L 225.96 926.44 L 225.01 927.50 L 223.84 928.31 L 222.53 928.81 L 221.04 929.00 L 188.96 929.00 L 187.47 928.81 L 186.16 928.31 L 184.99 927.50 L 184.04 926.44 L 183.38 925.20 L 183.01 923.75 L 173.85 850.75 L 173.87 849.10 L 174.28 847.64 L 175.06 846.32 L 176.15 845.23 L 177.47 844.48 L 179.05 844.05 L 179.80 844.00 Z" fill="#825852" fill-rule="evenodd" group-id="2" id="矩形" node-id="130" stroke-linecap="butt" stroke-width="1" target-height="85" target-width="62.353302" target-x="173.8467" target-y="844"></path><path d="M 371.16 886.23 L 371.00 886.83 L 370.51 887.43 L 369.57 888.07 L 367.85 888.77 L 365.37 889.38 L 362.66 889.74 L 359.47 889.88 L 356.29 889.74 L 353.57 889.38 L 351.09 888.77 L 349.38 888.07 L 348.43 887.43 L 347.95 886.83 L 347.78 886.23 L 347.95 885.63 L 348.43 885.02 L 349.38 884.38 L 351.09 883.68 L 353.57 883.07 L 356.29 882.71 L 359.47 882.57 L 362.66 882.71 L 365.37 883.07 L 367.85 883.68 L 369.57 884.38 L 370.51 885.02 L 371.00 885.63 L 371.16 886.23 Z" fill="#825852" fill-rule="evenodd" group-id="3" id="椭圆形" node-id="132" stroke-linecap="butt" stroke-width="1" target-height="7.305359" target-width="23.377167" target-x="347.7844" target-y="882.57465"></path><path d="M 347.06 884.80 L 347.88 875.47 L 349.09 867.58 L 350.61 860.96 L 352.40 855.44 L 354.41 850.88 L 356.60 847.16 L 358.95 844.16 L 361.47 841.78 L 364.17 839.96 L 367.07 838.64 L 370.49 838.24 L 372.07 838.20 L 373.24 838.39 L 374.10 838.89 L 374.45 839.78 L 374.27 840.97 L 373.25 843.09 L 372.01 844.67 L 370.42 846.08 L 366.43 849.40 L 364.24 851.75 L 361.57 855.40 L 359.08 859.81 L 356.14 866.42 L 353.45 874.04 L 350.41 884.78 L 349.68 885.72 L 348.97 886.00 L 348.15 885.77 L 347.06 884.80 Z" fill="url(#linearGradient-14)" fill-rule="evenodd" group-id="3" id="路径-42" node-id="133" stroke-linecap="butt" stroke-width="1" target-height="47.79962" target-width="27.387878" target-x="347.0627" target-y="838.20374"></path><path d="M 346.84 884.46 L 344.11 864.11 L 341.99 850.64 L 340.38 842.31 L 339.17 837.63 L 337.16 831.08 L 336.19 827.48 L 335.44 824.05 L 335.03 820.73 L 335.12 818.18 L 335.53 816.69 L 336.25 815.72 L 337.29 815.13 L 338.51 814.99 L 340.35 815.37 L 343.06 816.54 L 344.88 817.76 L 346.58 819.35 L 348.16 821.36 L 349.63 823.86 L 351.17 827.35 L 352.50 831.38 L 353.59 836.04 L 354.35 840.75 L 354.87 845.74 L 355.13 851.03 L 355.06 858.94 L 354.45 866.77 L 353.31 874.40 L 351.74 881.20 L 350.48 884.28 L 349.53 885.76 L 348.81 886.30 L 348.21 886.30 L 347.58 885.81 L 346.84 884.46 Z" fill="url(#linearGradient-15)" fill-rule="evenodd" group-id="3" id="路径-41" node-id="134" stroke-linecap="butt" stroke-width="1" target-height="71.31036" target-width="20.106232" target-x="335.02704" target-y="814.9943"></path><path d="M 813.67 328.00 L 816.41 346.72 L 818.30 362.83 L 819.46 376.59 L 819.98 388.26 L 819.97 398.07 L 819.51 406.24 L 818.68 412.98 L 817.56 418.49 L 816.20 422.93 L 812.82 420.42 L 808.97 417.95 L 814.20 427.45 L 808.28 444.88 L 802.04 461.44 L 795.47 477.16 L 788.60 492.09 L 781.43 506.25 L 773.97 519.67 L 766.22 532.38 L 758.18 544.42 L 749.87 555.80 L 741.28 566.55 L 732.41 576.69 L 723.26 586.25 L 713.82 595.24 L 704.09 603.68 L 695.93 609.14 L 685.61 616.10 L 679.95 619.65 L 674.09 623.01 L 668.11 625.99 L 662.33 628.33 L 658.41 629.52 L 654.74 630.25 L 651.29 630.53 L 647.88 630.31 L 644.79 629.49 L 641.93 628.08 L 640.06 626.66 L 638.32 624.80 L 636.70 622.41 L 635.22 619.43 L 634.15 616.44 L 633.25 612.79 L 632.55 608.37 L 632.11 603.05 L 632.02 596.17 L 632.47 587.71 L 633.57 577.41 L 635.55 564.73 L 638.16 552.10 L 641.39 539.51 L 645.26 526.95 L 649.77 514.41 L 654.95 501.86 L 660.81 489.31 L 667.37 476.74 L 674.66 464.14 L 682.69 451.50 L 691.50 438.80 L 701.11 426.06 L 711.56 413.25 L 722.88 400.37 L 736.26 397.03 L 728.34 391.04 L 733.13 382.88 L 738.34 375.14 L 743.97 367.80 L 750.04 360.84 L 756.56 354.26 L 758.85 355.76 L 761.92 357.20 L 765.94 358.56 L 762.48 347.27 L 813.67 328.00 Z" fill="url(#linearGradient-16)" fill-rule="evenodd" group-id="4" id="路径-78" node-id="136" stroke-linecap="butt" stroke-width="1" target-height="302.53394" target-width="187.96228" target-x="632.02014" target-y="328"></path><path d="M 879.25 526.37 L 886.28 528.24 L 892.16 529.25 L 897.05 529.56 L 901.12 529.27 L 904.49 528.50 L 907.29 527.30 L 909.61 525.69 L 911.52 523.67 L 913.06 521.18 L 914.22 518.14 L 914.97 514.44 L 915.23 509.93 L 914.90 504.47 L 913.98 494.78 L 913.64 487.66 L 913.73 483.18 L 914.11 479.56 L 914.74 476.66 L 915.74 473.90 L 917.07 471.50 L 918.74 469.41 L 920.71 467.58 L 923.17 465.72 L 926.20 463.85 L 931.16 461.18 L 937.67 457.90 L 941.05 455.96 L 943.73 454.03 L 945.82 452.09 L 947.40 450.16 L 948.73 447.93 L 949.61 445.81 L 950.08 443.75 L 950.18 441.73 L 949.79 439.04 L 948.87 436.59 L 947.39 434.32 L 945.48 432.38 L 943.17 430.82 L 940.39 429.63 L 937.45 428.97 L 934.20 428.87 L 930.56 429.38 L 923.88 431.25 L 916.10 434.07 L 907.07 437.98 L 896.63 443.16 L 884.63 449.81 L 878.43 453.33 L 873.58 455.50 L 869.81 456.62 L 866.91 456.94 L 864.67 456.68 L 862.93 455.93 L 861.56 454.71 L 860.50 452.96 L 859.78 450.49 L 859.49 447.10 L 859.76 441.65 L 860.48 436.45 L 862.26 427.15 L 862.86 423.15 L 862.86 420.37 L 862.44 418.82 L 861.60 417.83 L 860.27 417.28 L 858.71 417.23 L 856.24 417.72 L 852.50 419.06 L 849.55 420.59 L 846.50 422.71 L 843.33 425.51 L 840.41 428.58 L 837.48 432.11 L 834.55 436.12 L 830.50 442.45 L 826.68 449.33 L 823.25 456.44 L 820.26 463.56 L 817.70 470.69 L 815.79 477.23 L 814.41 483.59 L 813.80 488.79 L 813.31 492.99 L 812.47 496.23 L 811.35 498.67 L 809.99 500.49 L 808.40 501.79 L 806.55 502.64 L 804.35 503.05 L 801.71 502.96 L 798.51 502.28 L 794.63 500.85 L 785.81 465.47 L 783.72 460.81 L 781.87 457.80 L 780.24 456.01 L 778.80 455.09 L 777.46 454.80 L 776.13 455.05 L 774.70 455.92 L 773.10 457.62 L 771.28 460.51 L 769.22 464.99 L 766.90 471.56 L 764.31 480.80 L 761.46 493.35 L 758.34 509.90 L 754.29 520.17 L 750.82 527.52 L 747.87 532.55 L 745.38 535.79 L 743.27 537.71 L 741.47 538.67 L 739.86 538.92 L 738.33 538.57 L 736.78 537.55 L 735.14 535.64 L 733.39 532.52 L 730.07 529.21 L 726.88 526.79 L 723.78 525.13 L 720.73 524.12 L 717.68 523.71 L 714.58 523.89 L 711.36 524.67 L 707.98 526.14 L 704.38 528.39 L 700.52 531.57 L 696.36 535.84 L 691.86 541.39 L 687.00 548.42 L 681.76 557.19 L 676.10 567.92 L 670.00 580.90 L 663.44 596.40 L 656.39 614.74 L 652.77 625.39 L 650.19 634.65 L 648.52 642.67 L 647.62 649.60 L 647.38 655.55 L 647.71 660.66 L 648.52 665.04 L 649.77 668.79 L 651.41 672.01 L 653.43 674.76 L 655.85 677.10 L 658.71 679.06 L 662.06 680.64 L 665.99 681.84 L 670.59 682.60 L 675.97 682.87 L 682.26 682.55 L 689.57 681.56 L 698.05 679.77 L 707.84 677.05 L 719.10 673.27 L 732.00 668.28 L 746.70 661.90 L 763.39 653.98 L 782.25 644.32 L 784.55 638.88 L 787.17 634.02 L 790.08 629.71 L 793.30 625.88 L 796.82 622.51 L 800.66 619.56 L 804.85 617.03 L 809.42 614.90 L 814.41 613.18 L 821.33 611.12 L 828.06 608.86 L 832.44 607.14 L 836.50 605.23 L 840.26 603.13 L 843.78 600.69 L 846.81 597.94 L 849.41 594.85 L 851.01 592.32 L 852.29 589.50 L 853.26 586.36 L 853.89 582.84 L 854.10 579.39 L 853.91 575.47 L 853.26 571.01 L 852.08 565.95 L 850.88 560.65 L 850.31 555.92 L 850.32 551.70 L 850.83 547.90 L 851.80 544.46 L 853.24 541.35 L 855.13 538.49 L 857.52 535.88 L 860.45 533.50 L 864.00 531.33 L 868.25 529.40 L 873.29 527.73 L 879.25 526.37 Z" fill="url(#linearGradient-17)" fill-rule="evenodd" group-id="4" id="路径-79" node-id="137" stroke-linecap="butt" stroke-width="1" target-height="265.63715" target-width="302.80328" target-x="647.3782" target-y="417.22943"></path><path d="M 523.29 659.51 L 550.43 632.40 L 552.85 630.32 L 555.38 628.64 L 558.04 627.35 L 560.86 626.43 L 563.78 625.86 L 566.69 625.68 L 569.59 625.86 L 572.52 626.43 L 575.33 627.35 L 578.00 628.64 L 580.53 630.32 L 582.94 632.40 L 770.98 820.21 L 773.07 822.62 L 774.75 825.15 L 776.04 827.82 L 776.97 830.64 L 777.53 833.56 L 777.72 836.47 L 777.54 839.38 L 776.98 842.30 L 776.05 845.12 L 774.76 847.79 L 773.08 850.32 L 771.00 852.74 L 770.98 852.76 L 743.84 879.86 L 741.42 881.95 L 738.89 883.63 L 736.23 884.92 L 733.41 885.84 L 730.49 886.41 L 727.58 886.59 L 724.68 886.41 L 721.75 885.84 L 718.94 884.92 L 716.27 883.63 L 713.74 881.95 L 711.33 879.86 L 523.29 692.06 L 521.20 689.65 L 519.52 687.11 L 518.23 684.45 L 517.30 681.63 L 516.73 678.71 L 516.55 675.80 L 516.73 672.89 L 517.29 669.96 L 518.22 667.15 L 519.51 664.48 L 521.19 661.95 L 523.27 659.53 L 523.29 659.51 Z" fill="url(#linearGradient-18)" fill-rule="evenodd" group-id="5" id="矩形" node-id="139" stroke-linecap="butt" stroke-width="0.99999994" target-height="260.91266" target-width="261.17554" target-x="516.54675" target-y="625.6783"></path><path d="M 718.00 576.50 L 717.73 587.75 L 716.96 598.78 L 715.71 609.61 L 713.97 620.26 L 711.75 630.73 L 709.05 641.15 L 705.91 651.33 L 702.36 661.27 L 698.37 671.00 L 693.96 680.51 L 689.12 689.84 L 683.91 698.89 L 678.33 707.66 L 672.38 716.17 L 666.04 724.42 L 659.35 732.39 L 652.35 740.03 L 645.03 747.35 L 637.39 754.35 L 629.42 761.04 L 621.17 767.38 L 612.66 773.33 L 603.89 778.91 L 594.84 784.12 L 585.51 788.96 L 576.00 793.37 L 566.27 797.36 L 556.33 800.91 L 546.15 804.05 L 535.73 806.75 L 525.26 808.97 L 514.61 810.71 L 503.78 811.96 L 492.75 812.73 L 481.50 813.00 L 470.25 812.73 L 459.22 811.96 L 448.39 810.71 L 437.74 808.97 L 427.27 806.75 L 416.85 804.05 L 406.67 800.91 L 396.73 797.36 L 387.00 793.37 L 377.49 788.96 L 368.16 784.12 L 359.11 778.91 L 350.34 773.33 L 341.83 767.38 L 333.58 761.04 L 325.61 754.35 L 317.97 747.35 L 310.65 740.03 L 303.65 732.39 L 296.96 724.42 L 290.62 716.17 L 284.67 707.66 L 279.09 698.89 L 273.88 689.84 L 269.04 680.51 L 264.63 671.00 L 260.64 661.27 L 257.09 651.33 L 253.95 641.15 L 251.25 630.73 L 249.03 620.26 L 247.29 609.61 L 246.04 598.78 L 245.27 587.75 L 245.00 576.50 L 245.27 565.25 L 246.04 554.22 L 247.29 543.39 L 249.03 532.74 L 251.25 522.27 L 253.95 511.85 L 257.09 501.67 L 260.64 491.73 L 264.63 482.00 L 269.04 472.49 L 273.88 463.16 L 279.09 454.11 L 284.67 445.34 L 290.62 436.83 L 296.96 428.58 L 303.65 420.61 L 310.65 412.97 L 317.97 405.65 L 325.61 398.65 L 333.58 391.96 L 341.83 385.62 L 350.34 379.67 L 359.11 374.09 L 368.16 368.88 L 377.49 364.04 L 387.00 359.63 L 396.73 355.64 L 406.67 352.09 L 416.85 348.95 L 427.27 346.25 L 437.74 344.03 L 448.39 342.29 L 459.22 341.04 L 470.25 340.27 L 481.50 340.00 L 492.75 340.27 L 503.78 341.04 L 514.61 342.29 L 525.26 344.03 L 535.73 346.25 L 546.15 348.95 L 556.33 352.09 L 566.27 355.64 L 576.00 359.63 L 585.51 364.04 L 594.84 368.88 L 603.89 374.09 L 612.66 379.67 L 621.17 385.62 L 629.42 391.96 L 637.39 398.65 L 645.03 405.65 L 652.35 412.97 L 659.35 420.61 L 666.04 428.58 L 672.38 436.83 L 678.33 445.34 L 683.91 454.11 L 689.12 463.16 L 693.96 472.49 L 698.37 482.00 L 702.36 491.73 L 705.91 501.67 L 709.05 511.85 L 711.75 522.27 L 713.97 532.74 L 715.71 543.39 L 716.96 554.22 L 717.73 565.25 L 718.00 576.50 Z" fill="url(#linearGradient-19)" fill-rule="evenodd" group-id="5" id="椭圆形" node-id="140" stroke-linecap="butt" stroke-width="1" target-height="473" target-width="473" target-x="245" target-y="340"></path><path d="M 676.00 576.50 L 675.77 585.75 L 675.14 594.82 L 674.11 603.73 L 672.69 612.49 L 670.86 621.10 L 668.03 631.78 L 664.64 642.15 L 660.71 652.23 L 656.23 662.04 L 651.20 671.59 L 645.71 680.79 L 639.73 689.64 L 633.27 698.15 L 626.35 706.30 L 619.03 714.03 L 611.30 721.35 L 603.15 728.27 L 594.64 734.73 L 585.79 740.71 L 576.59 746.20 L 567.04 751.23 L 557.23 755.71 L 547.15 759.64 L 536.78 763.03 L 526.10 765.86 L 517.49 767.69 L 508.73 769.11 L 499.82 770.14 L 490.75 770.78 L 481.50 771.00 L 472.25 770.77 L 463.18 770.14 L 454.27 769.11 L 445.51 767.69 L 436.90 765.86 L 426.22 763.03 L 415.85 759.64 L 405.77 755.71 L 395.96 751.23 L 386.41 746.20 L 377.21 740.71 L 368.36 734.73 L 359.85 728.27 L 351.70 721.35 L 343.97 714.03 L 336.65 706.30 L 329.73 698.15 L 323.27 689.64 L 317.29 680.79 L 311.80 671.59 L 306.77 662.04 L 302.29 652.23 L 298.36 642.15 L 294.97 631.78 L 292.14 621.10 L 290.31 612.49 L 288.89 603.73 L 287.86 594.82 L 287.22 585.75 L 287.00 576.50 L 287.22 567.25 L 287.86 558.18 L 288.89 549.27 L 290.31 540.51 L 292.14 531.90 L 294.97 521.22 L 298.36 510.85 L 302.29 500.77 L 306.77 490.96 L 311.80 481.41 L 317.29 472.21 L 323.27 463.36 L 329.73 454.85 L 336.65 446.70 L 343.97 438.97 L 351.70 431.65 L 359.85 424.73 L 368.36 418.27 L 377.21 412.29 L 386.41 406.80 L 395.96 401.77 L 405.77 397.29 L 415.85 393.36 L 426.22 389.97 L 436.90 387.14 L 445.51 385.31 L 454.27 383.89 L 463.18 382.86 L 472.25 382.22 L 481.50 382.00 L 490.75 382.22 L 499.82 382.86 L 508.73 383.89 L 517.49 385.31 L 526.10 387.14 L 536.78 389.97 L 547.15 393.36 L 557.23 397.29 L 567.04 401.77 L 576.59 406.80 L 585.79 412.29 L 594.64 418.27 L 603.15 424.73 L 611.30 431.65 L 619.03 438.97 L 626.35 446.70 L 633.27 454.85 L 639.73 463.36 L 645.71 472.21 L 651.20 481.41 L 656.23 490.96 L 660.71 500.77 L 664.64 510.85 L 668.03 521.22 L 670.86 531.90 L 672.69 540.51 L 674.11 549.27 L 675.14 558.18 L 675.78 567.25 L 676.00 576.50 Z" fill="url(#linearGradient-20)" fill-rule="evenodd" group-id="5,9,11" node-id="432" stroke-linecap="butt" stroke-width="1" target-height="389" target-width="389" target-x="287" target-y="382"></path><g clip-path="url(#mask-22_7)" group-id="5,9,12" node-id="435"><path d="M 454.00 464.50 L 453.73 466.51 L 452.98 468.29 L 451.80 469.80 L 450.29 470.98 L 448.51 471.73 L 446.50 472.00 L 444.49 471.73 L 442.71 470.98 L 441.20 469.80 L 440.02 468.29 L 439.27 466.51 L 439.00 464.50 L 439.27 462.49 L 440.02 460.71 L 441.20 459.20 L 442.71 458.02 L 444.49 457.27 L 446.50 457.00 L 448.51 457.27 L 450.29 458.02 L 451.80 459.20 L 452.98 460.71 L 453.73 462.49 L 454.00 464.50 Z" fill="#825852" fill-rule="evenodd" group-id="5,9,12" id="椭圆形" node-id="145" stroke-linecap="butt" stroke-width="1" target-height="15" target-width="15" target-x="439" target-y="457"></path></g><g clip-path="url(#mask-22_8)" group-id="5,9,13" node-id="439"><path d="M 491.00 464.50 L 490.73 466.51 L 489.98 468.29 L 488.80 469.80 L 487.29 470.98 L 485.51 471.73 L 483.50 472.00 L 481.49 471.73 L 479.71 470.98 L 478.20 469.80 L 477.02 468.29 L 476.27 466.51 L 476.00 464.50 L 476.27 462.49 L 477.02 460.71 L 478.20 459.20 L 479.71 458.02 L 481.49 457.27 L 483.50 457.00 L 485.51 457.27 L 487.29 458.02 L 488.80 459.20 L 489.98 460.71 L 490.73 462.49 L 491.00 464.50 Z" fill="#825852" fill-rule="evenodd" group-id="5,9,13" id="椭圆形备份" node-id="146" stroke-linecap="butt" stroke-width="1" target-height="15" target-width="15" target-x="476" target-y="457"></path></g><g clip-path="url(#mask-22_9)" group-id="5,9,14" node-id="443"><path d="M 527.00 464.50 L 526.73 466.51 L 525.98 468.29 L 524.80 469.80 L 523.29 470.98 L 521.51 471.73 L 519.50 472.00 L 517.49 471.73 L 515.71 470.98 L 514.20 469.80 L 513.02 468.29 L 512.27 466.51 L 512.00 464.50 L 512.27 462.49 L 513.02 460.71 L 514.20 459.20 L 515.71 458.02 L 517.49 457.27 L 519.50 457.00 L 521.51 457.27 L 523.29 458.02 L 524.80 459.20 L 525.98 460.71 L 526.73 462.49 L 527.00 464.50 Z" fill="#825852" fill-rule="evenodd" group-id="5,9,14" id="椭圆形备份-2" node-id="147" stroke-linecap="butt" stroke-width="1" target-height="15" target-width="15" target-x="512" target-y="457"></path></g><g clip-path="url(#mask-22_10)" group-id="5,9,15" node-id="447"><path d="M 277.00 596.16 L 286.80 599.07 L 296.43 601.33 L 305.90 602.96 L 315.25 603.99 L 324.48 604.41 L 333.62 604.25 L 342.68 603.50 L 351.68 602.18 L 360.65 600.26 L 369.59 597.75 L 378.52 594.62 L 387.47 590.86 L 396.44 586.45 L 405.45 581.35 L 414.51 575.55 L 423.63 568.99 L 430.21 564.23 L 437.25 559.59 L 444.75 555.06 L 452.74 550.65 L 463.55 545.25 L 474.93 540.16 L 486.92 535.41 L 499.09 531.13 L 511.57 527.27 L 524.38 523.84 L 537.31 520.89 L 550.29 518.45 L 563.32 516.51 L 576.41 515.10 L 589.28 514.27 L 601.94 514.00 L 611.48 514.19 L 620.73 514.74 L 629.72 515.64 L 638.45 516.87 L 647.20 518.53 L 655.54 520.55 L 663.48 522.95 L 671.06 525.70 L 678.51 528.95 L 685.46 532.59 L 691.93 536.62 L 697.96 541.05 L 697.91 550.18 L 697.32 559.71 L 696.19 569.67 L 694.47 580.07 L 692.13 590.97 L 689.13 602.37 L 685.44 614.31 L 681.02 626.83 L 675.81 639.95 L 669.77 653.71 L 662.85 668.13 L 654.99 683.26 L 646.14 699.11 L 636.24 715.73 L 625.24 733.15 L 476.43 791.00 L 344.22 748.04 L 295.34 669.81 L 277.00 596.16 Z" fill="url(#linearGradient-23)" fill-rule="evenodd" group-id="5,9,15" id="路径-84" node-id="148" stroke-linecap="butt" stroke-width="1" target-height="276.99933" target-width="420.95923" target-x="277" target-y="514.0007"></path></g><g clip-path="url(#mask-22_11)" group-id="5,9,16" node-id="451"><path d="M 277.00 610.17 L 283.95 614.44 L 291.08 618.15 L 298.41 621.33 L 305.96 623.98 L 313.75 626.11 L 321.80 627.71 L 330.13 628.79 L 338.78 629.31 L 347.76 629.28 L 357.11 628.66 L 366.85 627.42 L 377.02 625.54 L 387.64 622.98 L 398.75 619.69 L 410.37 615.63 L 422.54 610.75 L 435.29 605.00 L 448.65 598.32 L 462.65 590.65 L 477.33 581.93 L 491.11 573.74 L 504.22 566.45 L 516.71 560.02 L 528.59 554.40 L 540.96 549.03 L 552.68 544.39 L 563.77 540.43 L 574.28 537.11 L 585.18 534.10 L 595.43 531.64 L 605.07 529.71 L 614.14 528.26 L 623.51 527.13 L 632.23 526.40 L 640.36 526.04 L 647.91 526.02 L 658.14 526.47 L 667.24 527.33 L 675.32 528.57 L 683.36 530.27 L 690.25 532.12 L 696.10 534.09 L 701.87 536.45 L 706.45 538.67 L 710.00 540.76 L 708.42 556.33 L 707.20 566.64 L 705.38 579.38 L 703.06 592.76 L 699.87 607.87 L 697.36 618.05 L 694.37 628.68 L 690.87 639.77 L 686.97 650.71 L 682.48 661.80 L 677.38 673.05 L 673.23 681.30 L 668.69 689.48 L 663.75 697.60 L 658.41 705.66 L 652.73 713.43 L 646.61 721.00 L 640.01 728.38 L 632.92 735.57 L 625.52 742.32 L 617.57 748.77 L 609.05 754.91 L 599.93 760.74 L 590.49 766.00 L 580.84 770.71 L 570.96 774.90 L 560.84 778.56 L 550.54 781.73 L 540.14 784.41 L 529.63 786.62 L 519.00 788.35 L 508.29 789.64 L 497.62 790.50 L 486.97 790.94 L 476.34 790.96 L 465.68 790.58 L 455.20 789.83 L 444.90 788.72 L 434.76 787.25 L 424.62 785.40 L 414.82 783.25 L 405.34 780.80 L 396.18 778.06 L 387.04 774.94 L 378.39 771.59 L 370.23 768.03 L 362.52 764.26 L 354.87 760.06 L 347.88 755.74 L 341.49 751.28 L 335.68 746.70 L 330.08 741.66 L 325.23 736.57 L 321.08 731.43 L 317.58 726.24 L 310.65 714.26 L 304.41 702.40 L 298.84 690.63 L 293.92 678.96 L 289.62 667.36 L 285.94 655.84 L 282.84 644.37 L 280.33 632.94 L 278.38 621.54 L 277.00 610.17 Z" fill="url(#linearGradient-24)" fill-rule="evenodd" group-id="5,9,16" id="路径-85" node-id="149" stroke-linecap="butt" stroke-width="1" target-height="264.9403" target-width="433" target-x="277" target-y="526.0216"></path></g><g clip-path="url(#mask-22_12)" group-id="5,9,17" node-id="455"><path d="M 265.00 570.25 L 272.02 568.58 L 279.24 567.48 L 286.70 566.94 L 294.41 566.98 L 302.42 567.63 L 310.75 568.90 L 319.43 570.84 L 328.49 573.49 L 337.97 576.90 L 347.90 581.12 L 358.31 586.21 L 369.23 592.23 L 380.69 599.25 L 390.88 605.49 L 400.76 610.92 L 410.36 615.57 L 419.68 619.50 L 429.35 622.94 L 438.88 625.68 L 448.31 627.75 L 457.64 629.18 L 467.08 630.00 L 476.58 630.20 L 486.17 629.78 L 495.88 628.74 L 505.42 627.13 L 515.23 624.93 L 525.31 622.10 L 535.68 618.61 L 545.72 614.74 L 556.17 610.25 L 567.04 605.10 L 578.37 599.25 L 593.30 591.51 L 606.32 585.19 L 617.63 580.14 L 629.12 575.47 L 639.01 571.92 L 647.46 569.33 L 656.08 567.20 L 663.41 565.86 L 669.63 565.19 L 675.91 565.02 L 681.29 565.33 L 685.89 566.05 L 690.42 567.21 L 694.44 568.62 L 698.00 570.25 L 696.77 575.39 L 695.28 583.74 L 691.92 604.82 L 689.78 617.22 L 687.07 631.22 L 683.85 645.54 L 679.86 660.67 L 676.80 670.75 L 673.33 680.83 L 669.43 690.92 L 665.09 700.82 L 660.26 710.42 L 654.93 719.71 L 650.56 726.46 L 645.86 732.88 L 640.85 738.98 L 635.49 744.78 L 629.78 750.20 L 623.69 755.18 L 617.19 759.73 L 610.26 763.86 L 604.56 766.72 L 598.54 769.25 L 592.19 771.42 L 585.47 773.24 L 578.37 774.69 L 552.08 778.94 L 527.88 782.39 L 511.91 784.29 L 496.77 785.69 L 482.43 786.61 L 471.58 786.97 L 461.11 786.96 L 451.00 786.60 L 441.24 785.90 L 431.44 784.77 L 421.90 783.21 L 412.61 781.21 L 403.55 778.78 L 394.64 775.85 L 385.85 772.39 L 377.17 768.37 L 368.59 763.79 L 360.37 758.77 L 352.13 753.06 L 343.88 746.64 L 335.60 739.46 L 328.02 732.17 L 320.89 724.51 L 314.18 716.48 L 307.88 708.07 L 302.00 699.26 L 296.52 690.04 L 291.44 680.38 L 286.77 670.27 L 282.51 659.69 L 278.67 648.61 L 275.25 637.01 L 272.27 624.87 L 269.73 612.15 L 267.66 598.82 L 266.08 584.87 L 265.00 570.25 Z" fill="url(#linearGradient-25)" fill-rule="evenodd" group-id="5,9,17" id="路径-86" node-id="150" stroke-linecap="butt" stroke-width="1" target-height="221.94788" target-width="433" target-x="265" target-y="565.01855"></path></g><path d="M 791.13 891.34 L 790.01 887.36 L 788.48 883.75 L 786.54 880.47 L 784.20 877.50 L 781.42 874.80 L 778.16 872.36 L 774.39 870.19 L 770.02 868.29 L 763.63 865.98 L 759.07 863.81 L 756.39 862.07 L 754.91 860.58 L 754.26 859.29 L 754.22 858.33 L 754.66 857.37 L 755.73 856.34 L 757.74 855.20 L 762.83 854.62 L 765.84 854.53 L 769.27 854.93 L 771.52 855.54 L 773.92 856.61 L 776.51 858.21 L 778.83 860.14 L 781.32 862.86 L 783.98 866.52 L 786.26 870.42 L 788.64 875.49 L 791.13 881.96 L 791.66 885.14 L 791.66 888.26 L 791.13 891.34 Z" fill="url(#linearGradient-26)" fill-rule="evenodd" group-id="6" id="路径-43" node-id="152" stroke-linecap="butt" stroke-width="1" target-height="36.809814" target-width="37.438538" target-x="754.2243" target-y="854.5318"></path><path d="M 791.10 892.76 L 787.63 880.58 L 784.17 869.96 L 780.73 860.77 L 777.32 852.85 L 773.96 846.09 L 770.65 840.36 L 767.40 835.55 L 765.90 833.40 L 764.71 831.19 L 763.81 828.93 L 762.94 825.44 L 762.70 822.16 L 762.87 820.00 L 763.28 818.11 L 763.94 816.43 L 764.87 814.93 L 766.02 813.78 L 767.40 812.93 L 769.33 812.76 L 771.67 812.84 L 773.22 813.14 L 774.92 813.80 L 776.81 814.89 L 778.49 816.27 L 780.35 818.35 L 782.42 821.31 L 784.17 824.46 L 786.08 828.73 L 788.13 834.33 L 789.86 840.03 L 791.67 847.23 L 793.56 856.18 L 794.29 860.98 L 795.10 869.41 L 795.26 874.31 L 795.14 879.44 L 794.59 884.50 L 793.56 889.08 L 792.90 890.61 L 792.08 891.82 L 791.10 892.76 Z" fill="url(#linearGradient-27)" fill-rule="evenodd" group-id="6" id="路径-44" node-id="153" stroke-linecap="butt" stroke-width="1" target-height="79.9964" target-width="32.567383" target-x="762.6972" target-y="812.76135"></path><path d="M 792.71 886.53 L 793.89 881.03 L 794.60 874.82 L 794.79 867.81 L 794.40 859.90 L 793.33 851.00 L 791.51 840.99 L 787.66 829.81 L 785.82 824.15 L 784.37 818.87 L 783.65 815.34 L 783.30 812.21 L 783.26 809.42 L 783.67 806.73 L 784.56 804.53 L 785.92 802.72 L 787.22 801.69 L 788.92 800.87 L 791.12 800.29 L 793.95 800.00 L 796.22 800.53 L 798.58 801.66 L 800.02 802.71 L 801.46 804.19 L 802.91 806.18 L 804.09 808.33 L 805.21 811.15 L 806.26 814.76 L 806.99 818.42 L 807.57 822.98 L 807.93 828.59 L 808.01 834.18 L 807.80 840.90 L 807.26 848.87 L 806.04 856.60 L 804.67 863.09 L 803.07 869.26 L 801.36 874.96 L 797.61 886.53 L 796.24 887.02 L 794.64 887.04 L 792.71 886.53 Z" fill="url(#linearGradient-28)" fill-rule="evenodd" group-id="6" id="路径-45" node-id="154" stroke-linecap="butt" stroke-width="1" target-height="87.04431" target-width="24.747314" target-x="783.2648" target-y="800"></path><path d="M 796.14 891.34 L 795.99 880.35 L 796.39 870.43 L 797.29 861.50 L 798.63 853.47 L 800.37 846.26 L 802.49 839.79 L 804.94 834.01 L 807.71 828.85 L 810.79 824.25 L 814.19 820.16 L 815.49 818.79 L 817.36 817.47 L 819.48 816.44 L 821.80 815.77 L 824.17 815.59 L 826.38 816.00 L 827.72 816.63 L 828.90 817.64 L 829.96 819.07 L 830.68 820.71 L 831.18 822.94 L 831.38 825.92 L 829.80 832.16 L 828.49 836.11 L 826.41 841.15 L 823.78 846.44 L 819.98 852.89 L 815.45 859.52 L 809.31 867.36 L 807.24 870.35 L 805.37 873.55 L 803.70 876.83 L 802.33 879.92 L 800.38 885.36 L 799.82 887.55 L 799.67 888.73 L 799.45 889.85 L 798.85 890.62 L 797.82 891.14 L 796.14 891.34 Z" fill="url(#linearGradient-29)" fill-rule="evenodd" group-id="6" id="路径-46" node-id="155" stroke-linecap="butt" stroke-width="1" target-height="75.75549" target-width="35.38672" target-x="795.9922" target-y="815.5861"></path><path d="M 728.00 895.50 L 739.25 893.18 L 745.55 891.44 L 748.61 890.18 L 749.79 889.29 L 750.68 888.44 L 752.74 886.98 L 755.19 885.56 L 758.41 884.03 L 761.89 882.75 L 765.72 881.80 L 768.35 881.45 L 770.97 881.40 L 773.59 881.67 L 776.12 882.31 L 778.56 883.41 L 780.92 885.01 L 782.03 883.93 L 783.62 882.93 L 785.44 882.20 L 787.51 881.78 L 789.64 881.77 L 791.79 882.25 L 793.13 882.86 L 794.40 883.77 L 795.62 885.01 L 796.35 882.91 L 797.43 880.96 L 798.88 879.12 L 801.49 876.71 L 804.48 874.71 L 807.68 873.14 L 810.73 872.11 L 813.70 871.57 L 815.95 871.62 L 818.02 871.52 L 820.93 871.60 L 824.00 871.98 L 827.42 872.86 L 829.65 873.73 L 831.85 874.94 L 834.03 876.52 L 835.96 878.38 L 837.74 880.74 L 839.36 883.69 L 840.55 886.83 L 841.45 890.72 L 842.00 895.50 L 824.15 895.58 L 728.00 895.50 Z" fill="url(#linearGradient-30)" fill-rule="evenodd" group-id="6" id="路径-47" node-id="156" stroke-linecap="butt" stroke-width="1" target-height="24.063171" target-width="114" target-x="728" target-y="871.5196"></path><path d="M 520.27 893.78 L 520.38 902.68 L 524.29 903.60 L 528.42 905.08 L 532.80 907.17 L 537.46 909.96 L 539.13 911.51 L 540.09 912.61 L 540.74 913.71 L 541.02 914.63 L 541.03 916.67 L 540.68 917.02 L 539.08 917.22 L 534.53 916.89 L 524.62 915.37 L 506.16 911.78 L 509.37 889.00 L 520.27 893.78 Z" fill="#333333" fill-rule="nonzero" group-id="7" id="路径-52备份" node-id="158" stroke-linecap="butt" stroke-width="0.99999994" target-height="28.21875" target-width="34.868042" target-x="506.15808" target-y="889.0011"></path><path d="M 557.27 893.78 L 557.38 902.68 L 561.29 903.60 L 565.42 905.08 L 569.80 907.17 L 574.46 909.96 L 576.13 911.51 L 577.09 912.61 L 577.74 913.71 L 578.02 914.63 L 578.03 916.67 L 577.68 917.02 L 576.08 917.22 L 571.53 916.89 L 561.62 915.37 L 543.16 911.78 L 546.37 889.00 L 557.27 893.78 Z" fill="#333333" fill-rule="nonzero" group-id="7" id="路径-52备份-2" node-id="159" stroke-linecap="butt" stroke-width="0.99999994" target-height="28.21875" target-width="34.868042" target-x="543.1581" target-y="889.0011"></path><path d="M 485.40 732.14 L 483.98 739.22 L 483.21 745.45 L 483.00 750.91 L 483.28 755.70 L 484.00 759.89 L 485.10 763.56 L 486.56 766.79 L 488.36 769.61 L 490.52 772.08 L 504.30 773.37 L 532.85 775.38 L 533.86 815.94 L 534.88 842.45 L 535.86 858.59 L 537.85 881.12 L 539.87 899.00 L 560.91 897.89 L 566.00 779.71 L 565.67 771.14 L 564.83 763.87 L 563.57 757.72 L 561.95 752.55 L 560.01 748.24 L 557.80 744.66 L 555.31 741.72 L 551.58 738.27 L 547.83 735.40 L 544.05 733.07 L 540.23 731.25 L 536.34 729.90 L 532.37 729.00 L 485.40 732.14 Z" fill="url(#linearGradient-31)" fill-rule="nonzero" group-id="7" id="路径-62备份" node-id="160" stroke-linecap="butt" stroke-width="1" target-height="170" target-width="82.99774" target-x="483.00226" target-y="729"></path><path d="M 450.40 732.14 L 448.98 739.22 L 448.21 745.45 L 448.00 750.91 L 448.28 755.70 L 449.00 759.89 L 450.10 763.56 L 451.56 766.79 L 453.36 769.61 L 455.52 772.08 L 469.30 773.37 L 497.85 775.38 L 498.86 815.94 L 499.88 842.45 L 500.86 858.59 L 502.85 881.12 L 504.87 899.00 L 525.91 897.89 L 531.00 779.71 L 530.67 771.14 L 529.83 763.87 L 528.57 757.72 L 526.95 752.55 L 525.01 748.24 L 522.80 744.66 L 520.31 741.72 L 516.58 738.27 L 512.83 735.40 L 509.05 733.07 L 505.23 731.25 L 501.34 729.90 L 497.37 729.00 L 450.40 732.14 Z" fill="url(#linearGradient-31)" fill-rule="nonzero" group-id="7" id="路径-62" node-id="161" stroke-linecap="butt" stroke-width="1" target-height="170" target-width="82.99777" target-x="448.00223" target-y="729"></path><path d="M 424.83 676.00 L 413.81 695.31 L 413.32 696.39 L 413.05 697.46 L 413.05 698.72 L 413.48 699.95 L 414.11 700.89 L 414.95 701.75 L 451.77 720.00 L 452.00 704.02 L 433.95 695.69 L 444.21 680.17 L 424.83 676.00 Z" fill="#fee0bc" fill-rule="evenodd" group-id="7" id="胳膊-path" node-id="162" stroke-linecap="butt" stroke-width="1" target-height="44" target-width="38.952606" target-x="413.0474" target-y="676"></path><path d="M 559.17 676.00 L 570.20 694.94 L 570.68 696.00 L 570.95 697.05 L 570.95 698.28 L 570.52 699.49 L 569.90 700.41 L 569.06 701.25 L 532.33 720.00 L 532.00 703.48 L 550.05 695.31 L 539.79 680.09 L 559.17 676.00 Z" fill="#fee0bc" fill-rule="evenodd" group-id="7" id="胳膊-path" node-id="163" stroke-linecap="butt" stroke-width="1" target-height="44" target-width="38.95233" target-x="532" target-y="676"></path><path d="M 481.00 618.00 L 501.00 618.00 L 501.00 637.00 L 481.00 637.00 Z" fill="url(#linearGradient-32)" fill-rule="evenodd" group-id="7,10" id="矩形" node-id="165" stroke-linecap="butt" stroke-width="1" target-height="19" target-width="20" target-x="481" target-y="618"></path><path d="M 518.00 595.00 L 517.73 598.57 L 517.00 601.93 L 515.80 605.12 L 514.17 608.13 L 512.18 610.87 L 509.80 613.38 L 507.12 615.58 L 504.16 617.43 L 500.90 618.96 L 497.47 620.07 L 493.85 620.75 L 490.00 621.00 L 486.15 620.75 L 482.53 620.07 L 479.10 618.96 L 475.84 617.43 L 472.88 615.58 L 470.20 613.38 L 467.82 610.87 L 465.83 608.13 L 464.20 605.12 L 463.00 601.93 L 462.27 598.57 L 462.00 595.00 L 462.27 591.43 L 463.00 588.07 L 464.20 584.88 L 465.83 581.87 L 467.82 579.13 L 470.20 576.62 L 472.88 574.42 L 475.84 572.57 L 479.10 571.04 L 482.53 569.93 L 486.15 569.25 L 490.00 569.00 L 493.85 569.25 L 497.47 569.93 L 500.90 571.04 L 504.16 572.57 L 507.12 574.42 L 509.80 576.62 L 512.18 579.13 L 514.17 581.87 L 515.80 584.88 L 517.00 588.07 L 517.73 591.43 L 518.00 595.00 Z" fill="url(#linearGradient-33)" fill-rule="evenodd" group-id="7,10" id="椭圆形" node-id="166" stroke-linecap="butt" stroke-width="1" target-height="52" target-width="56" target-x="462" target-y="569"></path><path d="M 524.00 596.50 L 523.80 598.29 L 523.31 599.81 L 522.54 601.10 L 521.49 602.14 L 520.33 602.76 L 519.00 603.00 L 517.67 602.76 L 516.51 602.14 L 515.46 601.10 L 514.69 599.81 L 514.20 598.29 L 514.00 596.50 L 514.20 594.71 L 514.69 593.19 L 515.46 591.90 L 516.51 590.86 L 517.67 590.24 L 519.00 590.00 L 520.33 590.24 L 521.49 590.86 L 522.54 591.90 L 523.31 593.19 L 523.80 594.71 L 524.00 596.50 Z" fill="url(#linearGradient-34)" fill-rule="evenodd" group-id="7,10" id="椭圆形" node-id="167" stroke-linecap="butt" stroke-width="1" target-height="13" target-width="10" target-x="514" target-y="590"></path><path d="M 465.57 599.40 L 465.63 601.20 L 465.36 602.76 L 464.79 604.13 L 463.92 605.30 L 462.88 606.07 L 461.64 606.49 L 460.32 606.43 L 459.11 605.98 L 457.95 605.09 L 457.03 603.93 L 456.34 602.50 L 455.90 600.76 L 455.84 598.97 L 456.11 597.41 L 456.68 596.04 L 457.55 594.86 L 458.59 594.09 L 459.84 593.68 L 461.15 593.73 L 462.36 594.19 L 463.52 595.07 L 464.44 596.24 L 465.13 597.66 L 465.57 599.40 Z" fill="url(#linearGradient-35)" fill-rule="evenodd" group-id="7,10" id="椭圆形备份" node-id="168" stroke-linecap="butt" stroke-width="0.99999994" target-height="12.807251" target-width="9.784485" target-x="455.8434" target-y="593.6796"></path><path d="M 464.90 601.00 L 462.86 599.70 L 461.00 597.92 L 459.33 595.59 L 457.83 592.61 L 456.55 588.87 L 456.10 585.15 L 456.00 581.59 L 456.25 578.15 L 457.14 573.13 L 458.50 568.71 L 460.28 564.65 L 462.14 561.51 L 463.59 559.63 L 464.88 558.34 L 466.03 557.51 L 469.50 555.59 L 471.98 554.49 L 473.56 554.11 L 474.95 554.17 L 476.22 554.64 L 477.26 553.48 L 479.31 552.03 L 481.82 550.82 L 485.30 549.74 L 487.78 549.28 L 490.63 549.04 L 493.93 549.05 L 497.20 549.37 L 500.85 550.09 L 504.94 551.25 L 508.84 552.88 L 512.17 554.82 L 515.00 557.04 L 517.53 559.62 L 519.62 562.30 L 521.31 565.10 L 522.70 568.07 L 523.73 570.92 L 524.43 573.67 L 524.97 577.75 L 524.90 581.01 L 524.18 584.94 L 522.85 589.09 L 520.81 593.50 L 517.98 598.22 L 517.98 590.05 L 516.80 594.26 L 515.59 596.81 L 514.40 598.22 L 514.80 595.73 L 514.98 593.25 L 514.89 590.91 L 514.54 589.34 L 514.21 588.89 L 513.98 589.20 L 513.51 591.33 L 512.75 594.27 L 510.13 591.12 L 507.23 588.38 L 504.04 586.03 L 500.52 584.05 L 496.66 582.44 L 495.93 584.09 L 487.41 575.89 L 484.14 573.13 L 482.48 572.20 L 481.32 571.93 L 480.46 572.12 L 479.79 572.72 L 479.27 573.87 L 478.08 573.15 L 477.32 572.91 L 476.54 572.96 L 475.87 573.41 L 475.18 574.63 L 473.28 579.01 L 472.33 581.68 L 471.37 585.16 L 470.63 588.99 L 470.03 593.99 L 469.37 593.12 L 468.89 592.85 L 468.50 592.91 L 468.00 593.48 L 467.58 594.89 L 467.43 596.58 L 467.54 598.79 L 465.49 598.16 L 464.90 601.00 Z" fill="#000000" fill-rule="evenodd" group-id="7,10" id="路径-67" node-id="169" stroke-linecap="butt" stroke-width="1" target-height="51.962585" target-width="68.9613" target-x="456.00452" target-y="549.0374"></path><path d="M 481.16 628.55 L 490.51 638.61 L 500.63 628.00 L 520.06 632.28 L 521.57 632.63 L 523.05 633.10 L 524.98 633.90 L 526.87 634.97 L 528.65 636.40 L 534.59 642.55 L 540.94 649.48 L 546.72 655.95 L 550.92 660.74 L 552.55 662.61 L 563.00 674.22 L 560.26 677.24 L 557.27 679.98 L 554.04 682.46 L 551.29 684.18 L 548.51 685.71 L 543.74 687.97 L 541.72 688.82 L 533.51 680.96 L 533.51 736.00 L 449.87 736.00 L 449.87 680.21 L 445.02 686.20 L 442.92 685.72 L 437.84 684.25 L 434.78 683.13 L 431.57 681.71 L 427.51 679.39 L 423.65 676.78 L 420.00 673.85 L 444.64 643.52 L 447.01 641.20 L 449.49 639.03 L 451.87 637.26 L 454.35 635.66 L 457.49 634.42 L 460.70 633.41 L 467.11 631.76 L 473.78 630.19 L 479.03 629.01 L 481.16 628.55 Z" fill="url(#linearGradient-36)" fill-rule="nonzero" group-id="7" id="衣服" node-id="170" stroke-linecap="butt" stroke-width="1" target-height="108" target-width="143" target-x="420" target-y="628"></path><path d="M 536.00 738.00 L 450.00 738.00 L 450.00 685.77 L 450.19 684.48 L 450.65 683.37 L 451.41 682.40 L 452.39 681.65 L 453.51 681.18 L 454.82 681.00 L 531.18 681.00 L 532.49 681.18 L 533.61 681.65 L 534.59 682.40 L 535.35 683.37 L 535.82 684.48 L 536.00 685.77 L 536.00 738.00 Z" fill="#825852" fill-rule="evenodd" group-id="7" id="Fill-1633" node-id="171" stroke-linecap="butt" stroke-width="1" target-height="57" target-width="86" target-x="450" target-y="681"></path><path d="M 540.00 736.00 L 446.00 736.00 L 446.00 737.23 L 446.34 737.77 L 447.15 738.00 L 538.85 738.00 L 539.66 737.77 L 540.00 737.23 L 540.00 736.00 Z" fill="#483029" fill-rule="evenodd" group-id="7" id="Fill-1634" node-id="172" stroke-linecap="butt" stroke-width="1" target-height="2" target-width="94" target-x="446" target-y="736"></path></svg>