<svg height="1024" node-id="1" sillyvg="true" template-height="1024" template-width="1024" version="1.1" viewBox="0 0 1024 1024" width="1024" xmlns="http://www.w3.org/2000/svg" xmlns:xlink="http://www.w3.org/1999/xlink"><defs node-id="73"></defs><g node-id="214"><path d="M 837.73 599.12 C 803.67 547.34 784.73 493.18 830.86 366.26 C 849.77 314.17 823.20 251.67 768.66 204.65 L 733.12 236.94 C 730.50 239.32 726.45 239.12 724.08 236.50 C 721.70 233.89 721.89 229.84 724.51 227.46 L 758.63 196.46 C 738.34 180.73 716.04 167.76 692.33 157.92 L 670.58 198.38 C 669.53 200.45 667.44 201.80 665.12 201.89 C 662.79 201.98 660.60 200.80 659.40 198.81 C 658.19 196.82 658.16 194.34 659.31 192.32 L 680.31 153.21 C 587.31 118.95 464.31 125.11 343.16 219.05 C 78.66 424.16 142.46 599.16 173.16 630.48 C 190.83 648.48 205.16 668.25 211.72 690.04 C 216.72 706.47 217.83 723.74 216.43 740.87 C 203.33 902.13 661.24 833.72 756.49 818.70 C 885.84 798.32 866.69 643.15 837.73 599.12 Z" fill="#e61f19" fill-opacity="0.2" fill-rule="nonzero" group-id="1" node-id="77" stroke="none" target-height="783.18" target-width="807.18005" target-x="78.66" target-y="118.95"></path></g><path d="M 0.00 0.00 L 1024.00 0.00 L 1024.00 1024.00 L 0.00 1024.00 Z" fill="none" node-id="80" stroke="none" target-height="1024" target-width="1024" target-x="0" target-y="0"></path><path d="M 748.65 902.58 L 636.91 905.55 L 264.30 904.10 L 282.18 845.36 L 282.18 709.14 L 741.84 714.73 L 748.65 902.58 Z" fill="#ffffff" fill-rule="nonzero" node-id="82" stroke="none" target-height="196.40997" target-width="484.35004" target-x="264.3" target-y="709.14"></path><path d="M 365.77 757.58 L 247.83 757.58 C 229.22 757.58 215.68 741.44 220.71 725.13 C 239.00 665.77 264.30 543.74 398.00 537.20 C 529.62 530.75 728.74 488.68 742.87 728.63" fill="#ffffff" fill-rule="nonzero" node-id="84" stroke="none" target-height="268.90002" target-width="527.19" target-x="215.68" target-y="488.68"></path><path d="M 365.77 759.71 L 247.83 759.71 C 237.99 759.83 228.68 755.30 222.71 747.48 C 217.76 740.90 216.27 732.34 218.71 724.48 C 220.07 720.06 221.47 715.30 222.96 710.25 C 241.56 647.02 272.69 541.18 397.96 535.04 C 411.44 534.38 425.45 533.36 440.28 532.28 C 524.92 526.11 620.87 519.12 683.09 573.64 C 720.59 606.50 740.86 657.15 745.09 728.48 C 745.16 729.66 744.26 730.66 743.09 730.74 C 741.92 730.79 740.93 729.91 740.84 728.74 C 736.71 658.61 716.91 608.93 680.32 576.86 C 619.45 523.51 524.44 530.44 440.64 536.55 C 425.77 537.63 411.74 538.65 398.21 539.32 C 275.96 545.32 245.36 649.32 227.08 711.47 C 225.59 716.53 224.18 721.31 222.81 725.75 C 220.76 732.33 222.00 739.49 226.14 745.00 C 231.31 751.73 239.35 755.62 247.83 755.50 L 365.77 755.50 C 366.95 755.50 367.90 756.45 367.90 757.63 C 367.90 758.81 366.95 759.76 365.77 759.76 Z" fill="#040000" fill-rule="nonzero" node-id="86" stroke="none" target-height="240.71002" target-width="528.88995" target-x="216.27" target-y="519.12"></path><path d="M 584.14 280.45 L 844.52 280.45 C 848.36 280.45 851.48 283.57 851.48 287.41 L 851.48 442.20 C 851.48 446.04 848.36 449.16 844.52 449.16 L 584.14 449.16 C 580.30 449.16 577.18 446.04 577.18 442.20 L 577.18 287.41 C 577.18 283.57 580.30 280.45 584.14 280.45 Z" fill="#040000" fill-rule="nonzero" node-id="88" stroke="none" target-height="168.70999" target-width="274.3" target-x="577.18" target-y="280.45"></path><path d="M 593.54 269.04 L 810.42 269.04 C 826.28 269.04 839.13 281.89 839.13 297.75 L 839.13 409.04 C 839.13 424.90 826.28 437.75 810.42 437.75 L 593.54 437.75 C 577.68 437.75 564.83 424.90 564.83 409.04 L 564.83 297.75 C 564.83 281.89 577.68 269.04 593.54 269.04 Z" fill="#ffffff" fill-rule="nonzero" node-id="90" stroke="none" target-height="168.70999" target-width="274.3" target-x="564.83" target-y="269.04"></path><path d="M 809.44 439.88 L 594.53 439.88 C 576.96 439.86 562.72 425.62 562.70 408.05 L 562.70 298.74 C 562.72 281.17 576.96 266.93 594.53 266.91 L 809.44 266.91 C 827.01 266.93 841.25 281.17 841.27 298.74 L 841.27 408.05 C 841.25 425.62 827.01 439.86 809.44 439.88 Z M 594.53 271.17 C 579.33 271.21 567.02 283.54 567.00 298.74 L 567.00 408.05 C 567.02 423.27 579.34 435.60 594.56 435.62 L 809.44 435.62 C 824.66 435.60 836.98 423.27 837.00 408.05 L 837.00 298.74 C 836.98 283.52 824.66 271.19 809.44 271.17 Z" fill="#040000" fill-rule="nonzero" node-id="92" stroke="none" target-height="172.97" target-width="278.57" target-x="562.7" target-y="266.91"></path><path d="M 658.53 257.42 L 745.43 257.42 C 746.86 257.42 748.02 258.58 748.02 260.01 L 748.02 276.95 C 748.02 278.38 746.86 279.54 745.43 279.54 L 658.53 279.54 C 657.10 279.54 655.94 278.38 655.94 276.95 L 655.94 260.01 C 655.94 258.58 657.10 257.42 658.53 257.42 Z" fill="#040000" fill-rule="nonzero" node-id="94" stroke="none" target-height="22.119995" target-width="92.08002" target-x="655.94" target-y="257.42"></path><path d="M 522.57 308.50 C 521.97 308.50 521.41 308.26 521.00 307.82 C 520.83 307.63 504.26 289.30 517.55 270.70 C 519.09 268.47 520.97 266.51 523.14 264.88 C 523.34 264.06 523.57 263.24 523.83 262.41 C 526.97 252.41 534.74 241.01 547.14 238.89 C 548.30 238.69 549.40 239.47 549.60 240.63 C 549.80 241.79 549.02 242.89 547.86 243.09 C 537.86 244.81 531.28 254.01 528.31 262.47 C 530.33 262.01 532.43 262.10 534.40 262.73 C 541.40 264.95 545.81 273.09 545.85 279.36 C 545.85 284.10 543.56 287.59 539.51 288.93 C 532.65 291.20 528.51 289.05 526.32 286.85 C 523.11 283.69 521.63 278.23 522.03 271.85 C 521.67 272.30 521.34 272.74 521.03 273.18 C 509.77 288.93 523.56 304.28 524.15 304.92 C 524.73 305.54 524.88 306.45 524.54 307.23 C 524.20 308.00 523.43 308.50 522.58 308.50 Z M 526.92 267.50 C 525.50 274.50 526.37 280.89 529.32 283.79 C 531.32 285.79 534.32 286.14 538.18 284.86 C 541.01 283.92 541.59 281.35 541.58 279.36 C 541.58 274.67 538.07 268.36 533.11 266.77 C 531.03 266.13 528.78 266.40 526.92 267.52 Z" fill="#040000" fill-rule="nonzero" node-id="96" stroke="none" target-height="69.81" target-width="45.539978" target-x="504.26" target-y="238.69"></path><path d="M 571.72 505.87 L 552.39 505.87 L 549.48 505.58 L 546.71 504.74 L 544.17 503.38 L 541.90 501.52 L 540.05 499.25 L 538.70 496.70 L 537.86 493.94 L 537.58 491.02 L 537.58 470.93 L 537.83 468.23 L 538.51 465.75 L 539.60 463.46 L 541.07 461.38 L 542.84 459.61 L 544.92 458.14 L 547.21 457.05 L 549.69 456.37 L 552.39 456.12 L 571.72 456.12 L 575.44 456.47 L 578.85 457.39 L 582.00 458.90 L 584.86 460.93 L 587.28 463.35 L 589.31 466.21 L 590.82 469.36 L 591.74 472.77 L 592.09 476.49 L 592.09 485.49 L 591.74 489.21 L 590.82 492.62 L 589.31 495.77 L 587.28 498.63 L 584.86 501.05 L 582.00 503.08 L 578.85 504.59 L 575.44 505.51 L 571.72 505.86 Z" fill="#ffffff" fill-rule="nonzero" group-id="2" node-id="100" stroke="none" target-height="49.75" target-width="54.51001" target-x="537.58" target-y="456.12"></path><path d="M 568.40 508.00 L 537.58 508.00 C 536.40 508.00 535.45 507.05 535.45 505.87 L 535.45 456.15 C 535.45 454.97 536.40 454.02 537.58 454.02 L 568.40 454.02 C 582.65 454.04 594.20 465.59 594.22 479.84 L 594.22 482.18 C 594.20 496.43 582.65 507.98 568.40 508.00 Z M 539.71 503.74 L 568.40 503.74 C 580.32 503.75 589.98 494.10 590.00 482.18 L 590.00 479.84 C 589.99 467.94 580.35 458.30 568.45 458.29 L 539.71 458.29 Z" fill="#040000" fill-rule="nonzero" node-id="103" stroke="none" target-height="53.98001" target-width="58.76996" target-x="535.45" target-y="454.02"></path><path d="M 563.80 488.08 C 563.80 488.08 565.43 482.48 577.18 475.27" fill="#ffffff" fill-rule="nonzero" node-id="105" stroke="none" target-height="12.809998" target-width="13.380005" target-x="563.8" target-y="475.27"></path><path d="M 563.80 490.20 C 563.59 490.20 563.37 490.16 563.17 490.10 C 562.06 489.76 561.43 488.60 561.75 487.49 C 561.94 486.83 563.96 480.87 576.07 473.49 C 577.08 472.87 578.39 473.19 579.00 474.20 C 579.62 475.20 579.31 476.51 578.30 477.13 C 567.64 483.67 565.85 488.71 565.84 488.76 C 565.53 489.62 564.72 490.20 563.80 490.20 Z" fill="#040000" fill-rule="nonzero" node-id="107" stroke="none" target-height="17.330017" target-width="18.190002" target-x="561.43" target-y="472.87"></path><path d="M 394.00 386.00 L 564.83 386.00 L 564.83 386.00 L 564.83 581.30 C 564.83 591.98 556.17 600.64 545.49 600.64 L 413.34 600.64 C 408.21 600.64 403.28 598.60 399.65 594.96 C 396.03 591.33 393.99 586.40 394.00 581.27 L 394.00 386.00 L 394.00 386.00 Z" fill="#ffffff" fill-rule="nonzero" node-id="109" stroke="none" target-height="214.64001" target-width="170.84003" target-x="393.99" target-y="386"></path><path d="M 482.33 602.74 L 476.50 602.74 C 429.78 602.68 391.92 564.82 391.87 518.10 L 391.87 386.00 C 391.87 384.82 392.82 383.87 394.00 383.87 L 564.83 383.87 C 565.40 383.86 565.95 384.08 566.36 384.48 C 566.77 384.88 567.00 385.43 567.00 386.00 L 567.00 518.10 C 566.94 564.83 529.06 602.70 482.33 602.74 Z M 396.13 388.10 L 396.13 518.10 C 396.18 562.47 432.13 598.42 476.50 598.47 L 482.33 598.47 C 526.70 598.42 562.65 562.47 562.70 518.10 L 562.70 388.10 Z" fill="#040000" fill-rule="nonzero" node-id="111" stroke="none" target-height="218.88" target-width="175.13" target-x="391.87" target-y="383.86"></path><path d="M 363.50 475.27 L 390.61 475.27 C 392.48 475.27 394.00 476.79 394.00 478.66 L 394.00 521.60 C 394.00 523.47 392.48 524.99 390.61 524.99 L 365.20 524.99 C 351.00 524.99 339.49 513.48 339.49 499.28 L 339.49 499.28 C 339.49 492.91 342.02 486.80 346.52 482.30 C 351.02 477.80 357.13 475.27 363.50 475.27 Z" fill="#ffffff" fill-rule="nonzero" node-id="113" stroke="none" target-height="49.72" target-width="54.51001" target-x="339.49" target-y="475.27"></path><path d="M 394.00 527.12 L 363.18 527.12 C 348.93 527.10 337.38 515.55 337.36 501.30 L 337.36 499.00 C 337.38 484.75 348.93 473.20 363.18 473.18 L 394.00 473.18 C 395.18 473.18 396.13 474.13 396.13 475.31 L 396.13 525.00 C 396.12 526.17 395.17 527.12 394.00 527.12 Z M 363.18 477.40 C 351.27 477.42 341.62 487.09 341.63 499.00 L 341.63 501.34 C 341.65 513.23 351.29 522.87 363.18 522.89 L 391.87 522.89 L 391.87 477.40 Z" fill="#040000" fill-rule="nonzero" node-id="115" stroke="none" target-height="53.940002" target-width="58.77002" target-x="337.36" target-y="473.18"></path><path d="M 335.23 816.00 C 376.69 728.63 430.00 657.22 441.50 645.75 C 441.76 645.50 442.01 645.24 442.25 644.98 C 450.42 636.32 447.48 627.20 436.03 623.90 C 402.95 614.34 388.64 574.68 388.64 562.16 C 388.64 555.26 392.29 553.73 395.95 553.93 C 399.84 554.23 403.27 556.60 404.95 560.12 C 414.62 579.61 443.21 598.61 476.47 600.61 C 500.47 602.05 494.41 629.61 487.47 645.80 C 481.30 660.49 476.30 675.65 472.52 691.13 C 456.34 755.72 411.89 903.34 343.52 903.34 C 277.90 903.34 271.63 806.03 272.60 757.34 L 365.70 757.54" fill="#ffffff" fill-rule="nonzero" node-id="117" stroke="none" target-height="349.61005" target-width="228.84" target-x="271.63" target-y="553.73"></path><path d="M 343.59 905.47 C 327.59 905.47 313.88 899.80 302.91 888.61 C 273.08 858.18 269.82 793.30 270.53 757.34 C 270.55 756.18 271.50 755.24 272.66 755.25 L 272.66 755.25 L 364.50 755.44 C 399.00 695.09 432.39 651.85 440.00 644.25 L 440.70 643.53 C 444.02 640.01 445.37 636.36 444.52 633.24 C 443.67 630.12 440.40 627.38 435.45 625.95 C 401.56 616.16 386.52 575.84 386.52 562.16 C 386.52 558.49 387.47 555.72 389.35 553.94 C 391.19 552.30 393.63 551.52 396.08 551.80 C 400.75 552.13 404.88 554.94 406.90 559.17 C 415.83 577.17 442.65 596.43 476.64 598.48 C 484.08 598.92 489.46 601.75 492.64 606.89 C 500.23 619.19 492.16 640.42 489.51 646.64 C 483.37 661.22 478.40 676.27 474.65 691.64 C 458.54 755.94 413.54 905.47 343.59 905.47 Z M 274.76 759.47 C 274.23 795.13 277.76 856.82 305.96 885.58 C 316.09 895.91 328.75 901.16 343.59 901.16 C 410.53 901.16 454.65 753.88 470.51 690.56 C 474.31 675.00 479.35 659.76 485.57 645.00 C 490.62 633.18 494.18 617.56 489.00 609.18 C 486.56 605.23 482.43 603.18 476.38 602.78 C 440.76 600.63 412.54 580.19 403.07 561.11 C 401.72 558.27 398.96 556.36 395.83 556.11 C 394.56 555.94 393.27 556.30 392.27 557.11 C 391.27 558.05 390.77 559.78 390.77 562.23 C 390.77 573.43 404.57 612.66 436.62 621.92 C 443.06 623.78 447.33 627.43 448.62 632.19 C 449.87 636.79 448.16 641.88 443.79 646.52 L 443.00 647.33 C 435.45 654.88 402.10 698.07 367.74 758.42 C 367.67 758.62 367.57 758.80 367.44 758.96 C 357.21 776.96 346.89 796.48 337.14 817.03 C 336.63 818.09 335.36 818.55 334.30 818.04 C 333.24 817.53 332.78 816.26 333.29 815.20 C 342.55 795.67 352.34 777.06 362.09 759.77 Z" fill="#040000" fill-rule="nonzero" node-id="119" stroke="none" target-height="353.94995" target-width="230.41" target-x="269.82" target-y="551.52"></path><path d="M 204.44 910.86 C 203.26 910.90 202.28 909.98 202.24 908.80 C 202.19 907.63 203.11 906.64 204.29 906.60 C 304.15 899.55 306.83 899.67 351.53 901.52 C 372.11 902.37 400.31 903.52 450.25 904.60 C 581.42 907.37 836.49 897.44 839.05 897.34 C 840.23 897.29 841.22 898.21 841.27 899.38 C 841.31 900.56 840.40 901.55 839.22 901.60 C 836.66 901.70 581.46 911.60 450.16 908.86 C 400.16 907.81 371.96 906.64 351.35 905.78 C 306.88 903.94 304.21 903.78 204.59 910.85 Z" fill="#040000" fill-rule="nonzero" node-id="121" stroke="none" target-height="14.309998" target-width="639.12" target-x="202.19" target-y="897.29"></path><path d="M 532.42 446.14 C 530.55 446.15 528.68 446.02 526.83 445.74 C 525.73 445.48 525.01 444.41 525.21 443.29 C 525.40 442.17 526.43 441.40 527.56 441.53 C 527.71 441.53 542.63 444.00 551.71 434.92 C 552.56 434.27 553.77 434.35 554.52 435.11 C 555.28 435.86 555.36 437.07 554.71 437.92 C 547.78 444.88 538.35 446.14 532.42 446.14 Z" fill="#040000" fill-rule="nonzero" node-id="123" stroke="none" target-height="11.880005" target-width="30.349976" target-x="525.01" target-y="434.27"></path><path d="M 462.83 451.30 C 455.74 451.30 447.23 449.94 441.71 444.42 C 441.06 443.57 441.14 442.36 441.90 441.61 C 442.65 440.85 443.86 440.77 444.71 441.42 C 453.77 450.49 474.22 445.89 474.42 445.84 C 475.57 445.56 476.72 446.27 477.00 447.42 C 477.28 448.57 476.57 449.72 475.42 450.00 C 471.28 450.87 467.06 451.31 462.83 451.30 Z" fill="#040000" fill-rule="nonzero" node-id="125" stroke="none" target-height="10.540009" target-width="36.22" target-x="441.06" target-y="440.77"></path><path d="M 481.15 499.60 C 481.15 503.04 478.36 505.83 474.92 505.83 C 471.48 505.83 468.69 503.04 468.69 499.60 C 468.69 496.16 471.48 493.37 474.92 493.37 C 478.36 493.37 481.15 496.16 481.15 499.60 Z" fill="#040000" fill-rule="nonzero" node-id="127" stroke="none" target-height="12.459991" target-width="12.459991" target-x="468.69" target-y="493.37"></path><path d="M 553.22 496.79 C 553.22 500.23 550.43 503.02 546.99 503.02 C 543.55 503.02 540.76 500.23 540.76 496.79 C 540.76 493.35 543.55 490.56 546.99 490.56 C 550.43 490.56 553.22 493.35 553.22 496.79 Z" fill="#040000" fill-rule="nonzero" node-id="129" stroke="none" target-height="12.459991" target-width="12.459961" target-x="540.76" target-y="490.56"></path><path d="M 496.00 567.82 C 491.23 567.82 490.09 565.95 489.56 565.10 C 488.05 562.64 488.77 559.40 491.43 556.66 C 496.00 551.94 504.98 549.66 513.29 554.42 C 515.06 555.43 516.08 557.39 515.89 559.42 C 515.72 561.54 514.32 563.36 512.32 564.06 L 512.32 564.06 C 504.48 566.91 499.37 567.82 496.00 567.82 Z M 503.70 556.00 C 500.29 555.96 497.00 557.25 494.53 559.59 C 493.33 560.83 492.81 562.13 493.24 562.83 C 493.67 563.53 497.87 564.71 510.93 560.02 L 510.93 560.02 C 511.36 559.87 511.66 559.47 511.68 559.02 C 511.73 558.64 511.55 558.27 511.21 558.08 C 508.93 556.74 506.34 556.02 503.70 556.00 Z" fill="#231815" fill-rule="nonzero" node-id="131" stroke="none" target-height="18.160034" target-width="28.03003" target-x="488.05" target-y="549.66"></path><path d="M 649.29 726.29 C 648.29 726.29 647.14 726.29 646.01 726.16 C 618.47 724.05 612.41 694.28 611.59 689.29 L 580.00 654.64 C 579.21 653.77 579.27 652.42 580.14 651.63 C 581.01 650.84 582.36 650.90 583.15 651.77 L 615.22 686.90 C 615.52 687.22 615.71 687.63 615.76 688.07 C 615.92 689.37 619.97 719.89 646.38 721.91 C 653.91 722.49 659.28 720.91 662.38 717.35 C 667.12 711.82 665.14 703.08 665.12 702.99 C 664.86 701.91 665.49 700.81 666.55 700.47 C 670.86 699.10 673.43 697.15 674.17 694.67 C 675.33 690.81 671.90 686.50 671.87 686.45 C 671.32 685.77 671.24 684.83 671.67 684.07 C 672.09 683.30 672.94 682.87 673.81 683.00 C 676.36 683.33 678.02 680.81 678.64 678.55 C 680.39 672.16 676.64 662.87 664.24 657.60 C 640.69 647.60 627.24 664.20 627.16 664.38 C 626.56 665.15 625.50 665.41 624.61 665.01 L 586.49 648.13 C 585.41 647.65 584.93 646.39 585.41 645.32 C 585.88 644.24 587.14 643.75 588.22 644.23 L 624.94 660.49 C 628.94 656.38 643.47 644.13 665.94 653.67 C 680.69 659.95 685.01 671.55 682.79 679.67 C 681.79 683.18 679.72 685.67 677.09 686.76 C 678.24 689.07 679.32 692.44 678.29 695.87 C 677.26 699.30 674.29 702.08 669.62 703.87 C 670.06 707.30 670.29 714.66 665.62 720.08 C 662.05 724.22 656.59 726.29 649.29 726.29 Z" fill="#040000" fill-rule="nonzero" node-id="133" stroke="none" target-height="82.53998" target-width="105.79999" target-x="579.21" target-y="643.75"></path><path d="M 629.34 646.00 C 629.11 646.00 628.89 645.96 628.67 645.89 L 592.99 633.89 C 592.06 633.40 591.63 632.31 591.97 631.31 C 592.31 630.32 593.31 629.72 594.35 629.89 L 630.02 641.89 C 631.01 642.22 631.62 643.22 631.45 644.25 C 631.28 645.29 630.39 646.04 629.34 646.04 Z" fill="#040000" fill-rule="nonzero" node-id="135" stroke="none" target-height="16.320007" target-width="39.98999" target-x="591.63" target-y="629.72"></path><path d="M 596.87 691.64 C 596.22 691.64 595.61 691.35 595.21 690.84 L 572.00 662.00 C 571.26 661.08 571.41 659.74 572.33 659.00 C 573.24 658.27 574.58 658.41 575.32 659.33 L 598.55 688.16 C 599.06 688.80 599.16 689.68 598.80 690.41 C 598.45 691.15 597.71 691.62 596.89 691.63 Z" fill="#040000" fill-rule="nonzero" node-id="137" stroke="none" target-height="33.369995" target-width="27.899963" target-x="571.26" target-y="658.27"></path><path d="M 637.78 702.77 C 636.66 702.75 635.74 701.88 635.67 700.76 C 635.61 699.64 636.41 698.66 637.52 698.51 C 641.28 698.06 643.95 696.70 645.52 694.51 C 648.06 690.80 646.81 685.70 646.80 685.65 C 646.63 684.97 646.80 684.25 647.26 683.72 C 647.72 683.19 648.41 682.92 649.11 683.00 C 651.60 683.30 653.45 682.85 654.62 681.67 C 656.88 679.37 656.37 674.88 656.37 674.84 C 656.22 673.67 657.04 672.60 658.21 672.45 C 659.38 672.30 660.45 673.12 660.60 674.29 C 660.60 674.55 661.40 680.87 657.65 684.67 C 655.96 686.33 653.71 687.28 651.34 687.34 C 651.66 690.69 650.86 694.05 649.06 696.89 C 646.81 700.19 643.12 702.17 638.06 702.78 Z" fill="#040000" fill-rule="nonzero" node-id="139" stroke="none" target-height="30.480042" target-width="25.79004" target-x="635.61" target-y="672.3"></path><path d="M 666.46 634.00 C 662.37 634.00 658.69 631.54 657.13 627.77 C 655.57 623.99 656.45 619.65 659.35 616.77 C 662.25 613.89 666.60 613.04 670.36 614.63 C 674.13 616.21 676.56 619.91 676.53 624.00 C 676.48 629.53 671.99 633.99 666.46 634.00 Z M 666.46 618.12 C 664.11 618.12 661.99 619.53 661.08 621.70 C 660.18 623.87 660.68 626.38 662.34 628.04 C 664.00 629.70 666.51 630.20 668.68 629.30 C 670.85 628.39 672.26 626.27 672.26 623.92 C 672.24 620.73 669.65 618.16 666.46 618.15 Z" fill="#040000" fill-rule="nonzero" node-id="141" stroke="none" target-height="20.960022" target-width="20.98999" target-x="655.57" target-y="613.04"></path><path d="M 573.64 696.36 C 571.43 696.36 569.44 695.03 568.59 692.99 C 567.75 690.95 568.22 688.60 569.78 687.04 C 571.35 685.47 573.70 685.01 575.74 685.86 C 577.78 686.71 579.10 688.70 579.10 690.91 C 579.10 692.36 578.52 693.74 577.50 694.77 C 576.48 695.79 575.09 696.36 573.64 696.36 Z M 573.64 689.72 C 572.98 689.72 572.45 690.25 572.45 690.91 C 572.45 691.57 572.98 692.10 573.64 692.10 C 574.30 692.10 574.83 691.57 574.83 690.91 C 574.83 690.25 574.30 689.72 573.64 689.72 Z" fill="#040000" fill-rule="nonzero" node-id="143" stroke="none" target-height="11.349976" target-width="11.349976" target-x="567.75" target-y="685.01"></path><path d="M 377.82 364.93 C 376.86 364.93 376.02 364.29 375.76 363.36 C 373.69 355.83 367.15 349.08 359.68 344.67 C 360.85 354.59 356.19 359.44 352.99 361.56 C 346.58 365.82 336.72 365.34 330.56 360.47 C 325.88 356.77 324.40 351.34 326.56 345.57 C 329.17 338.47 335.27 334.77 343.81 335.11 C 347.09 335.29 350.33 335.95 353.42 337.05 C 350.83 330.05 346.83 325.12 341.50 322.35 C 331.69 317.26 320.56 321.16 320.50 321.20 C 319.76 321.57 318.88 321.48 318.23 320.97 C 317.58 320.46 317.28 319.63 317.46 318.82 C 317.63 318.02 318.26 317.39 319.06 317.20 C 319.59 317.01 332.06 312.65 343.52 318.58 C 350.74 322.33 355.83 329.28 358.65 339.24 C 368.34 344.01 377.27 352.45 379.97 362.24 C 380.28 363.37 379.61 364.54 378.48 364.86 C 378.26 364.92 378.04 364.94 377.82 364.93 Z M 342.70 339.35 C 338.24 339.35 332.83 340.78 330.53 347.04 C 328.65 352.14 330.95 355.34 333.21 357.12 C 337.93 360.85 345.75 361.25 350.63 358.01 C 355.06 355.07 356.56 349.51 354.93 342.24 C 351.36 340.60 347.51 339.63 343.59 339.37 Z" fill="#040000" fill-rule="nonzero" node-id="145" stroke="none" target-height="53.170013" target-width="63" target-x="317.28" target-y="312.65"></path><path d="M 254.69 511.73 C 254.08 511.73 253.49 511.47 253.09 511.01 L 236.38 492.07 C 235.60 491.19 235.69 489.84 236.57 489.06 C 237.45 488.28 238.80 488.37 239.58 489.25 L 256.29 508.18 C 256.85 508.81 256.99 509.71 256.64 510.48 C 256.30 511.24 255.53 511.73 254.69 511.73 Z" fill="#040000" fill-rule="nonzero" node-id="147" stroke="none" target-height="23.450012" target-width="21.389984" target-x="235.6" target-y="488.28"></path><path d="M 238.00 511.73 C 237.16 511.73 236.39 511.24 236.05 510.48 C 235.70 509.71 235.84 508.81 236.40 508.18 L 253.11 489.25 C 253.89 488.37 255.24 488.28 256.12 489.06 C 257.00 489.84 257.09 491.19 256.31 492.07 L 239.58 511.00 C 239.18 511.46 238.61 511.72 238.00 511.73 Z" fill="#040000" fill-rule="nonzero" node-id="149" stroke="none" target-height="23.450012" target-width="21.39" target-x="235.7" target-y="488.28"></path><path d="M 855.53 665.93 C 854.65 665.94 853.85 665.39 853.53 664.57 L 839.53 628.57 C 839.10 627.47 839.65 626.22 840.75 625.79 C 841.86 625.37 843.10 625.92 843.53 627.02 L 857.53 663.02 C 857.74 663.55 857.72 664.13 857.50 664.65 C 857.27 665.17 856.85 665.57 856.32 665.78 C 856.07 665.88 855.80 665.93 855.53 665.93 Z" fill="#040000" fill-rule="nonzero" node-id="151" stroke="none" target-height="40.570007" target-width="18.640015" target-x="839.1" target-y="625.37"></path><path d="M 832.63 658.92 C 831.70 658.92 830.87 658.32 830.59 657.43 C 830.31 656.54 830.64 655.57 831.41 655.04 L 863.18 633.04 C 864.15 632.37 865.48 632.61 866.15 633.58 C 866.82 634.55 866.58 635.88 865.61 636.55 L 833.84 658.55 C 833.48 658.80 833.06 658.92 832.63 658.92 Z" fill="#040000" fill-rule="nonzero" node-id="153" stroke="none" target-height="26.549988" target-width="36.51001" target-x="830.31" target-y="632.37"></path><path d="M 885.84 550.90 C 877.52 550.90 870.02 545.90 866.84 538.21 C 863.65 530.53 865.41 521.68 871.29 515.80 C 877.17 509.92 886.02 508.16 893.70 511.35 C 901.39 514.53 906.39 522.03 906.39 530.35 C 906.37 541.69 897.18 550.88 885.84 550.90 Z M 885.84 514.06 C 879.25 514.06 873.31 518.02 870.78 524.11 C 868.26 530.20 869.65 537.20 874.31 541.87 C 878.97 546.53 885.97 547.92 892.06 545.40 C 898.15 542.88 902.12 536.94 902.12 530.35 C 902.11 521.36 894.83 514.07 885.84 514.06 Z" fill="#040000" fill-rule="nonzero" node-id="155" stroke="none" target-height="42.74002" target-width="42.73999" target-x="863.65" target-y="508.16"></path><path d="M 808.91 513.55 C 804.13 513.55 799.73 510.19 795.83 503.55 C 792.75 498.31 789.59 495.55 786.70 495.47 L 786.64 495.47 C 783.00 495.47 779.90 499.77 778.74 501.63 C 777.04 504.51 774.86 507.08 772.29 509.22 C 764.84 515.07 756.94 514.07 750.60 506.46 C 747.46 502.69 744.46 500.78 741.69 500.78 L 741.69 500.78 C 738.94 500.78 736.76 502.70 735.43 504.30 C 732.43 507.88 729.54 510.20 726.54 511.39 C 722.24 513.10 715.79 513.76 709.54 507.17 C 707.04 504.57 704.54 503.39 701.97 503.59 C 697.06 504.03 693.35 509.59 693.32 509.59 C 692.68 510.58 691.36 510.85 690.37 510.21 C 689.38 509.57 689.11 508.25 689.75 507.26 C 689.94 506.96 694.59 499.96 701.56 499.31 C 705.45 498.94 709.17 500.59 712.62 504.19 C 716.36 508.10 720.53 509.19 725.01 507.40 C 727.34 506.47 729.69 504.56 732.20 501.54 C 734.12 499.24 737.34 496.49 741.74 496.49 L 741.74 496.49 C 745.84 496.49 749.94 498.91 753.93 503.70 C 758.85 509.61 764.01 510.31 769.70 505.84 C 771.88 504.00 773.74 501.80 775.18 499.33 C 777.11 496.25 781.18 491.19 786.81 491.17 C 791.34 491.24 795.63 494.67 799.56 501.36 C 802.64 506.59 805.80 509.24 808.96 509.24 L 809.00 509.24 C 813.57 509.24 817.75 503.50 819.00 501.31 C 819.61 500.36 820.85 500.05 821.84 500.60 C 822.82 501.15 823.21 502.37 822.73 503.39 C 822.50 503.80 817.05 513.39 809.08 513.51 Z" fill="#040000" fill-rule="nonzero" node-id="157" stroke="none" target-height="23.899994" target-width="134.10004" target-x="689.11" target-y="491.17"></path><path d="M 131.65 591.75 L 131.53 591.75 C 123.53 591.66 118.11 582.04 117.88 581.63 C 117.40 580.61 117.79 579.39 118.77 578.84 C 119.76 578.29 121.00 578.60 121.61 579.55 C 122.84 581.74 127.03 587.44 131.61 587.49 L 131.67 587.49 C 134.83 587.49 137.99 584.83 141.07 579.60 C 145.01 572.91 149.29 569.48 153.82 569.42 C 159.56 569.35 163.52 574.49 165.45 577.57 C 166.89 580.03 168.74 582.23 170.92 584.08 C 176.62 588.56 181.78 587.86 186.70 581.95 C 190.70 577.16 194.79 574.73 198.90 574.73 C 203.30 574.73 206.52 577.48 208.44 579.79 C 210.96 582.79 213.31 584.72 215.63 585.64 C 220.11 587.42 224.28 586.34 228.02 582.44 C 231.47 578.84 235.18 577.21 239.07 577.56 C 246.07 578.20 250.70 585.20 250.89 585.50 C 251.54 586.49 251.26 587.81 250.27 588.45 C 249.29 589.10 247.97 588.83 247.32 587.84 C 247.32 587.78 243.58 582.25 238.67 581.84 C 236.15 581.60 233.60 582.84 231.11 585.43 C 224.80 592.01 218.35 591.35 214.05 589.65 C 211.05 588.45 208.14 586.13 205.16 582.55 C 203.83 580.95 201.65 579.04 198.90 579.04 C 196.15 579.04 193.12 580.95 189.98 584.71 C 183.65 592.32 175.74 593.33 168.29 587.48 C 165.72 585.33 163.54 582.76 161.84 579.88 C 160.67 578.02 157.58 573.72 153.94 573.72 L 153.88 573.72 C 150.99 573.72 147.83 576.56 144.75 581.80 C 140.83 588.39 136.43 591.75 131.65 591.75 Z" fill="#040000" fill-rule="nonzero" node-id="159" stroke="none" target-height="23.980042" target-width="134.13998" target-x="117.4" target-y="569.35"></path><path d="M 493.05 627.20 C 545.40 615.34 532.58 583.52 532.58 583.52 C 532.58 583.52 542.46 575.91 547.50 568.66 C 547.50 568.66 578.42 638.93 487.50 645.80 Z" fill="#040000" fill-rule="nonzero" node-id="161" stroke="none" target-height="77.140015" target-width="90.91998" target-x="487.5" target-y="568.66"></path><path d="M 264.30 906.23 C 264.09 906.23 263.88 906.20 263.68 906.14 C 263.14 905.98 262.68 905.60 262.42 905.10 C 262.15 904.61 262.09 904.02 262.26 903.48 L 280.14 844.74 C 280.53 843.67 281.68 843.09 282.77 843.42 C 283.86 843.75 284.50 844.88 284.23 845.98 L 266.34 904.72 C 266.07 905.62 265.24 906.23 264.30 906.23 Z" fill="#040000" fill-rule="nonzero" node-id="163" stroke="none" target-height="63.139954" target-width="22.410004" target-x="262.09" target-y="843.09"></path><path d="M 277.99 317.60 C 277.99 325.16 271.86 331.29 264.30 331.29 C 256.74 331.29 250.61 325.16 250.61 317.60 C 250.61 310.04 256.74 303.91 264.30 303.91 C 271.86 303.91 277.99 310.04 277.99 317.60 Z" fill="#ffffff" fill-rule="nonzero" node-id="165" stroke="none" target-height="27.380005" target-width="27.37999" target-x="250.61" target-y="303.91"></path><path d="M 264.30 333.43 C 255.56 333.43 248.47 326.34 248.47 317.60 C 248.47 308.86 255.56 301.77 264.30 301.77 C 273.04 301.77 280.13 308.86 280.13 317.60 C 280.12 326.34 273.04 333.42 264.30 333.43 Z M 264.30 306.04 C 257.92 306.04 252.74 311.22 252.74 317.60 C 252.74 323.98 257.92 329.16 264.30 329.16 C 270.68 329.16 275.86 323.98 275.86 317.60 C 275.87 314.53 274.65 311.58 272.48 309.41 C 270.31 307.23 267.37 306.01 264.30 306.00 Z" fill="#040000" fill-rule="nonzero" node-id="167" stroke="none" target-height="31.660004" target-width="31.660004" target-x="248.47" target-y="301.77"></path><path d="M 394.00 507.52 C 393.41 507.52 392.84 507.27 392.44 506.83 C 380.31 493.74 368.53 501.07 368.03 501.39 C 367.04 502.03 365.72 501.74 365.08 500.75 C 364.45 499.75 364.74 498.44 365.73 497.80 C 365.87 497.71 381.05 488.26 395.56 503.93 C 396.14 504.55 396.30 505.46 395.96 506.24 C 395.62 507.02 394.85 507.52 394.00 507.52 Z" fill="#040000" fill-rule="nonzero" node-id="169" stroke="none" target-height="19.25998" target-width="31.849976" target-x="364.45" target-y="488.26"></path><path d="M 582.05 728.63 L 839.13 728.63 L 839.13 903.74 L 582.05 903.74 Z" fill="#040000" fill-rule="nonzero" node-id="171" stroke="none" target-height="175.10999" target-width="257.08002" target-x="582.05" target-y="728.63"></path><path d="M 521.79 879.56 L 839.14 879.56 L 839.14 905.55 L 521.79 905.55 Z" fill="#040000" fill-rule="nonzero" node-id="173" stroke="none" target-height="25.98999" target-width="317.35004" target-x="521.79" target-y="879.56"></path><path d="M 637.74 303.58 C 615.24 316.40 601.05 344.75 611.37 369.96 C 622.17 396.34 653.46 395.22 676.25 386.43 C 698.25 377.93 724.12 356.61 727.81 331.75 C 729.21 322.31 724.15 314.92 714.38 314.10 C 701.13 313.00 686.00 322.00 676.00 329.69 C 667.30 336.37 657.57 346.23 659.74 358.27 C 661.87 370.15 675.06 380.46 684.63 386.45 C 702.47 397.61 737.74 407.45 752.56 386.56 C 759.74 376.41 759.61 363.15 755.17 351.95 C 751.35 342.34 743.17 328.52 733.11 324.32 C 712.34 315.68 687.92 351.32 698.42 369.32 C 712.34 393.16 751.80 369.51 756.50 349.64 C 757.29 346.31 758.17 340.79 755.67 338.12 C 751.85 334.03 742.11 335.12 737.50 336.39 C 723.38 340.39 716.18 353.74 711.94 366.75 C 711.73 367.49 711.94 368.29 712.49 368.83 L 717.15 373.35 C 717.69 373.90 718.49 374.11 719.23 373.90 C 732.37 368.78 746.11 361.90 752.00 348.17 C 757.37 335.69 754.42 328.83 740.55 327.59 C 726.21 326.32 713.92 334.81 704.63 344.86 C 695.74 354.48 684.75 366.45 687.79 380.48 C 688.13 381.59 689.28 382.25 690.41 381.97 C 712.91 378.13 737.80 364.03 747.21 342.09 C 754.51 325.09 743.31 308.60 725.05 307.16 C 701.82 305.33 681.28 328.16 670.62 346.16 C 662.71 359.53 652.62 384.45 673.18 391.86 C 681.54 394.86 690.95 393.10 699.37 391.37 C 713.37 388.50 727.17 384.50 740.03 378.28 C 760.18 368.53 777.85 352.43 785.35 330.88 C 787.71 324.10 791.67 310.95 787.61 304.04 C 783.44 296.94 777.38 303.12 773.61 307.44 C 758.09 325.20 755.45 350.01 759.20 372.44 C 760.77 381.83 762.64 397.70 771.39 403.91 C 778.30 408.83 784.70 404.57 788.72 398.43 C 794.97 388.87 797.19 376.27 795.40 365.08 C 794.29 358.08 790.22 349.34 782.01 354.08 C 779.64 355.45 781.79 359.14 784.17 357.76 C 791.46 353.54 791.81 372.71 791.63 375.51 C 791.26 381.10 789.82 388.60 786.63 393.39 C 784.31 399.34 779.06 400.56 770.89 397.03 C 769.52 394.86 768.47 392.50 767.76 390.03 C 766.16 385.12 764.90 380.11 763.98 375.03 C 759.98 354.82 760.98 332.65 772.98 315.14 C 775.50 311.45 784.49 300.26 784.53 311.75 C 784.48 316.81 783.70 321.83 782.21 326.67 C 779.18 336.49 774.02 345.53 767.12 353.14 C 753.98 367.91 735.75 376.81 717.12 382.44 C 702.75 386.78 663.86 399.26 665.12 371.96 C 666.02 352.64 684.18 331.39 698.94 320.55 C 707.80 314.04 718.94 309.00 730.09 312.31 C 746.27 317.11 748.53 333.06 740.09 346.21 C 728.88 363.60 709.34 374.35 689.34 377.76 L 691.96 379.25 C 689.15 366.25 701.85 353.51 710.21 345.17 C 717.83 337.58 738.15 323.98 748.21 335.02 C 757.77 345.57 735.62 361.74 727.21 365.89 C 708.36 375.14 723.30 350.34 729.83 345.18 C 733.61 342.18 749.26 334.39 752.99 342.96 C 755.30 348.27 748.66 357.33 745.35 360.90 C 737.55 369.32 723.71 376.61 711.88 373.83 C 693.57 369.53 700.51 348.54 709.03 338.68 C 712.90 334.20 718.10 328.59 724.15 327.51 C 734.15 325.74 741.36 336.22 745.82 343.02 C 760.33 365.16 754.65 394.54 723.94 393.91 C 703.24 393.49 677.40 382.55 666.82 363.69 C 658.21 348.34 673.54 335.69 685.41 328.31 C 695.01 322.31 724.48 307.26 723.57 332.12 C 723.26 340.61 714.38 351.97 709.07 358.12 C 702.49 365.76 694.62 372.19 685.83 377.12 C 666.73 387.87 631.83 396.33 618.04 373.40 C 603.78 349.68 617.79 319.76 640.04 307.09 C 642.43 305.73 640.28 302.09 637.89 303.41 Z" fill="#040000" fill-rule="nonzero" node-id="175" stroke="none" target-height="111.889984" target-width="196.14001" target-x="601.05" target-y="296.94"></path><path d="M 592.00 380.52 C 594.64 367.78 591.40 354.52 583.18 344.44 C 574.95 334.35 562.62 328.50 549.61 328.52 C 549.33 328.52 549.05 328.52 548.77 328.52 C 501.15 280.90 451.60 317.35 451.60 317.35 C 450.60 317.28 449.60 317.20 448.60 317.20 C 436.66 317.20 425.30 322.33 417.41 331.30 C 402.81 331.62 390.82 340.83 388.53 352.86 C 368.58 358.52 356.14 378.22 356.14 398.13 C 356.16 400.32 356.37 402.51 356.76 404.67 C 356.56 404.76 356.34 404.84 356.14 404.94 C 356.14 404.94 344.57 416.79 344.57 434.39 C 344.57 451.61 349.78 479.84 349.78 479.84 C 349.78 479.84 391.87 465.56 391.87 505.35 L 413.04 500.83 C 413.04 500.83 412.69 478.65 417.79 458.83 C 419.41 458.97 421.06 459.05 422.73 459.05 C 448.23 459.05 470.53 449.05 472.38 427.05 C 481.17 437.78 493.96 437.34 510.11 437.34 C 525.49 437.34 539.11 430.96 547.98 421.09 C 555.16 429.19 566.16 432.78 576.74 430.48 C 587.32 428.18 595.83 420.34 598.99 409.98 C 602.15 399.62 599.47 388.37 591.98 380.55 Z" fill="#040000" fill-rule="nonzero" node-id="177" stroke="none" target-height="224.45001" target-width="257.58002" target-x="344.57" target-y="280.9"></path><path d="M 494.39 396.66 C 474.99 396.66 454.78 388.47 453.50 387.94 C 452.41 387.49 451.89 386.24 452.34 385.15 C 452.80 384.07 454.04 383.55 455.13 384.00 C 455.58 384.18 500.59 402.41 518.54 384.46 C 519.39 383.81 520.60 383.89 521.35 384.65 C 522.11 385.40 522.19 386.61 521.54 387.46 C 514.66 394.38 504.64 396.66 494.39 396.66 Z" fill="#ffffff" fill-rule="nonzero" node-id="179" stroke="none" target-height="18.860016" target-width="70.29999" target-x="451.89" target-y="383.55"></path><path d="M 534.00 379.70 C 533.09 379.69 532.29 379.12 532.00 378.26 C 531.70 377.41 531.97 376.46 532.68 375.89 C 532.75 375.83 540.18 369.89 542.17 364.11 C 542.66 363.17 543.77 362.73 544.77 363.08 C 545.77 363.43 546.37 364.46 546.17 365.50 C 543.77 372.50 535.63 378.96 535.28 379.24 C 534.92 379.53 534.47 379.69 534.00 379.70 Z" fill="#ffffff" fill-rule="nonzero" node-id="181" stroke="none" target-height="16.970001" target-width="14.669983" target-x="531.7" target-y="362.73"></path><path d="M 239.68 818.45 C 239.68 818.45 240.18 831.96 249.09 840.87" fill="#040000" fill-rule="nonzero" node-id="183" stroke="none" target-height="22.419983" target-width="9.410004" target-x="239.68" target-y="818.45"></path><path d="M 249.09 843.00 C 248.52 843.01 247.98 842.78 247.58 842.38 C 238.18 832.99 237.58 819.11 237.58 818.52 C 237.55 817.35 238.46 816.36 239.63 816.31 C 240.78 816.33 241.74 817.21 241.85 818.36 C 241.85 818.49 242.45 831.18 250.63 839.36 C 251.03 839.76 251.25 840.30 251.25 840.86 C 251.25 841.42 251.03 841.96 250.63 842.36 C 250.23 842.78 249.67 843.01 249.09 843.00 Z" fill="#231815" fill-rule="nonzero" node-id="185" stroke="none" target-height="26.700012" target-width="13.699997" target-x="237.55" target-y="816.31"></path><path d="M 241.00 854.11 C 240.43 854.11 239.89 853.88 239.49 853.48 C 221.38 835.37 220.19 808.56 220.14 807.42 C 220.11 806.25 221.02 805.26 222.19 805.21 C 222.75 805.18 223.30 805.37 223.72 805.75 C 224.13 806.12 224.38 806.65 224.41 807.21 C 224.41 807.48 225.61 833.51 242.51 850.41 C 243.33 851.24 243.33 852.58 242.51 853.41 C 242.12 853.84 241.58 854.09 241.00 854.11 Z" fill="#231815" fill-rule="nonzero" node-id="187" stroke="none" target-height="48.929993" target-width="23.220001" target-x="220.11" target-y="805.18"></path><path d="M 737.42 816.18 C 737.42 831.00 725.41 843.01 710.59 843.01 C 695.77 843.01 683.76 831.00 683.76 816.18 C 683.76 801.36 695.77 789.35 710.59 789.35 C 725.41 789.35 737.42 801.36 737.42 816.18 Z" fill="#ffffff" fill-rule="nonzero" node-id="189" stroke="none" target-height="53.660034" target-width="53.659973" target-x="683.76" target-y="789.35"></path><path d="M 204.44 708.11 C 203.27 708.11 202.32 707.17 202.30 706.00 C 202.30 688.28 213.52 674.35 214.00 673.77 C 214.75 672.86 216.09 672.72 217.00 673.47 C 217.91 674.22 218.05 675.56 217.30 676.47 C 217.20 676.60 206.57 689.84 206.57 706.00 C 206.56 707.17 205.61 708.11 204.44 708.11 Z" fill="#231815" fill-rule="nonzero" node-id="191" stroke="none" target-height="35.390015" target-width="15.75" target-x="202.3" target-y="672.72"></path><path d="M 189.29 711.27 C 188.21 711.27 187.30 710.46 187.17 709.39 C 186.98 707.74 182.73 668.94 209.02 654.60 C 209.69 654.15 210.56 654.13 211.26 654.53 C 211.96 654.94 212.37 655.70 212.32 656.51 C 212.27 657.32 211.77 658.03 211.02 658.34 C 187.24 671.34 191.33 708.52 191.37 708.89 C 191.51 710.06 190.67 711.12 189.50 711.26 Z" fill="#231815" fill-rule="nonzero" node-id="193" stroke="none" target-height="57.140015" target-width="29.64" target-x="182.73" target-y="654.13"></path><path d="M 389.63 720.00 L 389.43 720.00 C 388.87 719.95 388.35 719.68 387.98 719.24 C 387.62 718.81 387.45 718.24 387.50 717.68 C 390.79 681.52 370.98 647.33 370.78 646.99 C 370.18 645.97 370.52 644.67 371.54 644.07 C 372.56 643.47 373.86 643.81 374.46 644.83 C 375.31 646.27 395.16 680.51 391.75 718.07 C 391.65 719.16 390.73 720.00 389.63 720.00 Z" fill="#231815" fill-rule="nonzero" node-id="195" stroke="none" target-height="76.53003" target-width="24.980011" target-x="370.18" target-y="643.47"></path><path d="M 466.18 517.85 C 455.29 517.85 445.47 511.30 441.30 501.24 C 437.13 491.18 439.43 479.60 447.13 471.89 C 454.84 464.19 466.42 461.89 476.48 466.06 C 486.54 470.23 493.09 480.05 493.09 490.94 C 493.04 505.78 481.02 517.80 466.18 517.85 Z M 466.18 468.29 C 457.02 468.29 448.76 473.80 445.25 482.27 C 441.74 490.73 443.67 500.47 450.15 506.95 C 456.63 513.43 466.37 515.37 474.84 511.87 C 483.30 508.36 488.82 500.10 488.82 490.94 C 488.81 478.44 478.68 468.31 466.18 468.29 Z" fill="#040000" fill-rule="nonzero" node-id="197" stroke="none" target-height="55.95996" target-width="55.95999" target-x="437.13" target-y="461.89"></path><path d="M 539.00 515.00 C 524.14 515.00 512.09 502.95 512.09 488.09 C 512.09 473.23 524.14 461.18 539.00 461.18 C 553.86 461.18 565.91 473.23 565.91 488.09 C 565.89 502.95 553.86 514.98 539.00 515.00 Z M 539.00 465.45 C 529.84 465.45 521.58 470.97 518.07 479.43 C 514.57 487.90 516.51 497.64 522.99 504.12 C 529.47 510.60 539.21 512.53 547.67 509.02 C 556.14 505.51 561.65 497.25 561.65 488.09 C 561.64 475.59 551.50 465.45 539.00 465.44 Z" fill="#040000" fill-rule="nonzero" node-id="199" stroke="none" target-height="53.820007" target-width="53.819946" target-x="512.09" target-y="461.18"></path><path d="M 492.08 492.75 L 489.83 489.12 C 490.46 488.73 505.38 479.65 516.54 489.32 L 513.75 492.55 C 505.00 484.93 492.21 492.67 492.08 492.75 Z" fill="#040000" fill-rule="nonzero" node-id="201" stroke="none" target-height="13.100006" target-width="26.709991" target-x="489.83" target-y="479.65"></path><path d="M 406.96 477.21 L 408.77 473.34 L 442.31 489.01 L 440.50 492.88 Z" fill="#040000" fill-rule="nonzero" group-id="3" node-id="205" stroke="none" target-height="19.540009" target-width="35.350006" target-x="406.96" target-y="473.34"></path><path d="M 457.36 526.60 C 457.20 526.60 457.04 526.58 456.89 526.55 L 437.07 522.10 C 435.92 521.84 435.20 520.70 435.46 519.55 C 435.72 518.40 436.86 517.68 438.01 517.94 L 457.83 522.38 C 458.88 522.63 459.57 523.63 459.45 524.70 C 459.34 525.77 458.44 526.58 457.36 526.60 Z" fill="#231815" fill-rule="nonzero" node-id="208" stroke="none" target-height="8.919983" target-width="24.369995" target-x="435.2" target-y="517.68"></path><path d="M 549.62 522.20 C 548.64 522.22 547.77 521.57 547.51 520.62 C 547.26 519.67 547.69 518.67 548.55 518.20 L 561.09 511.00 C 562.11 510.41 563.41 510.77 564.00 511.79 C 564.59 512.81 564.23 514.11 563.21 514.70 L 550.68 521.91 C 550.36 522.10 549.99 522.20 549.62 522.20 Z" fill="#231815" fill-rule="nonzero" node-id="210" stroke="none" target-height="11.809967" target-width="17.330017" target-x="547.26" target-y="510.41"></path><path d="M 503.75 518.73 C 503.27 518.73 502.79 518.69 502.31 518.62 L 502.39 516.46 L 502.79 514.37 C 504.68 514.73 506.61 513.95 507.71 512.37 C 508.89 510.81 509.09 508.72 508.23 506.96 C 507.39 505.19 506.86 503.29 506.65 501.34 C 506.55 500.17 507.41 499.13 508.58 499.03 C 509.76 498.92 510.80 499.79 510.90 500.96 C 511.06 502.38 511.45 503.76 512.05 505.05 C 513.63 508.24 513.28 512.04 511.15 514.89 C 509.44 517.28 506.69 518.71 503.75 518.73 Z" fill="#231815" fill-rule="nonzero" node-id="212" stroke="none" target-height="19.809967" target-width="11.320007" target-x="502.31" target-y="498.92"></path></svg>