<svg height="800" node-id="1" sillyvg="true" template-height="800" template-width="800" version="1.1" viewBox="0 0 800 800" width="800" xmlns="http://www.w3.org/2000/svg" xmlns:xlink="http://www.w3.org/1999/xlink"><defs node-id="152"><linearGradient gradientUnits="userSpaceOnUse" id="SVGID_1_" node-id="12" spreadMethod="pad" x1="402.7166" x2="402.7166" y1="159.3072" y2="714.7988"><stop offset="0.00000009590021" stop-color="#f4f2fb"></stop><stop offset="1" stop-color="#e1eef5"></stop></linearGradient><linearGradient gradientUnits="userSpaceOnUse" id="SVGID_2_" node-id="16" spreadMethod="pad" x1="508.5879" x2="508.5879" y1="575.153" y2="375.4965"><stop offset="0.3396" stop-color="#b0b9e1"></stop><stop offset="0.9392" stop-color="#eaf0f8"></stop></linearGradient><linearGradient gradientUnits="userSpaceOnUse" id="SVGID_3_" node-id="21" spreadMethod="pad" x1="117.7983" x2="117.7983" y1="539.6935" y2="402.519"><stop offset="0.2267" stop-color="#b7ace0"></stop><stop offset="0.7893" stop-color="#e8e7fa"></stop></linearGradient><linearGradient gradientUnits="userSpaceOnUse" id="SVGID_4_" node-id="26" spreadMethod="pad" x1="117.8002" x2="117.8002" y1="417.7506" y2="568.8839"><stop offset="0" stop-color="#ecf1fb"></stop><stop offset="0.818" stop-color="#afb0e7"></stop></linearGradient><linearGradient gradientUnits="userSpaceOnUse" id="SVGID_5_" node-id="31" spreadMethod="pad" x1="618.9272" x2="618.9272" y1="448.1716" y2="359.8471"><stop offset="0.2267" stop-color="#ccd4f4"></stop><stop offset="0.7893" stop-color="#ecf1fb"></stop></linearGradient><linearGradient gradientUnits="userSpaceOnUse" id="SVGID_6_" node-id="36" spreadMethod="pad" x1="618.9284" x2="618.9284" y1="369.6545" y2="466.9668"><stop offset="0" stop-color="#ecf1fb"></stop><stop offset="1" stop-color="#a6a8e2"></stop></linearGradient><linearGradient gradientUnits="userSpaceOnUse" id="SVGID_7_" node-id="40" spreadMethod="pad" x1="464.8452" x2="430.091" y1="85.5649" y2="145.7611"><stop offset="0" stop-color="#ffdb80"></stop><stop offset="1" stop-color="#ffbb24"></stop></linearGradient><linearGradient gradientUnits="userSpaceOnUse" id="SVGID_8_" node-id="44" spreadMethod="pad" x1="422.5081" x2="422.5081" y1="116.0311" y2="173.4851"><stop offset="0" stop-color="#f9fafe"></stop><stop offset="1" stop-color="#e5edf7"></stop></linearGradient><linearGradient gradientUnits="userSpaceOnUse" id="SVGID_9_" node-id="49" spreadMethod="pad" x1="689.5295" x2="689.5295" y1="537.4117" y2="509.5835"><stop offset="0.2267" stop-color="#afb0e7"></stop><stop offset="1" stop-color="#ecf1fb"></stop></linearGradient><linearGradient gradientUnits="userSpaceOnUse" id="SVGID_10_" node-id="53" spreadMethod="pad" x1="689.5786" x2="689.5786" y1="513.0972" y2="557.893"><stop offset="0.00000009590021" stop-color="#dde1f6"></stop><stop offset="0.818" stop-color="#a6a8e2"></stop></linearGradient><linearGradient gradientUnits="userSpaceOnUse" id="SVGID_11_" node-id="58" spreadMethod="pad" x1="256.5206" x2="508.857" y1="292.1326" y2="544.4691"><stop offset="0" stop-color="#c8cbf2"></stop><stop offset="1" stop-color="#afb0e7"></stop></linearGradient><linearGradient gradientUnits="userSpaceOnUse" id="SVGID_12_" node-id="62" spreadMethod="pad" x1="253.4479" x2="499.3007" y1="297.3643" y2="543.2171"><stop offset="0.1157" stop-color="#dee4ff"></stop><stop offset="0.8472" stop-color="#bacbee"></stop></linearGradient><linearGradient gradientUnits="userSpaceOnUse" id="SVGID_13_" node-id="67" spreadMethod="pad" x1="332.9352" x2="427.8792" y1="368.7859" y2="463.7298"><stop offset="0" stop-color="#c8cbf2"></stop><stop offset="1" stop-color="#afb0e7"></stop></linearGradient><linearGradient gradientUnits="userSpaceOnUse" id="SVGID_14_" node-id="73" spreadMethod="pad" x1="442.6161" x2="639.3276" y1="283.4013" y2="480.1127"><stop offset="0" stop-color="#c8cbf2"></stop><stop offset="1" stop-color="#afb0e7"></stop></linearGradient><linearGradient gradientUnits="userSpaceOnUse" id="SVGID_15_" node-id="77" spreadMethod="pad" x1="441.2856" x2="632.3104" y1="286.154" y2="477.1789"><stop offset="0.1157" stop-color="#dee4ff"></stop><stop offset="1" stop-color="#bacbee"></stop></linearGradient><linearGradient gradientUnits="userSpaceOnUse" id="SVGID_16_" node-id="81" spreadMethod="pad" x1="252.0202" x2="252.0202" y1="644.9932" y2="581.5294"><stop offset="0" stop-color="#b0b9e1"></stop><stop offset="0.9392" stop-color="#eaf0f8"></stop></linearGradient><linearGradient gradientUnits="userSpaceOnUse" id="SVGID_17_" node-id="86" spreadMethod="pad" x1="228.7254" x2="228.7254" y1="443.2309" y2="366.5476"><stop offset="0" stop-color="#4f5c7c"></stop><stop offset="1" stop-color="#274168"></stop></linearGradient><linearGradient gradientUnits="userSpaceOnUse" id="SVGID_18_" node-id="90" spreadMethod="pad" x1="228.9377" x2="228.9377" y1="408.4733" y2="377.5169"><stop offset="0" stop-color="#f4b9a4"></stop><stop offset="0.652" stop-color="#fad1bb"></stop></linearGradient><linearGradient gradientUnits="userSpaceOnUse" id="SVGID_19_" node-id="94" spreadMethod="pad" x1="220.8842" x2="220.8842" y1="552.1852" y2="645.4188"><stop offset="0" stop-color="#f4b9a4"></stop><stop offset="0.652" stop-color="#fad1bb"></stop></linearGradient><linearGradient gradientUnits="userSpaceOnUse" id="SVGID_20_" node-id="98" spreadMethod="pad" x1="180.5795" x2="180.5795" y1="551.332" y2="606.0305"><stop offset="0" stop-color="#f4b9a4"></stop><stop offset="0.652" stop-color="#fad1bb"></stop></linearGradient><linearGradient gradientUnits="userSpaceOnUse" id="SVGID_21_" node-id="102" spreadMethod="pad" x1="198.9731" x2="198.9731" y1="487.6467" y2="461.2802"><stop offset="0" stop-color="#f4b9a4"></stop><stop offset="0.652" stop-color="#fad1bb"></stop></linearGradient><linearGradient gradientUnits="userSpaceOnUse" id="SVGID_22_" node-id="106" spreadMethod="pad" x1="214.9596" x2="214.9596" y1="570.7149" y2="408.8269"><stop offset="0" stop-color="#c3d5fd"></stop><stop offset="1" stop-color="#1a90fc"></stop></linearGradient><linearGradient gradientUnits="userSpaceOnUse" id="SVGID_23_" node-id="110" spreadMethod="pad" x1="208.3595" x2="208.3595" y1="468.1089" y2="365.7014"><stop offset="0" stop-color="#4f5c7c"></stop><stop offset="1" stop-color="#274168"></stop></linearGradient><linearGradient gradientUnits="userSpaceOnUse" id="SVGID_24_" node-id="114" spreadMethod="pad" x1="247.8982" x2="247.8982" y1="440.4345" y2="382.1462"><stop offset="0" stop-color="#f4b9a4"></stop><stop offset="0.652" stop-color="#fad1bb"></stop></linearGradient><linearGradient gradientUnits="userSpaceOnUse" id="SVGID_25_" node-id="118" spreadMethod="pad" x1="227.6565" x2="227.6565" y1="633.3452" y2="647.3315"><stop offset="0" stop-color="#ffdb80"></stop><stop offset="1" stop-color="#ffbb24"></stop></linearGradient><linearGradient gradientTransform="matrix(0.5823 0.813 -0.813 0.5823 -2451.3083 2744.0339)" gradientUnits="userSpaceOnUse" id="SVGID_26_" node-id="122" spreadMethod="pad" x1="-244.1843" x2="-225.4308" y1="-3362.1868" y2="-3348.7551"><stop offset="0" stop-color="#ffdb80"></stop><stop offset="1" stop-color="#ffbb24"></stop></linearGradient><linearGradient gradientUnits="userSpaceOnUse" id="SVGID_27_" node-id="126" spreadMethod="pad" x1="483.3765" x2="530.9006" y1="594.3152" y2="641.8393"><stop offset="0" stop-color="#c8cbf2"></stop><stop offset="1" stop-color="#afb0e7"></stop></linearGradient><linearGradient gradientUnits="userSpaceOnUse" id="SVGID_28_" node-id="130" spreadMethod="pad" x1="525.6151" x2="572.9288" y1="582.9417" y2="630.2555"><stop offset="0" stop-color="#c8cbf2"></stop><stop offset="1" stop-color="#afb0e7"></stop></linearGradient><linearGradient gradientUnits="userSpaceOnUse" id="SVGID_29_" node-id="134" spreadMethod="pad" x1="514.327" x2="535.2534" y1="573.3033" y2="594.2297"><stop offset="0" stop-color="#c8cbf2"></stop><stop offset="1" stop-color="#afb0e7"></stop></linearGradient><linearGradient gradientUnits="userSpaceOnUse" id="SVGID_30_" node-id="138" spreadMethod="pad" x1="500.0876" x2="556.7682" y1="577.6041" y2="634.2847"><stop offset="0.1157" stop-color="#dee4ff"></stop><stop offset="0.8472" stop-color="#bacbee"></stop></linearGradient></defs><g node-id="430"><g node-id="431"><path d="M 485.97 200.66 C 447.60 230.95 365.23 234.47 304.80 198.44 C 244.37 162.41 132.80 167.06 102.58 233.31 C 72.36 299.56 139.77 364.64 115.36 412.29 C 90.95 459.94 9.60 527.34 65.39 608.69 C 121.18 690.04 191.99 669.31 234.61 661.14 C 318.78 645.01 424.40 776.81 543.23 677.27 C 611.70 619.92 713.67 719.36 753.40 595.91 C 786.18 494.05 667.73 456.41 703.43 387.88 C 741.39 315.00 734.10 228.64 692.97 186.82 C 654.66 147.86 552.22 148.36 485.97 200.66 Z" fill="url(#SVGID_1_)" fill-rule="nonzero" group-id="1,2" node-id="340" stroke="none" target-height="628.95" target-width="776.58" target-x="9.6" target-y="147.86"></path><path d="M 429.74 375.50 L 689.03 375.50 L 609.08 510.31 L 464.20 575.15 L 328.15 551.83 Z" fill="url(#SVGID_2_)" fill-rule="nonzero" group-id="1,2" node-id="342" stroke="none" target-height="199.65002" target-width="360.88004" target-x="328.15" target-y="375.5"></path><g node-id="434"><path d="M 118.58 402.76 C 118.58 402.76 118.36 402.19 118.06 402.80 C 115.36 408.29 90.91 467.76 88.97 513.66 C 88.97 513.66 84.89 540.03 119.08 539.68 C 147.62 539.39 146.86 515.08 146.76 506.89 C 146.38 473.67 118.58 402.76 118.58 402.76 Z" fill="url(#SVGID_3_)" fill-rule="nonzero" group-id="1,2,5" node-id="346" stroke="none" target-height="137.84003" target-width="62.729996" target-x="84.89" target-y="402.19"></path><g node-id="439"><path d="M 117.80 568.88 C 117.25 568.88 116.80 568.43 116.80 567.88 L 116.80 418.75 C 116.80 418.20 117.25 417.75 117.80 417.75 C 118.35 417.75 118.80 418.20 118.80 418.75 L 118.80 567.88 C 118.80 568.44 118.35 568.88 117.80 568.88 Z" fill="url(#SVGID_4_)" fill-rule="nonzero" group-id="1,2,5,10" node-id="350" stroke="none" target-height="151.13" target-width="2" target-x="116.8" target-y="417.75"></path></g></g><g node-id="435"><path d="M 619.43 360.00 C 619.43 360.00 619.29 359.63 619.10 360.03 C 617.36 363.56 601.62 401.86 600.37 431.41 C 600.37 431.41 597.74 448.39 619.76 448.17 C 638.14 447.99 637.65 432.33 637.58 427.06 C 637.33 405.66 619.43 360.00 619.43 360.00 Z" fill="url(#SVGID_5_)" fill-rule="nonzero" group-id="1,2,6" node-id="356" stroke="none" target-height="88.76001" target-width="40.400024" target-x="597.74" target-y="359.63"></path><g node-id="440"><path d="M 618.93 466.97 C 618.57 466.97 618.29 466.68 618.29 466.33 L 618.29 370.30 C 618.29 369.94 618.58 369.66 618.93 369.66 C 619.29 369.66 619.57 369.95 619.57 370.30 L 619.57 466.32 C 619.57 466.68 619.28 466.97 618.93 466.97 Z" fill="url(#SVGID_6_)" fill-rule="nonzero" group-id="1,2,6,11" node-id="360" stroke="none" target-height="97.31" target-width="1.2800293" target-x="618.29" target-y="369.66"></path></g></g><path d="M 482.22 115.66 C 482.22 134.85 466.66 150.41 447.47 150.41 C 428.28 150.41 412.72 134.85 412.72 115.66 C 412.72 96.47 428.28 80.91 447.47 80.91 C 466.66 80.91 482.22 96.47 482.22 115.66 Z" fill="url(#SVGID_7_)" fill-rule="nonzero" group-id="1,2" node-id="364" stroke="none" target-height="69.5" target-width="69.5" target-x="412.72" target-y="80.91"></path><path d="M 467.24 134.61 L 432.67 134.61 C 430.44 124.00 421.02 116.03 409.74 116.03 C 398.46 116.03 389.05 124.00 386.81 134.61 L 377.76 134.61 C 367.03 134.61 358.32 143.31 358.32 154.05 L 358.32 154.05 C 358.32 164.78 367.02 173.49 377.76 173.49 L 467.23 173.49 C 477.96 173.49 486.67 164.79 486.67 154.05 L 486.67 154.05 C 486.68 143.32 477.98 134.61 467.24 134.61 Z" fill="url(#SVGID_8_)" fill-rule="nonzero" group-id="1,2" node-id="366" stroke="none" target-height="57.460007" target-width="128.35999" target-x="358.32" target-y="116.03"></path><path d="M 703.44 523.50 C 703.44 531.18 697.21 537.41 689.53 537.41 C 681.85 537.41 675.62 531.18 675.62 523.50 C 675.62 515.82 681.85 509.59 689.53 509.59 C 697.21 509.59 703.44 515.82 703.44 523.50 Z" fill="url(#SVGID_9_)" fill-rule="nonzero" group-id="1,2,7" node-id="370" stroke="none" target-height="27.819977" target-width="27.820007" target-x="675.62" target-y="509.59"></path><path d="M 689.58 557.89 C 689.34 557.89 689.15 557.70 689.15 557.46 L 689.15 513.52 C 689.15 513.28 689.34 513.09 689.58 513.09 C 689.82 513.09 690.01 513.28 690.01 513.52 L 690.01 557.46 C 690.01 557.70 689.82 557.89 689.58 557.89 Z" fill="url(#SVGID_10_)" fill-rule="nonzero" group-id="1,2,7" node-id="372" stroke="none" target-height="44.799988" target-width="0.85998535" target-x="689.15" target-y="513.09"></path></g><g node-id="432"><path d="M 561.12 418.30 C 561.12 516.84 481.23 596.73 382.69 596.73 C 284.15 596.73 204.26 516.84 204.26 418.30 C 204.26 319.76 284.15 239.87 382.69 239.87 C 481.23 239.87 561.12 319.76 561.12 418.30 Z" fill="url(#SVGID_11_)" fill-rule="nonzero" group-id="1,3" node-id="378" stroke="none" target-height="356.86" target-width="356.86" target-x="204.26" target-y="239.87"></path><path d="M 550.21 420.29 C 550.21 516.30 472.38 594.13 376.37 594.13 C 280.36 594.13 202.53 516.30 202.53 420.29 C 202.53 324.28 280.36 246.45 376.37 246.45 C 472.38 246.45 550.21 324.28 550.21 420.29 Z" fill="url(#SVGID_12_)" fill-rule="nonzero" group-id="1,3" node-id="380" stroke="none" target-height="347.68" target-width="347.68002" target-x="202.53" target-y="246.45"></path><g node-id="437"><path d="M 380.41 483.42 C 343.37 483.42 313.24 453.29 313.24 416.25 C 313.24 379.21 343.37 349.08 380.41 349.08 C 417.45 349.08 447.58 379.21 447.58 416.25 C 447.58 453.29 417.44 483.42 380.41 483.42 Z M 380.41 378.54 C 359.61 378.54 342.69 395.46 342.69 416.26 C 342.69 437.06 359.61 453.98 380.41 453.98 C 401.21 453.98 418.13 437.06 418.13 416.26 C 418.13 395.46 401.21 378.54 380.41 378.54 Z" fill="url(#SVGID_13_)" fill-rule="nonzero" group-id="1,3,8" node-id="384" stroke="none" target-height="134.34003" target-width="134.34" target-x="313.24" target-y="349.08"></path></g><g node-id="438"><path d="M 376.37 483.42 C 341.56 483.42 313.24 455.10 313.24 420.29 C 313.24 385.48 341.56 357.16 376.37 357.16 C 411.18 357.16 439.50 385.48 439.50 420.29 C 439.50 455.10 411.19 483.42 376.37 483.42 Z M 376.37 384.83 C 356.82 384.83 340.91 400.74 340.91 420.29 C 340.91 439.84 356.82 455.75 376.37 455.75 C 395.92 455.75 411.83 439.84 411.83 420.29 C 411.83 400.74 395.93 384.83 376.37 384.83 Z" fill="#ffffff" fill-rule="nonzero" group-id="1,3,9" node-id="389" stroke="none" target-height="126.26001" target-width="126.26001" target-x="313.24" target-y="357.16"></path></g><path d="M 651.16 313.46 C 634.82 285.08 591.49 233.97 490.46 237.90 C 484.93 238.11 482.58 244.82 486.81 248.27 C 517.57 273.36 581.61 341.19 586.39 440.51 C 563.05 429.99 526.15 434.40 506.17 450.64 C 486.18 466.88 475.99 491.43 488.86 513.39 C 501.74 535.34 554.39 556.84 599.87 519.24 C 642.92 483.64 628.09 376.80 573.47 305.66 C 570.17 301.36 574.07 295.35 579.50 296.39 C 604.01 301.07 624.24 313.58 641.37 323.92 C 648.07 328.78 655.28 320.71 651.16 313.46 Z" fill="url(#SVGID_14_)" fill-rule="nonzero" group-id="1,3" node-id="392" stroke="none" target-height="322.87003" target-width="179.29004" target-x="475.99" target-y="233.97"></path><path d="M 641.78 314.46 C 626.26 286.64 585.13 236.54 489.23 240.39 C 483.98 240.60 481.75 247.17 485.77 250.56 C 514.97 275.16 575.76 341.65 580.30 439.01 C 558.14 428.69 523.12 433.02 504.14 448.94 C 485.16 464.86 475.49 488.93 487.71 510.45 C 499.94 531.97 549.92 553.05 593.09 516.18 C 633.96 481.28 619.88 376.55 568.03 306.81 C 564.90 302.60 568.60 296.70 573.76 297.72 C 597.03 302.31 618.70 310.78 634.96 320.92 C 639.23 323.57 644.23 318.85 641.78 314.46 Z" fill="url(#SVGID_15_)" fill-rule="nonzero" group-id="1,3" node-id="394" stroke="none" target-height="316.51" target-width="168.73999" target-x="475.49" target-y="236.54"></path></g><path d="M 216.86 638.63 L 287.18 581.53 L 238.46 644.99 Z" fill="url(#SVGID_16_)" fill-rule="nonzero" group-id="1" node-id="397" stroke="none" target-height="63.45996" target-width="70.31999" target-x="216.86" target-y="581.53"></path><path d="M 221.50 366.63 C 221.50 366.63 231.91 365.32 235.45 373.15 C 238.99 380.98 232.22 384.27 232.22 384.27 L 235.71 399.53 C 235.71 399.53 241.82 402.81 240.26 417.16 C 238.69 431.51 223.23 443.23 223.23 443.23 L 216.96 376.94 L 221.50 366.63 Z" fill="url(#SVGID_17_)" fill-rule="nonzero" group-id="1,4" node-id="401" stroke="none" target-height="77.91" target-width="24.86" target-x="216.96" target-y="365.32"></path><path d="M 231.46 377.52 C 231.46 377.52 243.40 402.58 236.61 406.46 C 229.81 410.33 226.46 407.45 226.46 407.45 L 219.19 385.83 L 231.46 377.52 Z" fill="url(#SVGID_18_)" fill-rule="nonzero" group-id="1,4" node-id="403" stroke="none" target-height="32.809998" target-width="24.209991" target-x="219.19" target-y="377.52"></path><path d="M 227.80 560.09 C 227.80 560.09 225.23 631.65 225.49 634.19 C 225.75 636.73 233.33 643.21 233.33 643.21 L 228.77 645.42 L 219.51 637.72 C 219.51 637.72 206.02 560.39 208.83 554.01 C 211.64 547.62 227.80 560.09 227.80 560.09 Z" fill="url(#SVGID_19_)" fill-rule="nonzero" group-id="1,4" node-id="405" stroke="none" target-height="97.79999" target-width="27.309998" target-x="206.02" target-y="547.62"></path><path d="M 198.19 558.31 C 198.19 558.31 202.05 564.99 194.03 568.11 C 186.01 571.23 142.95 589.12 142.95 589.12 L 140.22 602.37 C 140.22 602.37 145.47 607.07 145.22 605.82 C 144.17 600.71 146.43 594.22 148.04 593.89 C 168.42 589.67 213.95 580.97 218.98 573.00 C 225.81 562.16 212.60 551.33 212.60 551.33 L 198.19 558.31 Z" fill="url(#SVGID_20_)" fill-rule="nonzero" group-id="1,4" node-id="407" stroke="none" target-height="55.73999" target-width="85.59" target-x="140.22" target-y="551.33"></path><path d="M 186.73 461.28 C 186.73 461.28 189.18 468.68 206.48 487.65 C 211.33 482.75 211.22 481.55 211.22 481.55 L 198.82 462.06 L 186.73 461.28 Z" fill="url(#SVGID_21_)" fill-rule="nonzero" group-id="1,4" node-id="409" stroke="none" target-height="26.369995" target-width="24.600006" target-x="186.73" target-y="461.28"></path><path d="M 206.21 410.95 C 206.21 410.95 194.19 429.65 206.66 455.70 C 210.67 463.05 210.74 471.21 203.84 483.83 C 196.51 497.23 197.75 510.96 197.09 523.42 C 196.42 535.89 193.97 555.93 184.18 556.37 C 189.08 564.16 208.89 573.29 235.76 570.03 C 233.39 565.28 238.52 532.51 237.92 514.55 C 237.33 496.59 235.13 490.71 237.92 473.29 C 240.34 458.21 240.36 451.62 240.36 451.62 C 240.36 451.62 251.34 442.57 241.99 428.91 C 232.63 415.26 220.90 403.98 206.21 410.95 Z" fill="url(#SVGID_22_)" fill-rule="nonzero" group-id="1,4" node-id="411" stroke="none" target-height="169.30997" target-width="67.16" target-x="184.18" target-y="403.98"></path><path d="M 233.97 373.55 C 233.97 373.55 234.85 381.12 226.84 389.14 C 235.09 402.94 235.97 416.45 225.21 423.58 C 214.45 430.70 211.08 420.02 211.08 420.02 C 211.08 420.02 205.08 432.04 208.95 438.43 C 212.83 444.81 217.33 459.80 217.45 465.89 C 206.69 470.79 188.56 468.56 183.56 449.86 C 182.56 444.37 182.20 439.64 183.84 434.02 C 185.48 428.40 186.14 428.06 184.36 421.72 C 182.58 415.37 179.81 403.85 191.94 390.94 C 191.56 377.88 199.94 368.53 214.83 370.31 C 218.96 364.05 232.74 363.31 233.97 373.55 Z" fill="url(#SVGID_23_)" fill-rule="nonzero" group-id="1,4" node-id="413" stroke="none" target-height="107.48001" target-width="56.160004" target-x="179.81" target-y="363.31"></path><path d="M 268.66 384.92 C 268.66 384.92 261.90 387.65 261.10 391.27 C 260.94 392.01 260.78 396.38 260.04 399.74 C 258.24 407.92 255.51 420.90 254.85 423.98 C 253.93 428.33 250.88 428.13 247.87 427.95 C 243.98 427.72 233.02 425.32 224.68 427.91 C 217.85 430.06 218.27 441.39 230.85 440.37 C 240.51 439.58 262.62 440.20 263.46 431.59 C 264.30 422.98 265.51 400.99 265.51 400.99 C 265.51 400.99 269.75 395.67 269.39 394.20 C 269.03 392.72 270.45 392.68 270.31 391.57 C 270.17 390.46 270.72 390.07 270.16 389.07 C 268.93 386.84 276.63 383.61 275.36 382.25 C 274.73 381.55 268.66 384.92 268.66 384.92 Z" fill="url(#SVGID_24_)" fill-rule="nonzero" group-id="1,4" node-id="415" stroke="none" target-height="59.840027" target-width="58.78" target-x="217.85" target-y="381.55"></path><path d="M 218.53 633.38 C 218.53 633.38 216.71 636.16 216.86 638.64 C 217.08 639.70 217.99 639.68 218.26 641.42 C 218.53 643.15 218.60 647.34 218.60 647.34 L 219.51 647.34 C 219.51 647.34 219.51 642.63 219.58 642.04 C 219.65 641.45 220.08 640.48 221.21 641.30 C 222.34 642.12 224.94 644.53 225.70 645.47 C 226.46 646.41 227.72 647.42 230.28 647.20 C 232.84 646.98 238.71 646.04 238.47 645.00 C 238.23 643.96 234.82 642.53 232.90 642.42 C 232.10 642.82 229.71 643.96 227.49 642.12 C 225.27 640.28 220.01 634.79 219.66 634.35 C 219.30 633.90 218.64 633.19 218.53 633.38 Z" fill="url(#SVGID_25_)" fill-rule="nonzero" group-id="1,4" node-id="417" stroke="none" target-height="14.22998" target-width="22" target-x="216.71" target-y="633.19"></path><path d="M 144.37 587.78 C 144.37 587.78 141.05 587.92 139.12 589.48 C 138.39 590.27 138.93 591.00 137.68 592.23 C 136.43 593.46 133.06 595.95 133.06 595.95 L 133.59 596.69 C 133.59 596.69 137.42 593.95 137.94 593.66 C 138.46 593.37 139.51 593.16 139.49 594.56 C 139.47 595.96 139.04 599.48 138.71 600.64 C 138.38 601.80 138.30 603.42 139.97 605.37 C 141.64 607.32 145.82 611.55 146.53 610.75 C 147.24 609.95 146.41 606.34 145.39 604.72 C 144.60 604.31 142.28 603.02 142.48 600.15 C 142.68 597.27 144.09 589.80 144.24 589.26 C 144.39 588.72 144.59 587.76 144.37 587.78 Z" fill="url(#SVGID_26_)" fill-rule="nonzero" group-id="1,4" node-id="419" stroke="none" target-height="23.789978" target-width="14.180008" target-x="133.06" target-y="587.76"></path><path d="M 498.78 583.82 L 494.25 583.43 L 494.25 595.64 C 494.25 596.24 494.49 596.81 494.91 597.23 L 514.90 617.22 L 499.77 627.32 L 499.77 638.16 C 499.77 639.18 500.45 640.08 501.45 640.33 C 506.81 641.71 523.95 645.04 537.26 635.43 C 537.86 635.00 538.19 634.28 538.16 633.54 C 537.84 624.31 537.56 620.11 537.56 620.11 L 503.30 589.55 L 498.78 583.82 Z" fill="url(#SVGID_27_)" fill-rule="nonzero" group-id="1" node-id="422" stroke="none" target-height="61.609985" target-width="43.940002" target-x="494.25" target-y="583.43"></path><path d="M 518.44 605.41 L 551.96 593.81 L 564.55 605.68 L 543.95 612.64 L 543.95 624.19 C 543.95 626.07 545.31 627.67 547.17 627.95 C 553.98 628.99 569.97 630.53 579.08 624.02 C 580.11 623.29 580.73 622.11 580.71 620.85 C 580.65 614.04 580.26 607.94 580.26 607.94 L 551.95 583.76 L 511.37 597.18 L 518.44 605.41 Z" fill="url(#SVGID_28_)" fill-rule="nonzero" group-id="1" node-id="424" stroke="none" target-height="46.77002" target-width="69.359985" target-x="511.37" target-y="583.76"></path><path d="M 508.34 593.93 L 540.86 584.59 L 545.22 583.44 L 548.81 580.67 L 540.69 573.11 L 500.77 586.86 Z" fill="url(#SVGID_29_)" fill-rule="nonzero" group-id="1" node-id="426" stroke="none" target-height="20.820007" target-width="48.04001" target-x="500.77" target-y="573.11"></path><path d="M 578.85 605.30 C 577.06 603.66 539.87 570.07 539.87 570.07 L 494.26 583.43 L 525.84 615.29 C 525.84 615.29 520.37 614.68 513.36 616.34 C 506.35 618.00 499.28 622.75 499.78 627.33 C 500.28 631.91 511.71 635.06 524.96 631.75 C 538.21 628.44 538.10 620.49 537.05 619.27 C 536.40 618.52 523.89 606.60 514.47 597.65 L 552.23 586.04 C 558.57 591.96 566.15 598.92 570.13 602.09 C 566.76 601.98 560.08 602.48 554.73 603.53 C 549.37 604.58 541.48 609.05 544.68 614.08 C 547.88 619.10 558.32 620.04 570.24 616.68 C 582.16 613.31 581.31 607.56 578.85 605.30 Z M 508.43 591.92 C 505.80 589.42 504.09 587.80 504.09 587.80 L 541.69 576.09 C 541.69 576.09 543.53 577.85 546.30 580.47 L 508.43 591.92 Z" fill="url(#SVGID_30_)" fill-rule="nonzero" group-id="1" node-id="428" stroke="none" target-height="64.98999" target-width="87.89996" target-x="494.26" target-y="570.07"></path></g></svg>