<svg height="1024" node-id="1" sillyvg="true" template-height="1024" template-width="1024" version="1.1" viewBox="0 0 1024 1024" width="1024" xmlns="http://www.w3.org/2000/svg" xmlns:xlink="http://www.w3.org/1999/xlink"><defs node-id="58"><mask height="1.2" id="mask-2" node-id="12" width="1.2" x="-0.1" y="-0.1"><path d="M 1024.00 512.00 C 1024.00 647.79 970.06 778.02 874.04 874.04 C 778.02 970.06 647.79 1024.00 512.00 1024.00 C 376.21 1024.00 245.98 970.06 149.96 874.04 C 53.94 778.02 0.00 647.79 0.00 512.00 C 0.00 376.21 53.94 245.98 149.96 149.96 C 245.98 53.94 376.21 0.00 512.00 0.00 C 647.79 -0.00 778.02 53.94 874.04 149.96 C 970.06 245.98 1024.00 376.21 1024.00 512.00 Z" fill="#ffffff" fill-rule="evenodd" node-id="63" stroke="none" target-height="1024" target-width="1024" target-x="0" target-y="0"></path></mask><mask height="1.2" id="mask-4" node-id="19" width="1.2" x="-0.1" y="-0.1"><path d="M 0.00 0.00 L 111.00 0.00 L 111.00 120.00 L 0.00 120.00 Z" fill="#ffffff" fill-rule="evenodd" node-id="70" stroke="none" target-height="120" target-width="111" target-x="0" target-y="0"></path></mask><mask height="1.2" id="mask-6" node-id="25" width="1.2" x="-0.1" y="-0.1"><path d="M 328.50 18.93 C 352.46 18.93 373.31 11.31 384.13 0.05 C 429.58 8.09 492.17 24.08 571.88 48.01 C 611.73 59.98 640.00 95.35 642.89 136.85 L 657.05 340.51 L 0.00 346.50 L 16.32 135.95 C 19.50 94.90 47.52 59.99 86.92 48.01 C 165.73 24.04 227.70 8.03 272.83 -0.00 C 283.63 11.28 304.51 18.93 328.50 18.93 Z" fill="#ffffff" fill-rule="evenodd" node-id="77" stroke="none" target-height="346.5" target-width="657.05" target-x="0" target-y="-0"></path></mask><mask height="1.2" id="mask-8" node-id="32" width="1.2" x="-0.1" y="-0.1"><path d="M 654.00 437.00 L 653.77 448.08 L 653.15 458.90 L 652.12 469.47 L 650.72 479.80 L 648.93 489.90 L 646.11 502.55 L 642.78 514.67 L 638.94 526.29 L 634.61 537.44 L 630.68 546.29 L 626.49 554.73 L 622.05 562.77 L 617.35 570.43 L 612.41 577.71 L 607.04 584.86 L 601.48 591.53 L 595.73 597.74 L 589.80 603.50 L 583.67 608.83 L 577.16 613.86 L 570.53 618.37 L 563.75 622.37 L 556.83 625.87 L 549.75 628.89 L 542.45 631.43 L 535.05 633.40 L 527.52 634.82 L 519.84 635.69 L 512.00 636.00 L 504.16 635.69 L 496.48 634.82 L 488.95 633.40 L 481.55 631.43 L 474.25 628.89 L 467.17 625.87 L 460.25 622.37 L 453.47 618.37 L 446.84 613.86 L 440.33 608.83 L 434.20 603.50 L 428.27 597.74 L 422.52 591.53 L 416.96 584.86 L 411.59 577.71 L 406.65 570.43 L 401.95 562.77 L 397.51 554.73 L 393.32 546.29 L 389.39 537.44 L 385.06 526.29 L 381.22 514.67 L 377.89 502.55 L 375.07 489.90 L 373.28 479.80 L 371.88 469.47 L 370.85 458.90 L 370.23 448.08 L 370.00 437.00 L 370.23 425.92 L 370.85 415.10 L 371.88 404.53 L 373.28 394.20 L 375.07 384.10 L 377.89 371.45 L 381.22 359.33 L 385.06 347.71 L 389.39 336.56 L 393.32 327.71 L 397.51 319.27 L 401.95 311.23 L 406.65 303.57 L 411.59 296.29 L 416.96 289.14 L 422.52 282.47 L 428.27 276.26 L 434.20 270.50 L 440.33 265.17 L 446.84 260.14 L 453.47 255.63 L 460.25 251.63 L 467.17 248.13 L 474.25 245.11 L 481.55 242.57 L 488.95 240.60 L 496.48 239.18 L 504.16 238.31 L 512.00 238.00 L 519.84 238.31 L 527.52 239.18 L 535.05 240.60 L 542.45 242.57 L 549.75 245.11 L 556.83 248.13 L 563.75 251.63 L 570.53 255.63 L 577.16 260.14 L 583.67 265.17 L 589.80 270.50 L 595.73 276.26 L 601.48 282.47 L 607.04 289.14 L 612.41 296.29 L 617.35 303.57 L 622.05 311.23 L 626.49 319.27 L 630.68 327.71 L 634.61 336.56 L 638.94 347.71 L 642.78 359.33 L 646.11 371.45 L 648.93 384.10 L 650.72 394.20 L 652.12 404.53 L 653.15 415.10 L 653.77 425.92 L 654.00 437.00 Z" fill="#ffffff" fill-rule="evenodd" node-id="84" stroke="none" target-height="398" target-width="284" target-x="370" target-y="238"></path></mask><mask height="1.2" id="mask-2_5" node-id="12" width="1.2" x="-0.1" y="-0.1"><path d="M 382.73 701.95 L 391.85 715.50 L 401.32 728.67 L 411.17 741.49 L 421.38 753.95 L 431.97 766.06 L 442.95 777.85 L 454.25 789.25 L 465.88 800.26 L 477.83 810.89 L 490.11 821.15 L 502.71 831.02 L 515.59 840.48 L 528.75 849.52 L 542.19 858.15 L 555.93 866.38 L 569.90 874.17 L 584.11 881.52 L 598.56 888.42 L 613.25 894.89 L 628.19 900.92 L 643.29 906.46 L 658.58 911.53 L 674.07 916.13 L 689.77 920.26 L 705.68 923.91 L 721.71 927.04 L 737.72 929.66 L 753.74 931.76 L 769.78 933.35 L 785.83 934.42 L 801.93 934.99 L 817.98 935.06 L 833.99 934.63 L 849.95 933.70 L 865.89 932.27 L 881.79 930.34 L 897.58 927.92 L 913.28 925.01 L 928.89 921.61 L 944.42 917.71 L 959.81 913.34 L 975.05 908.49 L 990.15 903.15 L 1005.11 897.34 L 1019.94 891.03 L 1034.54 884.28 L 1048.93 877.05 L 1063.14 869.35 L 1077.15 861.16 L 1090.99 852.50 L 1104.54 843.38 L 1117.71 833.91 L 1130.53 824.06 L 1142.98 813.85 L 1155.09 803.26 L 1166.89 792.28 L 1178.28 780.98 L 1189.30 769.35 L 1199.93 757.40 L 1210.18 745.12 L 1220.06 732.52 L 1229.51 719.64 L 1238.56 706.48 L 1247.19 693.04 L 1255.42 679.31 L 1263.21 665.33 L 1270.56 651.12 L 1277.46 636.67 L 1283.93 621.98 L 1289.95 607.04 L 1295.50 591.94 L 1300.57 576.65 L 1305.17 561.16 L 1309.29 545.46 L 1312.95 529.55 L 1316.08 513.52 L 1318.70 497.51 L 1320.80 481.49 L 1322.38 465.45 L 1323.46 449.40 L 1324.03 433.30 L 1324.10 417.25 L 1323.67 401.24 L 1322.74 385.28 L 1321.30 369.34 L 1319.37 353.44 L 1316.95 337.65 L 1314.04 321.95 L 1310.64 306.34 L 1306.75 290.81 L 1302.38 275.42 L 1297.52 260.18 L 1292.19 245.08 L 1286.38 230.12 L 1280.07 215.29 L 1273.31 200.69 L 1266.09 186.30 L 1258.38 172.09 L 1250.20 158.08 L 1241.53 144.24 L 1232.42 130.69 L 1222.94 117.52 L 1213.10 104.70 L 1202.89 92.25 L 1192.30 80.14 L 1181.32 68.35 L 1170.02 56.95 L 1158.39 45.93 L 1146.44 35.30 L 1134.16 25.05 L 1121.56 15.17 L 1108.68 5.72 L 1095.52 -3.33 L 1082.08 -11.96 L 1068.34 -20.19 L 1054.37 -27.98 L 1040.16 -35.33 L 1025.71 -42.23 L 1011.02 -48.70 L 996.08 -54.72 L 980.98 -60.27 L 965.68 -65.34 L 950.19 -69.94 L 934.50 -74.06 L 918.58 -77.72 L 902.56 -80.85 L 886.54 -83.47 L 870.52 -85.57 L 854.49 -87.15 L 838.44 -88.23 L 822.34 -88.80 L 806.29 -88.87 L 790.28 -88.44 L 774.31 -87.51 L 758.38 -86.07 L 742.48 -84.14 L 726.69 -81.72 L 710.99 -78.81 L 695.38 -75.41 L 679.85 -71.52 L 664.46 -67.15 L 649.22 -62.29 L 634.12 -56.96 L 619.16 -51.14 L 604.33 -44.84 L 589.73 -38.08 L 575.33 -30.86 L 561.13 -23.15 L 547.11 -14.97 L 533.28 -6.30 L 519.73 2.81 L 506.56 12.29 L 493.74 22.13 L 481.28 32.34 L 469.17 42.93 L 457.38 53.91 L 445.98 65.21 L 434.97 76.84 L 424.34 88.79 L 414.08 101.07 L 404.21 113.68 L 394.75 126.55 L 385.71 139.71 L 377.08 153.15 L 368.85 166.89 L 361.06 180.86 L 353.71 195.07 L 346.81 209.52 L 340.34 224.21 L 334.31 239.15 L 328.77 254.25 L 323.70 269.55 L 319.10 285.04 L 314.97 300.73 L 311.32 316.65 L 308.19 332.67 L 305.57 348.69 L 303.47 364.71 L 301.88 380.74 L 300.81 396.79 L 300.24 412.89 L 300.17 428.94 L 300.60 444.95 L 301.53 460.92 L 302.96 476.85 L 304.89 492.75 L 307.31 508.54 L 310.22 524.24 L 313.62 539.85 L 317.52 555.38 L 321.89 570.77 L 326.74 586.01 L 332.08 601.11 L 337.89 616.07 L 344.20 630.90 L 350.95 645.50 L 358.18 659.90 L 365.88 674.10 L 374.07 688.12 L 382.73 701.95 Z" fill="#ffffff" fill-rule="evenodd" node-id="63" stroke="none" target-height="1023.93" target-width="1023.92993" target-x="300.17" target-y="-88.87"></path></mask><mask height="1.2" id="mask-2_6" node-id="12" width="1.2" x="-0.1" y="-0.1"><path d="M 828.60 811.27 L 819.49 824.82 L 810.01 838.00 L 800.16 850.81 L 789.95 863.27 L 779.36 875.38 L 768.38 887.17 L 757.08 898.57 L 745.46 909.58 L 733.51 920.21 L 721.22 930.47 L 708.62 940.34 L 695.74 949.80 L 682.58 958.84 L 669.14 967.47 L 655.41 975.70 L 641.43 983.49 L 627.22 990.84 L 612.78 997.75 L 598.08 1004.21 L 583.14 1010.24 L 568.04 1015.78 L 552.75 1020.85 L 537.26 1025.45 L 521.56 1029.58 L 505.65 1033.23 L 489.63 1036.36 L 473.61 1038.98 L 457.59 1041.08 L 441.56 1042.67 L 425.51 1043.74 L 409.40 1044.32 L 393.35 1044.39 L 377.35 1043.95 L 361.38 1043.02 L 345.44 1041.59 L 329.55 1039.66 L 313.75 1037.24 L 298.06 1034.33 L 282.45 1030.93 L 266.92 1027.03 L 251.52 1022.66 L 236.28 1017.81 L 221.18 1012.48 L 206.22 1006.66 L 191.40 1000.35 L 176.80 993.60 L 162.40 986.37 L 148.19 978.67 L 134.18 970.49 L 120.34 961.82 L 106.80 952.70 L 93.62 943.23 L 80.81 933.38 L 68.35 923.17 L 56.24 912.58 L 44.45 901.60 L 33.05 890.30 L 22.04 878.68 L 11.40 866.73 L 1.15 854.44 L -8.73 841.84 L -18.18 828.96 L -27.22 815.80 L -35.86 802.36 L -44.09 788.63 L -51.88 774.65 L -59.22 760.44 L -66.13 745.99 L -72.59 731.30 L -78.62 716.36 L -84.17 701.26 L -89.24 685.97 L -93.84 670.48 L -97.96 654.78 L -101.61 638.87 L -104.75 622.85 L -107.36 606.83 L -109.46 590.81 L -111.05 574.78 L -112.13 558.73 L -112.70 542.62 L -112.77 526.57 L -112.34 510.57 L -111.40 494.60 L -109.97 478.66 L -108.04 462.77 L -105.62 446.97 L -102.71 431.28 L -99.31 415.67 L -95.42 400.13 L -91.04 384.74 L -86.19 369.50 L -80.86 354.40 L -75.04 339.44 L -68.74 324.61 L -61.98 310.02 L -54.75 295.62 L -47.05 281.41 L -38.87 267.40 L -30.20 253.56 L -21.09 240.02 L -11.61 226.84 L -1.77 214.03 L 8.45 201.57 L 19.03 189.46 L 30.02 177.67 L 41.32 166.27 L 52.94 155.26 L 64.89 144.62 L 77.17 134.37 L 89.78 124.49 L 102.66 115.04 L 115.81 106.00 L 129.26 97.36 L 142.99 89.13 L 156.97 81.34 L 171.18 73.99 L 185.62 67.09 L 200.31 60.63 L 215.26 54.60 L 230.36 49.05 L 245.65 43.98 L 261.14 39.38 L 276.84 35.26 L 292.75 31.61 L 308.77 28.47 L 324.79 25.85 L 340.81 23.75 L 356.84 22.17 L 372.89 21.09 L 388.99 20.52 L 405.05 20.45 L 421.05 20.88 L 437.02 21.81 L 452.96 23.25 L 468.85 25.18 L 484.64 27.60 L 500.34 30.51 L 515.95 33.91 L 531.48 37.80 L 546.87 42.17 L 562.12 47.03 L 577.21 52.36 L 592.17 58.18 L 607.00 64.48 L 621.60 71.24 L 636.00 78.46 L 650.20 86.17 L 664.22 94.35 L 678.05 103.02 L 691.60 112.13 L 704.78 121.61 L 717.59 131.45 L 730.05 141.67 L 742.16 152.25 L 753.95 163.24 L 765.35 174.54 L 776.36 186.16 L 786.99 198.11 L 797.25 210.39 L 807.12 223.00 L 816.58 235.87 L 825.62 249.03 L 834.26 262.47 L 842.48 276.21 L 850.28 290.19 L 857.62 304.39 L 864.53 318.84 L 870.99 333.53 L 877.02 348.48 L 882.56 363.58 L 887.63 378.87 L 892.23 394.36 L 896.36 410.05 L 900.01 425.97 L 903.15 441.99 L 905.76 458.01 L 907.86 474.03 L 909.45 490.06 L 910.52 506.11 L 911.10 522.21 L 911.17 538.26 L 910.73 554.27 L 909.80 570.24 L 908.37 586.18 L 906.44 602.07 L 904.02 617.86 L 901.11 633.56 L 897.71 649.17 L 893.82 664.70 L 889.44 680.09 L 884.59 695.33 L 879.26 710.43 L 873.44 725.39 L 867.13 740.22 L 860.38 754.82 L 853.15 769.22 L 845.45 783.42 L 837.27 797.44 L 828.60 811.27 Z" fill="#ffffff" fill-rule="evenodd" node-id="63" stroke="none" target-height="1023.94" target-width="1023.94" target-x="-112.77" target-y="20.45"></path></mask><mask height="1.2" id="mask-2_7" node-id="12" width="1.2" x="-0.1" y="-0.1"><path d="M 2395.00 2366.00 L 2394.74 2382.32 L 2393.96 2398.54 L 2392.69 2414.64 L 2390.91 2430.66 L 2388.62 2446.58 L 2385.83 2462.45 L 2382.56 2478.16 L 2378.81 2493.73 L 2374.58 2509.15 L 2369.87 2524.45 L 2364.67 2539.59 L 2359.02 2554.54 L 2352.91 2569.28 L 2346.34 2583.85 L 2339.31 2598.23 L 2331.83 2612.38 L 2323.91 2626.28 L 2315.56 2639.93 L 2306.76 2653.36 L 2297.51 2666.55 L 2287.86 2679.43 L 2277.80 2692.01 L 2267.31 2704.30 L 2256.39 2716.31 L 2245.04 2728.04 L 2233.31 2739.39 L 2221.30 2750.31 L 2209.01 2760.80 L 2196.43 2770.86 L 2183.55 2780.51 L 2170.36 2789.76 L 2156.93 2798.56 L 2143.28 2806.91 L 2129.38 2814.83 L 2115.23 2822.31 L 2100.85 2829.34 L 2086.28 2835.91 L 2071.54 2842.02 L 2056.59 2847.67 L 2041.45 2852.87 L 2026.15 2857.58 L 2010.73 2861.81 L 1995.16 2865.56 L 1979.45 2868.83 L 1963.58 2871.62 L 1947.65 2873.91 L 1931.64 2875.69 L 1915.54 2876.96 L 1899.32 2877.74 L 1883.00 2878.00 L 1866.68 2877.74 L 1850.46 2876.96 L 1834.36 2875.69 L 1818.35 2873.91 L 1802.42 2871.62 L 1786.55 2868.83 L 1770.84 2865.56 L 1755.27 2861.81 L 1739.85 2857.58 L 1724.55 2852.87 L 1709.41 2847.67 L 1694.46 2842.02 L 1679.72 2835.91 L 1665.15 2829.34 L 1650.77 2822.31 L 1636.62 2814.83 L 1622.72 2806.91 L 1609.07 2798.56 L 1595.64 2789.76 L 1582.45 2780.51 L 1569.57 2770.86 L 1556.99 2760.80 L 1544.70 2750.31 L 1532.69 2739.39 L 1520.96 2728.04 L 1509.61 2716.31 L 1498.69 2704.30 L 1488.20 2692.01 L 1478.14 2679.43 L 1468.49 2666.55 L 1459.24 2653.36 L 1450.44 2639.93 L 1442.09 2626.28 L 1434.17 2612.38 L 1426.69 2598.23 L 1419.66 2583.85 L 1413.09 2569.29 L 1406.98 2554.54 L 1401.33 2539.59 L 1396.13 2524.45 L 1391.42 2509.15 L 1387.19 2493.73 L 1383.44 2478.16 L 1380.17 2462.45 L 1377.38 2446.58 L 1375.09 2430.66 L 1373.31 2414.64 L 1372.04 2398.54 L 1371.26 2382.32 L 1371.00 2366.00 L 1371.26 2349.68 L 1372.04 2333.46 L 1373.31 2317.36 L 1375.09 2301.34 L 1377.38 2285.42 L 1380.17 2269.55 L 1383.44 2253.84 L 1387.19 2238.27 L 1391.42 2222.85 L 1396.13 2207.55 L 1401.33 2192.41 L 1406.98 2177.46 L 1413.09 2162.72 L 1419.66 2148.15 L 1426.69 2133.77 L 1434.17 2119.62 L 1442.09 2105.72 L 1450.44 2092.07 L 1459.24 2078.64 L 1468.49 2065.45 L 1478.14 2052.57 L 1488.20 2039.99 L 1498.69 2027.70 L 1509.61 2015.69 L 1520.96 2003.96 L 1532.69 1992.61 L 1544.70 1981.69 L 1556.99 1971.20 L 1569.57 1961.14 L 1582.45 1951.49 L 1595.64 1942.24 L 1609.07 1933.44 L 1622.72 1925.09 L 1636.62 1917.17 L 1650.77 1909.69 L 1665.15 1902.66 L 1679.72 1896.09 L 1694.46 1889.98 L 1709.41 1884.33 L 1724.55 1879.13 L 1739.85 1874.42 L 1755.27 1870.19 L 1770.84 1866.44 L 1786.55 1863.17 L 1802.42 1860.38 L 1818.35 1858.09 L 1834.36 1856.31 L 1850.46 1855.04 L 1866.68 1854.26 L 1883.00 1854.00 L 1899.32 1854.26 L 1915.54 1855.04 L 1931.64 1856.31 L 1947.65 1858.09 L 1963.58 1860.38 L 1979.45 1863.17 L 1995.16 1866.44 L 2010.73 1870.19 L 2026.15 1874.42 L 2041.45 1879.13 L 2056.59 1884.33 L 2071.54 1889.98 L 2086.28 1896.09 L 2100.85 1902.66 L 2115.23 1909.69 L 2129.38 1917.17 L 2143.28 1925.09 L 2156.93 1933.44 L 2170.36 1942.24 L 2183.55 1951.49 L 2196.43 1961.14 L 2209.01 1971.20 L 2221.30 1981.69 L 2233.31 1992.61 L 2245.04 2003.96 L 2256.39 2015.69 L 2267.31 2027.70 L 2277.80 2039.99 L 2287.86 2052.57 L 2297.51 2065.45 L 2306.76 2078.64 L 2315.56 2092.07 L 2323.91 2105.72 L 2331.83 2119.62 L 2339.31 2133.77 L 2346.34 2148.15 L 2352.91 2162.72 L 2359.02 2177.46 L 2364.67 2192.41 L 2369.87 2207.55 L 2374.58 2222.85 L 2378.81 2238.27 L 2382.56 2253.84 L 2385.83 2269.55 L 2388.62 2285.42 L 2390.91 2301.34 L 2392.69 2317.36 L 2393.96 2333.46 L 2394.74 2349.68 L 2395.00 2366.00 Z" fill="#ffffff" fill-rule="evenodd" node-id="63" stroke="none" target-height="1024" target-width="1024" target-x="1371" target-y="1854"></path></mask><mask height="1.2" id="mask-2_8" node-id="12" width="1.2" x="-0.1" y="-0.1"><path d="M -460.20 4052.35 L -459.94 4068.67 L -459.17 4084.88 L -457.89 4100.99 L -456.11 4117.00 L -453.82 4132.93 L -451.04 4148.80 L -447.77 4164.51 L -444.02 4180.08 L -439.78 4195.50 L -435.07 4210.79 L -429.88 4225.94 L -424.23 4240.88 L -418.12 4255.63 L -411.54 4270.19 L -404.51 4284.58 L -397.03 4298.72 L -389.11 4312.62 L -380.76 4326.28 L -371.96 4339.70 L -362.71 4352.90 L -353.06 4365.77 L -343.00 4378.35 L -332.51 4390.65 L -321.60 4402.66 L -310.24 4414.39 L -298.51 4425.74 L -286.50 4436.66 L -274.21 4447.15 L -261.63 4457.21 L -248.75 4466.85 L -235.56 4476.10 L -222.14 4484.90 L -208.48 4493.26 L -194.58 4501.17 L -180.43 4508.65 L -166.05 4515.69 L -151.49 4522.26 L -136.74 4528.37 L -121.79 4534.02 L -106.65 4539.22 L -91.36 4543.93 L -75.93 4548.16 L -60.36 4551.91 L -44.65 4555.18 L -28.78 4557.97 L -12.86 4560.25 L 3.15 4562.03 L 19.26 4563.31 L 35.47 4564.08 L 51.80 4564.35 L 68.12 4564.08 L 84.33 4563.31 L 100.44 4562.03 L 116.45 4560.25 L 132.38 4557.97 L 148.25 4555.18 L 163.96 4551.91 L 179.53 4548.16 L 194.95 4543.93 L 210.24 4539.22 L 225.39 4534.02 L 240.33 4528.37 L 255.08 4522.26 L 269.65 4515.69 L 284.03 4508.65 L 298.17 4501.17 L 312.07 4493.26 L 325.73 4484.90 L 339.16 4476.10 L 352.35 4466.85 L 365.22 4457.21 L 377.81 4447.15 L 390.10 4436.66 L 402.11 4425.74 L 413.84 4414.39 L 425.19 4402.66 L 436.11 4390.65 L 446.60 4378.35 L 456.66 4365.77 L 466.30 4352.90 L 475.55 4339.70 L 484.35 4326.28 L 492.71 4312.62 L 500.62 4298.72 L 508.10 4284.58 L 515.14 4270.19 L 521.71 4255.63 L 527.82 4240.88 L 533.47 4225.94 L 538.67 4210.79 L 543.38 4195.50 L 547.61 4180.08 L 551.36 4164.51 L 554.63 4148.80 L 557.42 4132.93 L 559.70 4117.00 L 561.49 4100.99 L 562.76 4084.88 L 563.53 4068.67 L 563.80 4052.35 L 563.53 4036.02 L 562.76 4019.81 L 561.49 4003.70 L 559.70 3987.69 L 557.42 3971.77 L 554.63 3955.90 L 551.36 3940.18 L 547.61 3924.62 L 543.38 3909.19 L 538.67 3893.90 L 533.47 3878.76 L 527.82 3863.81 L 521.71 3849.06 L 515.14 3834.50 L 508.10 3820.12 L 500.62 3805.97 L 492.71 3792.07 L 484.35 3778.41 L 475.55 3764.99 L 466.30 3751.80 L 456.66 3738.92 L 446.60 3726.34 L 436.11 3714.05 L 425.19 3702.04 L 413.84 3690.31 L 402.11 3678.95 L 390.10 3668.03 L 377.81 3657.55 L 365.22 3647.49 L 352.35 3637.84 L 339.16 3628.59 L 325.73 3619.79 L 312.07 3611.44 L 298.17 3603.52 L 284.03 3596.04 L 269.65 3589.01 L 255.08 3582.43 L 240.33 3576.32 L 225.39 3570.67 L 210.24 3565.48 L 194.95 3560.77 L 179.53 3556.53 L 163.96 3552.78 L 148.25 3549.51 L 132.38 3546.73 L 116.45 3544.44 L 100.44 3542.66 L 84.33 3541.38 L 68.12 3540.61 L 51.80 3540.35 L 35.47 3540.61 L 19.26 3541.38 L 3.15 3542.66 L -12.86 3544.44 L -28.78 3546.73 L -44.65 3549.51 L -60.36 3552.78 L -75.93 3556.53 L -91.36 3560.77 L -106.65 3565.48 L -121.79 3570.67 L -136.74 3576.32 L -151.49 3582.43 L -166.05 3589.01 L -180.43 3596.04 L -194.58 3603.52 L -208.48 3611.44 L -222.14 3619.79 L -235.56 3628.59 L -248.75 3637.84 L -261.63 3647.49 L -274.21 3657.55 L -286.50 3668.03 L -298.51 3678.95 L -310.24 3690.31 L -321.60 3702.04 L -332.51 3714.05 L -343.00 3726.34 L -353.06 3738.92 L -362.71 3751.80 L -371.96 3764.99 L -380.76 3778.41 L -389.11 3792.07 L -397.03 3805.97 L -404.51 3820.12 L -411.54 3834.50 L -418.12 3849.06 L -424.23 3863.81 L -429.88 3878.76 L -435.07 3893.90 L -439.78 3909.19 L -444.02 3924.62 L -447.77 3940.18 L -451.04 3955.90 L -453.82 3971.77 L -456.11 3987.69 L -457.89 4003.70 L -459.17 4019.81 L -459.94 4036.02 L -460.20 4052.35 Z" fill="#ffffff" fill-rule="evenodd" node-id="63" stroke="none" target-height="1024" target-width="1024" target-x="-460.2" target-y="3540.35"></path></mask></defs><path d="M 0.00 0.00 L 1024.00 0.00 L 1024.00 1024.00 L 0.00 1024.00 Z" fill="#ffffff" fill-rule="evenodd" hidden="true" node-id="90" stroke="none" target-height="1024" target-width="1024" target-x="0" target-y="0" visibility="hidden"></path><g node-id="149"><g node-id="155"><path d="M 1024.00 512.00 C 1024.00 647.79 970.06 778.02 874.04 874.04 C 778.02 970.06 647.79 1024.00 512.00 1024.00 C 376.21 1024.00 245.98 970.06 149.96 874.04 C 53.94 778.02 0.00 647.79 0.00 512.00 C 0.00 376.21 53.94 245.98 149.96 149.96 C 245.98 53.94 376.21 0.00 512.00 0.00 C 647.79 -0.00 778.02 53.94 874.04 149.96 C 970.06 245.98 1024.00 376.21 1024.00 512.00 Z" fill="#bddfff" fill-rule="evenodd" group-id="1,7" hidden="true" node-id="94" stroke="none" target-height="1024" target-width="1024" target-x="0" target-y="0" visibility="hidden"></path></g><g node-id="156"><path d="M 679.17 430.85 L 673.69 434.01 L 668.02 436.57 L 662.11 438.54 L 655.96 439.94 L 649.72 440.77 L 643.30 441.07 L 636.68 440.82 L 629.84 440.01 L 623.14 438.72 L 616.33 436.92 L 609.38 434.60 L 602.29 431.71 L 595.45 428.46 L 588.59 424.72 L 581.70 420.47 L 574.76 415.69 L 568.13 410.62 L 561.59 405.10 L 555.11 399.09 L 548.71 392.58 L 542.66 385.85 L 536.80 378.70 L 531.12 371.10 L 525.62 363.04 L 516.69 348.88 L 508.06 334.23 L 502.56 324.29 L 497.41 314.32 L 492.58 304.33 L 488.09 294.19 L 484.12 284.22 L 480.67 274.43 L 477.70 264.48 L 475.42 254.90 L 473.81 245.65 L 473.04 238.60 L 472.73 231.85 L 472.88 225.35 L 473.47 219.09 L 474.58 212.87 L 476.23 206.94 L 478.41 201.29 L 481.14 195.88 L 483.69 191.81 L 486.66 187.90 L 490.06 184.15 L 493.92 180.56 L 498.28 177.11 L 504.04 173.35 L 510.22 170.02 L 516.87 167.13 L 524.01 164.68 L 531.24 162.78 L 538.79 161.31 L 546.69 160.29 L 554.96 159.74 L 563.17 159.67 L 571.56 160.06 L 580.15 160.91 L 588.96 162.25 L 597.62 164.02 L 606.31 166.26 L 615.04 168.97 L 623.82 172.17 L 632.39 175.78 L 640.83 179.86 L 649.15 184.42 L 657.36 189.46 L 665.26 194.90 L 672.89 200.82 L 680.27 207.20 L 687.38 214.08 L 694.06 221.33 L 700.34 229.06 L 706.22 237.27 L 711.71 246.01 L 716.68 255.11 L 720.93 263.95 L 724.48 272.55 L 727.39 280.92 L 729.85 289.59 L 731.74 297.99 L 733.07 306.16 L 733.88 314.11 L 734.23 322.18 L 734.13 329.99 L 733.59 337.56 L 732.63 344.90 L 731.25 352.23 L 729.53 359.29 L 727.47 366.09 L 725.09 372.63 L 721.37 381.17 L 717.24 389.16 L 712.70 396.64 L 707.66 403.80 L 702.40 410.33 L 696.91 416.27 L 691.02 421.82 L 685.11 426.67 L 679.17 430.85 Z" fill="#110d2e" fill-rule="evenodd" group-id="1,8" id="椭圆形备份-4" node-id="15" stroke="none" target-height="281.40002" target-width="261.49997" target-x="472.73" target-y="159.67"></path></g><g node-id="157"><path d="M 360.53 459.97 L 366.25 463.29 L 372.17 466.00 L 378.30 468.12 L 384.67 469.67 L 391.14 470.63 L 397.78 471.07 L 404.60 470.95 L 411.62 470.28 L 418.52 469.11 L 425.52 467.42 L 432.64 465.21 L 439.89 462.44 L 446.88 459.28 L 453.89 455.63 L 460.91 451.47 L 467.97 446.77 L 474.70 441.77 L 481.34 436.30 L 487.90 430.35 L 494.36 423.89 L 500.47 417.20 L 506.37 410.07 L 512.07 402.49 L 517.58 394.44 L 522.70 386.13 L 527.30 377.83 L 531.41 369.54 L 535.05 361.24 L 538.32 352.71 L 541.09 344.30 L 543.38 336.01 L 545.21 327.82 L 546.63 319.47 L 547.58 311.36 L 548.06 303.48 L 548.10 295.80 L 547.69 288.05 L 546.81 280.65 L 545.51 273.57 L 543.77 266.79 L 541.53 260.10 L 538.86 253.82 L 535.77 247.94 L 532.25 242.42 L 528.24 237.22 L 523.81 232.49 L 518.93 228.19 L 513.57 224.31 L 508.73 221.37 L 503.47 218.58 L 497.75 215.96 L 491.55 213.49 L 483.19 210.73 L 474.29 208.42 L 464.80 206.59 L 457.65 205.61 L 450.32 204.98 L 442.82 204.70 L 435.13 204.77 L 427.50 205.24 L 419.83 206.13 L 412.11 207.46 L 404.33 209.23 L 396.70 211.43 L 389.14 214.14 L 381.64 217.36 L 374.19 221.12 L 367.05 225.33 L 360.07 230.13 L 353.23 235.56 L 346.52 241.64 L 341.54 246.74 L 336.72 252.30 L 332.04 258.33 L 327.50 264.88 L 323.11 271.96 L 318.17 281.07 L 313.97 289.94 L 310.48 298.58 L 307.65 307.02 L 305.30 315.74 L 303.52 324.21 L 302.31 332.47 L 301.64 340.52 L 301.45 348.68 L 301.72 356.59 L 302.43 364.27 L 303.57 371.75 L 305.15 379.20 L 307.07 386.38 L 309.33 393.32 L 311.94 400.01 L 315.94 408.73 L 320.37 416.92 L 325.22 424.60 L 330.56 431.96 L 336.13 438.68 L 341.92 444.82 L 348.11 450.57 L 354.31 455.61 L 360.53 459.97 Z" fill="#110d2e" fill-rule="evenodd" group-id="1,9" id="椭圆形" node-id="16" stroke="none" target-height="266.37" target-width="246.64996" target-x="301.45" target-y="204.7"></path></g><g node-id="158"><g node-id="164"><g node-id="166"><path d="M 457.00 618.00 L 568.00 618.00 L 568.00 738.00 L 457.00 738.00 Z" fill="#ffcaca" fill-rule="evenodd" group-id="1,10,16,18" node-id="109" stroke="none" target-height="120" target-width="111" target-x="457" target-y="618"></path></g><path d="M 593.00 605.50 L 592.72 609.31 L 591.96 613.01 L 590.69 616.63 L 588.90 620.20 L 586.73 623.52 L 584.12 626.75 L 581.05 629.89 L 577.47 632.96 L 572.39 636.57 L 566.60 639.93 L 560.04 643.03 L 553.26 645.61 L 545.91 647.82 L 537.94 649.63 L 529.88 650.92 L 521.41 651.71 L 512.50 652.00 L 503.59 651.71 L 495.12 650.92 L 487.06 649.63 L 479.09 647.82 L 471.74 645.61 L 464.96 643.03 L 458.40 639.93 L 452.61 636.57 L 447.53 632.96 L 443.95 629.89 L 440.88 626.75 L 438.27 623.52 L 436.10 620.20 L 434.31 616.63 L 433.04 613.01 L 432.28 609.31 L 432.00 605.50 L 432.28 601.69 L 433.04 597.99 L 434.31 594.37 L 436.10 590.80 L 438.27 587.48 L 440.88 584.25 L 443.95 581.11 L 447.53 578.04 L 452.61 574.43 L 458.40 571.07 L 464.96 567.97 L 471.74 565.39 L 479.09 563.18 L 487.06 561.37 L 495.12 560.08 L 503.59 559.29 L 512.50 559.00 L 521.41 559.29 L 529.88 560.08 L 537.94 561.37 L 545.91 563.18 L 553.26 565.39 L 560.04 567.97 L 566.60 571.07 L 572.39 574.43 L 577.47 578.04 L 581.05 581.11 L 584.12 584.25 L 586.73 587.48 L 588.90 590.80 L 590.69 594.37 L 591.96 597.99 L 592.72 601.69 L 593.00 605.50 Z" fill="#ffb0b0" fill-opacity="0.5191476" fill-rule="evenodd" group-id="1,10,16,19" id="椭圆形" node-id="22" stroke="none" target-height="93" target-width="161" target-x="432" target-y="559"></path></g></g><g node-id="159"><g node-id="165"><g node-id="168"><path d="M 512.50 727.00 L 520.50 726.71 L 528.05 725.90 L 535.17 724.61 L 542.17 722.78 L 548.50 720.57 L 554.22 718.02 L 558.39 715.73 L 562.07 713.31 L 565.31 710.77 L 568.13 708.12 L 589.23 712.17 L 613.88 717.55 L 642.45 724.44 L 675.35 733.03 L 713.01 743.51 L 755.88 756.08 L 763.28 758.63 L 770.31 761.66 L 777.01 765.17 L 783.38 769.17 L 789.45 773.66 L 795.11 778.52 L 800.37 783.77 L 805.25 789.43 L 809.69 795.43 L 813.65 801.72 L 817.15 808.31 L 820.18 815.22 L 822.68 822.32 L 824.63 829.62 L 826.04 837.15 L 826.89 844.92 L 841.05 1048.57 L 184.00 1054.57 L 200.32 844.02 L 201.22 836.33 L 202.66 828.89 L 204.64 821.67 L 207.15 814.65 L 210.19 807.82 L 213.68 801.30 L 217.62 795.09 L 222.04 789.15 L 226.88 783.56 L 232.09 778.36 L 237.70 773.54 L 243.71 769.10 L 250.02 765.13 L 256.65 761.64 L 263.60 758.62 L 270.92 756.08 L 313.29 743.49 L 350.55 733.00 L 383.13 724.40 L 411.44 717.50 L 435.88 712.12 L 456.83 708.07 L 459.65 710.73 L 462.88 713.28 L 466.56 715.70 L 470.73 717.99 L 476.46 720.56 L 482.80 722.77 L 489.81 724.60 L 496.93 725.90 L 504.48 726.71 L 512.50 727.00 Z" fill="#ffffff" fill-rule="evenodd" group-id="1,11,17,20" node-id="122" stroke="none" target-height="346.49994" target-width="657.05" target-x="184" target-y="708.07"></path></g><g node-id="169"><path d="M 315.00 678.00 L 718.00 678.00 L 714.87 685.03 L 711.92 692.99 L 709.16 701.97 L 706.64 712.06 L 704.38 723.37 L 702.41 735.99 L 700.78 750.05 L 699.52 765.64 L 698.69 782.90 L 698.32 801.94 L 698.47 822.88 L 699.20 845.88 L 700.55 871.05 L 702.28 894.01 L 704.56 916.98 L 707.39 939.95 L 710.77 962.93 L 714.69 985.94 L 719.17 1008.97 L 724.22 1032.03 L 729.82 1055.12 L 736.00 1078.26 L 742.75 1101.45 L 750.08 1124.70 L 758.00 1148.00 L 275.00 1148.00 L 286.28 1107.40 L 296.08 1070.17 L 304.48 1036.12 L 311.61 1005.03 L 317.55 976.74 L 322.40 951.06 L 326.25 927.82 L 329.19 906.84 L 331.31 887.97 L 332.68 871.05 L 333.60 851.95 L 333.93 832.83 L 333.67 813.68 L 332.81 794.48 L 331.36 775.24 L 329.31 755.94 L 326.66 736.58 L 323.39 717.14 L 319.51 697.62 L 315.00 678.00 Z" fill="#4e86ba" fill-rule="evenodd" group-id="1,11,17,21" id="矩形" node-id="28" stroke="none" target-height="470" target-width="483" target-x="275" target-y="678"></path></g><g node-id="170"><path d="M 568.00 708.07 L 512.00 727.00 L 565.85 782.82 L 603.80 713.12 L 586.11 711.21 L 579.56 710.26 L 568.00 708.07 Z" fill="#ffffff" fill-rule="evenodd" group-id="1,11,17,22" id="路径-23备份" node-id="29" stroke="none" target-height="74.75" target-width="91.79999" target-x="512" target-y="708.07"></path></g><path d="M 455.80 708.07 L 511.80 727.00 L 457.94 782.82 L 420.00 713.12 L 437.69 711.21 L 444.24 710.26 L 455.80 708.07 Z" fill="#ffffff" fill-rule="evenodd" group-id="1,11,17,23" id="路径-23备份" node-id="30" stroke="none" target-height="74.75" target-width="91.79999" target-x="420" target-y="708.07"></path></g></g></g><g node-id="150"><g node-id="160"><path d="M 654.00 437.00 L 653.77 448.08 L 653.15 458.90 L 652.12 469.47 L 650.72 479.80 L 648.93 489.90 L 646.11 502.55 L 642.78 514.67 L 638.94 526.29 L 634.61 537.44 L 630.68 546.29 L 626.49 554.73 L 622.05 562.77 L 617.35 570.43 L 612.41 577.71 L 607.04 584.86 L 601.48 591.53 L 595.73 597.74 L 589.80 603.50 L 583.67 608.83 L 577.16 613.86 L 570.53 618.37 L 563.75 622.37 L 556.83 625.87 L 549.75 628.89 L 542.45 631.43 L 535.05 633.40 L 527.52 634.82 L 519.84 635.69 L 512.00 636.00 L 504.16 635.69 L 496.48 634.82 L 488.95 633.40 L 481.55 631.43 L 474.25 628.89 L 467.17 625.87 L 460.25 622.37 L 453.47 618.37 L 446.84 613.86 L 440.33 608.83 L 434.20 603.50 L 428.27 597.74 L 422.52 591.53 L 416.96 584.86 L 411.59 577.71 L 406.65 570.43 L 401.95 562.77 L 397.51 554.73 L 393.32 546.29 L 389.39 537.44 L 385.06 526.29 L 381.22 514.67 L 377.89 502.55 L 375.07 489.90 L 373.28 479.80 L 371.88 469.47 L 370.85 458.90 L 370.23 448.08 L 370.00 437.00 L 370.23 425.92 L 370.85 415.10 L 371.88 404.53 L 373.28 394.20 L 375.07 384.10 L 377.89 371.45 L 381.22 359.33 L 385.06 347.71 L 389.39 336.56 L 393.32 327.71 L 397.51 319.27 L 401.95 311.23 L 406.65 303.57 L 411.59 296.29 L 416.96 289.14 L 422.52 282.47 L 428.27 276.26 L 434.20 270.50 L 440.33 265.17 L 446.84 260.14 L 453.47 255.63 L 460.25 251.63 L 467.17 248.13 L 474.25 245.11 L 481.55 242.57 L 488.95 240.60 L 496.48 239.18 L 504.16 238.31 L 512.00 238.00 L 519.84 238.31 L 527.52 239.18 L 535.05 240.60 L 542.45 242.57 L 549.75 245.11 L 556.83 248.13 L 563.75 251.63 L 570.53 255.63 L 577.16 260.14 L 583.67 265.17 L 589.80 270.50 L 595.73 276.26 L 601.48 282.47 L 607.04 289.14 L 612.41 296.29 L 617.35 303.57 L 622.05 311.23 L 626.49 319.27 L 630.68 327.71 L 634.61 336.56 L 638.94 347.71 L 642.78 359.33 L 646.11 371.45 L 648.93 384.10 L 650.72 394.20 L 652.12 404.53 L 653.15 415.10 L 653.77 425.92 L 654.00 437.00 Z" fill="#ffcaca" fill-rule="evenodd" group-id="2,12" node-id="142" stroke="none" target-height="398" target-width="284" target-x="370" target-y="238"></path></g><path d="M 654.00 542.50 L 653.66 545.96 L 652.71 549.26 L 651.13 552.43 L 649.05 555.32 L 646.46 558.02 L 643.31 560.53 L 639.87 562.65 L 636.01 564.48 L 631.71 566.00 L 627.27 567.08 L 622.54 567.75 L 617.50 568.00 L 612.46 567.75 L 607.73 567.08 L 603.29 566.00 L 598.99 564.48 L 595.13 562.65 L 591.69 560.53 L 588.54 558.02 L 585.95 555.32 L 583.87 552.43 L 582.29 549.26 L 581.34 545.96 L 581.00 542.50 L 581.34 539.04 L 582.29 535.74 L 583.87 532.57 L 585.95 529.68 L 588.54 526.98 L 591.69 524.47 L 595.13 522.35 L 598.99 520.52 L 603.29 519.00 L 607.73 517.92 L 612.46 517.25 L 617.50 517.00 L 622.54 517.25 L 627.27 517.92 L 631.71 519.00 L 636.01 520.52 L 639.87 522.35 L 643.31 524.47 L 646.46 526.98 L 649.05 529.68 L 651.13 532.57 L 652.71 535.74 L 653.66 539.04 L 654.00 542.50 Z" fill="#ffaaaa" fill-opacity="0.21633475" fill-rule="evenodd" group-id="2,13" node-id="147" stroke="none" target-height="51" target-width="73" target-x="581" target-y="517"></path></g><path d="M 634.00 299.50 C 634.00 345.62 596.62 383.00 550.50 383.00 C 504.38 383.00 467.00 345.62 467.00 299.50 C 467.00 253.38 504.38 216.00 550.50 216.00 C 596.62 216.00 634.00 253.38 634.00 299.50 Z" fill="#110d2e" fill-rule="evenodd" id="椭圆形" node-id="36" stroke="none" target-height="167" target-width="167" target-x="467" target-y="216"></path><path d="M 533.00 293.50 C 533.00 339.62 495.62 377.00 449.50 377.00 C 403.38 377.00 366.00 339.62 366.00 293.50 C 366.00 247.38 403.38 210.00 449.50 210.00 C 495.62 210.00 533.00 247.38 533.00 293.50 Z" fill="#110d2e" fill-rule="evenodd" id="椭圆形备份-5" node-id="37" stroke="none" target-height="167" target-width="167" target-x="366" target-y="210"></path><path d="M 459.00 340.00 C 459.00 381.42 425.42 415.00 384.00 415.00 C 342.58 415.00 309.00 381.42 309.00 340.00 C 309.00 298.58 342.58 265.00 384.00 265.00 C 425.42 265.00 459.00 298.58 459.00 340.00 Z" fill="#110d2e" fill-rule="evenodd" id="椭圆形备份-6" node-id="38" stroke="none" target-height="150" target-width="150" target-x="309" target-y="265"></path><path d="M 557.53 415.07 C 571.92 407.56 583.55 403.81 592.41 403.81 C 601.27 403.81 612.90 407.56 627.29 415.07" fill="none" id="路径-4" node-id="39" stroke="#110d2e" stroke-linecap="round" stroke-width="7" target-height="11.26001" target-width="69.75995" target-x="557.53" target-y="403.81"></path><path d="M 422.53 412.07 C 436.65 408.31 448.14 406.44 457.00 406.44 C 465.86 406.44 477.62 408.31 492.29 412.07" fill="none" id="路径-4备份" node-id="40" stroke="#110d2e" stroke-linecap="round" stroke-width="7" target-height="5.630005" target-width="69.76001" target-x="422.53" target-y="406.44"></path><path d="M 475.00 450.00 C 475.00 454.97 470.97 459.00 466.00 459.00 C 461.03 459.00 457.00 454.97 457.00 450.00 C 457.00 445.03 461.03 441.00 466.00 441.00 C 470.97 441.00 475.00 445.03 475.00 450.00 Z" fill="#110d2e" fill-rule="evenodd" id="椭圆形" node-id="41" stroke="none" target-height="18" target-width="18" target-x="457" target-y="441"></path><path d="M 587.00 445.00 C 587.00 449.97 582.97 454.00 578.00 454.00 C 573.03 454.00 569.00 449.97 569.00 445.00 C 569.00 440.03 573.03 436.00 578.00 436.00 C 582.97 436.00 587.00 440.03 587.00 445.00 Z" fill="#110d2e" fill-rule="evenodd" id="椭圆形备份" node-id="42" stroke="none" target-height="18" target-width="18" target-x="569" target-y="436"></path><path d="M 522.10 477.00 L 522.10 503.00 C 522.10 510.73 528.37 517.00 536.10 517.00 L 542.94 517.00 L 542.94 517.00" fill="none" id="路径-5" node-id="43" stroke="#ff9494" stroke-linecap="round" stroke-width="7" target-height="40" target-width="20.840027" target-x="522.1" target-y="477"></path><path d="M 512.00 567.50 L 540.80 567.50" fill="none" id="路径-8" node-id="44" stroke="#110d2e" stroke-linecap="round" stroke-width="7" target-height="0" target-width="28.799988" target-x="512" target-y="567.5"></path><path d="M 467.00 542.50 C 467.00 556.58 450.66 568.00 430.50 568.00 C 410.34 568.00 394.00 556.58 394.00 542.50 C 394.00 528.42 410.34 517.00 430.50 517.00 C 450.66 517.00 467.00 528.42 467.00 542.50 Z" fill="#ffaaaa" fill-opacity="0.21633475" fill-rule="evenodd" group-id="3" id="椭圆形" node-id="45" stroke="none" target-height="51" target-width="73" target-x="394" target-y="517"></path><path d="M 407.00 458.00 C 407.00 481.75 390.66 501.00 370.50 501.00 C 350.34 501.00 334.00 481.75 334.00 458.00 C 334.00 434.25 350.34 415.00 370.50 415.00 C 390.66 415.00 407.00 434.25 407.00 458.00 Z" fill="#ffcaca" fill-rule="evenodd" id="椭圆形" node-id="46" stroke="none" target-height="86" target-width="73" target-x="334" target-y="415"></path><path d="M 375.64 445.00 L 369.45 445.43 L 364.20 446.25 L 359.78 447.40 L 356.07 448.83 L 352.98 450.52 L 350.43 452.43 L 348.35 454.58 L 346.70 456.98 L 345.44 459.66" fill="none" group-id="4" id="路径-2" node-id="48" stroke="#ff9494" stroke-linecap="round" stroke-width="4" target-height="14.660004" target-width="30.200012" target-x="345.44" target-y="445"></path><path d="M 357.70 449.00 L 361.54 452.08 L 364.52 455.21 L 366.77 458.38 L 368.35 461.64 L 369.33 465.01 L 369.72 468.54 L 369.50 472.30 L 368.64 476.33" fill="none" group-id="4" id="路径-19" node-id="49" stroke="#ff9494" stroke-linecap="round" stroke-width="4" target-height="27.329987" target-width="12.019989" target-x="357.7" target-y="449"></path><path d="M 692.00 458.00 C 692.00 481.75 675.66 501.00 655.50 501.00 C 635.34 501.00 619.00 481.75 619.00 458.00 C 619.00 434.25 635.34 415.00 655.50 415.00 C 675.66 415.00 692.00 434.25 692.00 458.00 Z" fill="#ffcaca" fill-rule="evenodd" id="椭圆形备份-3" node-id="50" stroke="none" target-height="86" target-width="73" target-x="619" target-y="415"></path><path d="M 649.44 445.00 L 655.63 445.43 L 660.88 446.25 L 665.31 447.40 L 669.01 448.83 L 672.10 450.52 L 674.65 452.43 L 676.73 454.58 L 678.39 456.98 L 679.64 459.66" fill="none" group-id="5" id="路径-2备份" node-id="52" stroke="#ff9494" stroke-linecap="round" stroke-width="4" target-height="14.660004" target-width="30.200012" target-x="649.44" target-y="445"></path><path d="M 667.38 449.00 L 663.54 452.08 L 660.56 455.21 L 658.31 458.38 L 656.73 461.64 L 655.75 465.01 L 655.37 468.54 L 655.58 472.30 L 656.44 476.33" fill="none" group-id="5" id="路径-19备份" node-id="53" stroke="#ff9494" stroke-linecap="round" stroke-width="4" target-height="27.329987" target-width="12.01001" target-x="655.37" target-y="449"></path><path d="M 583.00 825.00 L 671.00 825.00 L 671.00 913.00 L 583.00 913.00 Z" fill="#000000" fill-opacity="0" fill-rule="nonzero" group-id="6,14" id="矩形" node-id="55" stroke="none" target-height="88" target-width="88" target-x="583" target-y="825"></path><path d="M 659.15 861.88 L 656.94 861.11 L 654.42 860.49 L 651.77 860.08 L 648.93 859.84 L 650.77 857.67 L 652.34 855.51 L 653.68 853.29 L 654.70 851.19 L 655.58 848.53 L 655.85 846.55 L 655.73 844.75 L 655.34 843.46 L 654.74 842.37 L 654.16 841.68 L 653.47 841.10 L 652.38 840.50 L 651.09 840.11 L 649.28 839.99 L 647.31 840.26 L 644.64 841.14 L 642.54 842.16 L 640.32 843.51 L 638.15 845.09 L 635.98 846.93 L 635.74 844.10 L 635.33 841.46 L 634.71 838.94 L 633.95 836.74 L 632.69 834.24 L 631.49 832.64 L 630.13 831.45 L 628.94 830.82 L 627.75 830.47 L 626.85 830.40 L 625.94 830.47 L 624.75 830.82 L 623.56 831.45 L 622.20 832.64 L 621.00 834.24 L 619.74 836.74 L 618.97 838.94 L 618.36 841.47 L 617.94 844.11 L 617.70 846.96 L 615.53 845.12 L 613.37 843.55 L 611.15 842.21 L 609.06 841.19 L 606.39 840.31 L 604.42 840.04 L 602.62 840.16 L 601.32 840.55 L 600.24 841.15 L 599.54 841.73 L 598.96 842.42 L 598.36 843.51 L 597.97 844.80 L 597.85 846.60 L 598.12 848.58 L 599.00 851.25 L 600.02 853.35 L 601.38 855.57 L 602.95 857.73 L 604.79 859.91 L 601.96 860.14 L 599.32 860.56 L 596.80 861.17 L 594.60 861.94 L 592.10 863.20 L 590.51 864.40 L 589.32 865.76 L 588.68 866.95 L 588.34 868.14 L 588.26 869.04 L 588.34 869.94 L 588.68 871.14 L 589.32 872.33 L 590.51 873.69 L 592.10 874.89 L 594.60 876.15 L 596.81 876.92 L 599.33 877.53 L 601.98 877.95 L 604.82 878.19 L 602.98 880.36 L 601.41 882.52 L 600.07 884.74 L 599.05 886.83 L 598.17 889.49 L 597.90 891.47 L 598.02 893.27 L 598.41 894.56 L 599.01 895.65 L 599.59 896.35 L 600.25 896.90 L 601.26 897.48 L 602.45 897.87 L 604.10 898.05 L 606.20 897.82 L 609.10 896.89 L 611.20 895.87 L 613.42 894.51 L 615.59 892.94 L 617.76 891.09 L 618.00 893.93 L 618.41 896.56 L 619.03 899.08 L 619.79 901.29 L 621.05 903.79 L 622.25 905.38 L 623.61 906.57 L 624.80 907.21 L 626.00 907.55 L 626.90 907.63 L 627.80 907.55 L 628.99 907.21 L 630.18 906.57 L 631.54 905.38 L 632.74 903.79 L 634.00 901.29 L 634.77 899.08 L 635.39 896.55 L 635.80 893.91 L 636.04 891.07 L 638.21 892.91 L 640.37 894.47 L 642.59 895.82 L 644.69 896.84 L 647.60 897.77 L 649.69 898.00 L 651.33 897.82 L 652.53 897.43 L 653.54 896.85 L 654.19 896.29 L 654.77 895.60 L 655.38 894.52 L 655.76 893.22 L 655.88 891.42 L 655.61 889.44 L 654.73 886.78 L 653.71 884.68 L 652.36 882.46 L 650.78 880.29 L 648.94 878.12 L 651.78 877.88 L 654.41 877.46 L 656.93 876.85 L 659.13 876.09 L 661.64 874.83 L 663.23 873.63 L 664.42 872.27 L 665.06 871.08 L 665.40 869.88 L 665.47 868.98 L 665.40 868.08 L 665.06 866.89 L 664.43 865.70 L 663.24 864.34 L 661.65 863.14 L 659.15 861.88 L 659.15 861.88 Z M 646.40 846.48 L 648.09 845.84 L 649.11 845.61 L 650.20 845.65 L 650.24 846.75 L 650.01 847.77 L 649.36 849.47 L 648.36 851.35 L 647.01 853.39 L 645.45 855.36 L 643.62 857.33 L 641.62 859.18 L 639.60 860.78 L 639.31 860.98 L 639.21 861.04 L 639.01 861.18 L 638.91 861.25 L 638.72 861.38 L 638.62 861.45 L 638.42 861.58 L 638.34 861.63 L 638.09 861.78 L 638.06 861.80 L 637.79 861.97 L 637.75 861.99 L 637.52 862.12 L 637.45 862.17 L 637.25 862.28 L 637.17 862.32 L 636.99 862.43 L 636.92 862.47 L 636.70 862.58 L 636.66 862.61 L 636.16 862.86 L 636.11 862.89 L 635.92 862.98 L 635.85 863.02 L 635.69 863.10 L 635.62 863.13 L 635.46 863.20 L 635.39 863.23 L 635.22 863.30 L 635.17 863.32 L 634.97 863.41 L 634.90 863.43 L 634.77 863.48 L 634.67 863.52 L 634.57 863.55 L 634.47 863.59 L 634.38 863.61 L 634.27 863.65 L 634.20 863.66 L 634.08 863.70 L 633.62 863.82 L 633.60 863.82 L 633.46 863.84 L 633.45 863.84 L 633.31 863.87 L 633.30 863.87 L 633.02 863.91 L 632.98 863.86 L 632.81 863.66 L 632.74 863.59 L 632.50 863.35 L 632.48 863.33 L 632.20 863.07 L 632.16 863.04 L 631.91 862.83 L 631.88 862.80 L 631.88 862.80 L 631.88 862.77 L 631.90 862.65 L 631.91 862.60 L 631.92 862.49 L 631.93 862.43 L 631.96 862.32 L 631.99 862.14 L 632.00 862.10 L 632.10 861.74 L 632.11 861.69 L 632.16 861.55 L 632.17 861.48 L 632.22 861.35 L 632.24 861.28 L 632.29 861.15 L 632.39 860.91 L 632.40 860.88 L 632.48 860.66 L 632.50 860.62 L 632.57 860.45 L 632.60 860.37 L 632.67 860.22 L 632.71 860.13 L 632.77 859.98 L 632.81 859.89 L 632.89 859.73 L 632.92 859.66 L 633.04 859.42 L 633.05 859.41 L 633.17 859.17 L 633.21 859.09 L 633.31 858.92 L 633.36 858.83 L 633.45 858.66 L 633.51 858.56 L 633.61 858.39 L 633.66 858.29 L 633.78 858.09 L 633.82 858.03 L 633.99 857.76 L 634.03 857.69 L 634.16 857.48 L 634.23 857.38 L 634.34 857.20 L 634.42 857.09 L 634.54 856.91 L 634.61 856.80 L 634.74 856.61 L 634.81 856.50 L 635.01 856.22 L 635.02 856.21 L 636.62 854.18 L 638.48 852.17 L 640.49 850.37 L 642.47 848.82 L 644.51 847.48 L 646.40 846.48 L 646.40 846.48 Z M 629.05 870.37 L 628.17 871.25 L 628.09 871.29 L 627.97 871.35 L 627.76 871.44 L 626.92 871.59 L 626.07 871.44 L 626.05 871.43 L 625.86 871.35 L 625.84 871.34 L 625.17 870.85 L 624.70 870.17 L 624.59 869.89 L 624.59 869.88 L 624.48 869.33 L 624.47 869.14 L 624.60 868.35 L 624.60 868.34 L 624.75 868.00 L 625.19 867.41 L 625.80 866.96 L 626.16 866.81 L 626.34 866.76 L 626.51 866.72 L 626.52 866.72 L 626.69 866.71 L 626.71 866.71 L 626.85 866.70 L 627.09 866.70 L 627.25 866.71 L 627.27 866.71 L 627.41 866.74 L 627.46 866.75 L 627.58 866.78 L 627.64 866.80 L 627.97 866.93 L 628.61 867.37 L 629.08 867.99 L 629.08 868.00 L 629.20 868.28 L 629.35 869.14 L 629.23 869.90 L 629.23 869.92 L 629.14 870.14 L 629.05 870.37 L 629.05 870.37 Z M 624.74 839.28 L 625.48 837.63 L 626.04 836.75 L 626.85 835.99 L 627.65 836.74 L 628.21 837.62 L 628.95 839.28 L 629.58 841.32 L 630.06 843.72 L 630.35 846.22 L 630.45 848.91 L 630.37 851.29 L 630.14 853.56 L 630.09 853.63 L 629.92 853.87 L 629.81 854.03 L 629.65 854.28 L 629.55 854.42 L 629.36 854.73 L 629.30 854.82 L 629.06 855.22 L 629.01 855.30 L 628.83 855.60 L 628.75 855.74 L 628.61 856.00 L 628.52 856.14 L 628.39 856.38 L 628.31 856.54 L 628.19 856.78 L 628.11 856.93 L 627.99 857.17 L 627.92 857.31 L 627.79 857.59 L 627.74 857.69 L 627.57 858.07 L 627.40 858.44 L 627.36 858.55 L 627.26 858.81 L 627.21 858.95 L 627.12 859.18 L 627.07 859.31 L 626.99 859.54 L 626.95 859.68 L 626.88 859.90 L 626.85 859.99 L 626.82 859.88 L 626.75 859.68 L 626.70 859.52 L 626.63 859.32 L 626.57 859.16 L 626.49 858.95 L 626.43 858.79 L 626.35 858.57 L 626.29 858.42 L 626.17 858.14 L 626.11 857.99 L 625.97 857.69 L 625.90 857.54 L 625.80 857.31 L 625.71 857.14 L 625.61 856.93 L 625.51 856.75 L 625.40 856.55 L 625.31 856.37 L 625.20 856.16 L 625.09 855.98 L 624.97 855.77 L 624.87 855.59 L 624.73 855.35 L 624.65 855.21 L 624.41 854.83 L 624.32 854.68 L 624.16 854.43 L 624.04 854.26 L 623.89 854.04 L 623.77 853.87 L 623.61 853.64 L 623.55 853.56 L 623.32 851.28 L 623.24 848.88 L 623.34 846.21 L 623.63 843.71 L 624.11 841.32 L 624.74 839.28 L 624.74 839.28 Z M 603.50 845.69 L 604.61 845.66 L 605.62 845.88 L 607.32 846.54 L 609.21 847.53 L 611.24 848.89 L 613.21 850.45 L 615.18 852.29 L 617.03 854.28 L 618.63 856.31 L 618.84 856.60 L 618.91 856.69 L 619.05 856.89 L 619.13 857.00 L 619.25 857.18 L 619.33 857.30 L 619.44 857.47 L 619.51 857.58 L 619.62 857.76 L 619.68 857.85 L 619.81 858.06 L 619.85 858.12 L 620.01 858.39 L 620.05 858.46 L 620.16 858.65 L 620.21 858.75 L 620.31 858.91 L 620.36 859.01 L 620.44 859.16 L 620.49 859.25 L 620.57 859.41 L 620.62 859.50 L 620.71 859.67 L 620.74 859.74 L 620.86 859.98 L 620.86 859.99 L 620.97 860.21 L 621.00 860.29 L 621.07 860.43 L 621.10 860.52 L 621.16 860.66 L 621.20 860.74 L 621.25 860.87 L 621.29 860.96 L 621.34 861.09 L 621.36 861.17 L 621.41 861.33 L 621.43 861.37 L 621.50 861.57 L 621.52 861.62 L 621.56 861.76 L 621.58 861.82 L 621.61 861.94 L 621.63 862.00 L 621.65 862.11 L 621.67 862.18 L 621.70 862.28 L 621.71 862.35 L 621.74 862.46 L 621.75 862.51 L 621.77 862.67 L 621.77 862.69 L 621.79 862.82 L 621.80 862.87 L 621.81 862.94 L 621.77 862.98 L 621.58 863.14 L 621.51 863.20 L 621.01 863.69 L 620.96 863.74 L 620.78 863.96 L 620.75 863.99 L 620.70 863.98 L 620.65 863.97 L 620.55 863.96 L 620.50 863.95 L 620.37 863.92 L 620.35 863.91 L 620.19 863.88 L 620.16 863.87 L 620.01 863.84 L 619.96 863.82 L 619.84 863.78 L 619.77 863.77 L 619.65 863.73 L 619.58 863.71 L 619.46 863.68 L 619.39 863.66 L 619.26 863.62 L 619.21 863.60 L 619.01 863.53 L 618.96 863.52 L 618.80 863.46 L 618.72 863.43 L 618.59 863.38 L 618.50 863.35 L 618.37 863.29 L 618.28 863.25 L 618.14 863.19 L 618.05 863.15 L 617.90 863.08 L 617.82 863.04 L 617.59 862.93 L 617.54 862.91 L 617.35 862.81 L 617.25 862.77 L 617.10 862.69 L 617.00 862.64 L 616.84 862.56 L 616.74 862.50 L 616.58 862.42 L 616.48 862.36 L 616.31 862.25 L 616.22 862.20 L 615.96 862.05 L 615.92 862.03 L 615.68 861.88 L 615.59 861.82 L 615.41 861.71 L 615.30 861.64 L 615.12 861.53 L 615.01 861.45 L 614.83 861.33 L 614.72 861.26 L 614.52 861.12 L 614.43 861.05 L 614.14 860.84 L 612.10 859.24 L 610.10 857.38 L 608.26 855.41 L 606.70 853.44 L 605.35 851.41 L 604.35 849.52 L 603.70 847.81 L 603.47 846.79 L 603.50 845.69 L 603.50 845.69 Z M 593.86 869.05 L 594.62 868.25 L 595.49 867.69 L 597.15 866.95 L 599.19 866.32 L 601.59 865.84 L 604.09 865.55 L 606.78 865.45 L 609.16 865.53 L 611.43 865.76 L 611.49 865.80 L 611.75 865.98 L 611.88 866.07 L 612.23 866.30 L 612.27 866.33 L 612.66 866.58 L 612.76 866.65 L 613.04 866.82 L 613.17 866.89 L 613.43 867.05 L 613.56 867.13 L 613.83 867.28 L 613.94 867.34 L 614.27 867.52 L 614.32 867.55 L 614.72 867.75 L 614.75 867.77 L 615.10 867.94 L 615.18 867.99 L 615.48 868.12 L 615.57 868.17 L 615.86 868.30 L 615.94 868.33 L 616.28 868.48 L 616.31 868.48 L 617.07 868.78 L 617.10 868.79 L 617.44 868.91 L 617.50 868.92 L 617.81 869.03 L 617.84 869.03 L 617.72 869.08 L 617.56 869.13 L 617.37 869.20 L 617.20 869.26 L 617.01 869.33 L 616.84 869.39 L 616.64 869.46 L 616.48 869.53 L 616.28 869.61 L 616.12 869.68 L 615.74 869.84 L 615.57 869.92 L 615.37 870.01 L 615.19 870.10 L 614.99 870.19 L 614.81 870.29 L 614.62 870.39 L 614.43 870.49 L 614.23 870.59 L 614.04 870.69 L 613.85 870.80 L 613.65 870.91 L 613.47 871.01 L 613.24 871.15 L 613.09 871.24 L 612.71 871.48 L 612.57 871.56 L 612.32 871.72 L 612.16 871.83 L 611.93 871.98 L 611.76 872.09 L 611.53 872.26 L 611.45 872.31 L 609.18 872.54 L 606.78 872.62 L 604.09 872.52 L 601.59 872.23 L 599.19 871.75 L 597.15 871.12 L 595.49 870.40 L 594.62 869.85 L 593.86 869.05 L 593.86 869.05 Z M 607.36 891.55 L 605.67 892.20 L 604.65 892.42 L 603.56 892.38 L 603.52 891.28 L 603.75 890.26 L 604.40 888.57 L 605.40 886.68 L 606.75 884.65 L 608.31 882.68 L 610.14 880.70 L 612.14 878.86 L 614.16 877.26 L 614.45 877.05 L 614.54 876.99 L 614.74 876.85 L 614.83 876.79 L 615.03 876.66 L 615.11 876.60 L 615.34 876.45 L 615.40 876.42 L 615.96 876.06 L 616.00 876.04 L 616.23 875.90 L 616.27 875.88 L 616.51 875.74 L 616.54 875.72 L 618.95 874.57 L 620.54 874.13 L 620.62 874.11 L 620.67 874.16 L 620.85 874.38 L 620.92 874.47 L 621.19 874.76 L 621.22 874.78 L 621.47 875.03 L 621.57 875.12 L 621.77 875.30 L 621.83 875.35 L 621.83 875.37 L 621.82 875.42 L 621.80 875.52 L 621.79 875.58 L 621.77 875.69 L 621.75 875.75 L 621.72 875.87 L 621.71 875.91 L 621.67 876.08 L 621.65 876.13 L 621.62 876.26 L 621.60 876.33 L 621.57 876.45 L 621.54 876.53 L 621.50 876.66 L 621.47 876.73 L 621.41 876.91 L 621.40 876.94 L 621.33 877.12 L 621.30 877.20 L 621.25 877.34 L 621.22 877.42 L 621.16 877.56 L 621.12 877.65 L 621.05 877.80 L 621.03 877.86 L 620.92 878.08 L 620.89 878.15 L 620.81 878.32 L 620.77 878.40 L 620.69 878.56 L 620.65 878.65 L 620.56 878.81 L 620.52 878.90 L 620.39 879.14 L 620.38 879.17 L 620.25 879.40 L 620.20 879.48 L 620.10 879.66 L 620.04 879.75 L 619.94 879.92 L 619.88 880.02 L 619.76 880.21 L 619.71 880.28 L 619.54 880.55 L 619.50 880.62 L 619.36 880.83 L 619.29 880.93 L 619.16 881.12 L 619.09 881.22 L 618.96 881.42 L 618.90 881.51 L 618.69 881.80 L 617.08 883.84 L 615.23 885.84 L 613.25 887.65 L 611.28 889.21 L 609.25 890.55 L 607.36 891.55 L 607.36 891.55 Z M 629.02 898.75 L 628.28 900.41 L 627.72 901.28 L 626.91 902.04 L 626.11 901.29 L 625.55 900.41 L 624.81 898.75 L 624.18 896.71 L 623.70 894.32 L 623.41 891.82 L 623.31 889.13 L 623.39 886.74 L 623.62 884.48 L 623.67 884.40 L 623.84 884.16 L 623.94 884.00 L 624.10 883.76 L 624.20 883.61 L 624.39 883.31 L 624.45 883.21 L 624.69 882.82 L 624.74 882.72 L 624.92 882.42 L 625.00 882.29 L 625.14 882.04 L 625.23 881.88 L 625.36 881.64 L 625.44 881.49 L 625.56 881.25 L 625.64 881.10 L 625.76 880.86 L 625.83 880.72 L 625.96 880.46 L 626.01 880.34 L 626.18 879.97 L 626.20 879.92 L 626.34 879.59 L 626.39 879.47 L 626.48 879.22 L 626.54 879.08 L 626.62 878.86 L 626.67 878.71 L 626.75 878.50 L 626.80 878.35 L 626.87 878.13 L 626.91 878.03 L 626.94 878.14 L 627.01 878.33 L 627.06 878.50 L 627.13 878.69 L 627.19 878.86 L 627.27 879.06 L 627.33 879.23 L 627.41 879.44 L 627.47 879.60 L 627.58 879.86 L 628.01 880.28 L 628.28 880.77 L 628.39 880.99 L 628.47 881.16 L 628.57 881.36 L 628.67 881.54 L 628.77 881.74 L 628.87 881.92 L 628.98 882.12 L 629.08 882.30 L 629.20 882.51 L 629.30 882.69 L 629.44 882.92 L 629.54 883.08 L 629.77 883.46 L 629.86 883.62 L 630.02 883.86 L 630.13 884.03 L 630.28 884.25 L 630.40 884.43 L 630.55 884.66 L 630.61 884.74 L 630.84 887.02 L 630.92 889.42 L 630.83 892.11 L 630.54 894.61 L 630.06 897.00 L 629.43 899.04 L 629.02 898.75 Z M 650.25 892.34 L 649.15 892.37 L 648.14 892.15 L 646.44 891.50 L 644.55 890.50 L 642.52 889.15 L 640.55 887.58 L 638.58 885.75 L 636.73 883.76 L 635.13 881.74 L 634.92 881.44 L 634.87 881.37 L 634.73 881.16 L 634.67 881.07 L 634.53 880.87 L 634.48 880.78 L 634.31 880.53 L 634.30 880.51 L 634.12 880.23 L 634.08 880.16 L 633.96 879.97 L 633.91 879.88 L 633.80 879.70 L 633.75 879.61 L 633.63 879.41 L 633.60 879.36 L 633.45 879.10 L 633.43 879.05 L 633.33 878.85 L 633.28 878.77 L 633.20 878.60 L 633.15 878.52 L 633.06 878.34 L 633.03 878.29 L 632.92 878.06 L 632.91 878.03 L 632.82 877.83 L 632.79 877.76 L 632.72 877.59 L 632.70 877.52 L 632.63 877.36 L 632.60 877.30 L 632.44 876.89 L 632.42 876.83 L 632.37 876.68 L 632.35 876.62 L 632.30 876.49 L 632.29 876.42 L 632.23 876.26 L 632.23 876.24 L 632.17 876.06 L 632.16 876.01 L 632.12 875.89 L 632.10 875.83 L 632.08 875.72 L 632.06 875.66 L 632.04 875.54 L 632.03 875.50 L 632.00 875.35 L 632.16 875.22 L 632.17 875.20 L 632.41 875.00 L 632.68 874.73 L 632.71 874.71 L 632.90 874.50 L 632.95 874.44 L 633.14 874.22 L 633.19 874.16 L 633.28 874.05 L 633.37 874.07 L 633.46 874.09 L 633.57 874.11 L 633.63 874.13 L 633.73 874.16 L 633.81 874.17 L 633.91 874.20 L 633.98 874.22 L 634.12 874.26 L 634.16 874.27 L 634.34 874.32 L 634.40 874.34 L 634.54 874.38 L 634.61 874.41 L 634.74 874.46 L 634.80 874.48 L 634.98 874.55 L 635.00 874.56 L 635.22 874.65 L 635.25 874.66 L 635.43 874.74 L 635.49 874.77 L 635.66 874.84 L 635.72 874.87 L 635.93 874.96 L 635.95 874.97 L 636.19 875.09 L 636.20 875.10 L 636.42 875.21 L 636.48 875.24 L 636.67 875.33 L 636.73 875.37 L 636.94 875.48 L 636.99 875.51 L 637.25 875.65 L 637.51 875.80 L 637.58 875.84 L 637.78 875.95 L 637.86 876.00 L 638.07 876.12 L 638.14 876.17 L 638.41 876.34 L 638.44 876.36 L 638.69 876.52 L 638.77 876.58 L 638.97 876.71 L 639.07 876.78 L 639.27 876.91 L 639.37 876.98 L 639.65 877.17 L 639.66 877.18 L 641.69 878.79 L 643.70 880.64 L 645.53 882.62 L 647.10 884.59 L 648.45 886.62 L 649.45 888.51 L 650.07 890.22 L 650.29 891.24 L 650.25 892.34 L 650.25 892.34 Z M 656.61 871.09 L 654.57 871.72 L 652.18 872.20 L 649.68 872.48 L 646.99 872.58 L 644.60 872.50 L 642.34 872.27 L 642.26 872.22 L 642.01 872.05 L 641.87 871.95 L 641.60 871.77 L 641.47 871.68 L 641.13 871.46 L 641.08 871.42 L 640.67 871.17 L 640.64 871.15 L 640.29 870.94 L 640.19 870.88 L 639.90 870.71 L 639.79 870.65 L 639.51 870.50 L 639.39 870.44 L 639.11 870.29 L 639.01 870.24 L 638.70 870.09 L 638.62 870.05 L 638.26 869.88 L 638.24 869.87 L 637.46 869.52 L 637.42 869.52 L 637.08 869.38 L 637.01 869.35 L 636.71 869.24 L 636.62 869.21 L 636.33 869.11 L 636.26 869.09 L 635.95 868.99 L 635.91 868.97 L 635.98 868.96 L 636.20 868.89 L 636.33 868.85 L 636.58 868.76 L 636.69 868.73 L 637.04 868.60 L 637.14 868.55 L 637.40 868.45 L 637.54 868.39 L 637.77 868.30 L 637.92 868.23 L 638.14 868.13 L 638.29 868.06 L 638.52 867.95 L 638.67 867.88 L 638.96 867.74 L 639.06 867.69 L 639.41 867.50 L 639.56 867.43 L 639.79 867.30 L 639.95 867.20 L 640.17 867.08 L 640.34 866.98 L 640.56 866.85 L 640.72 866.76 L 640.96 866.61 L 641.11 866.52 L 641.49 866.28 L 641.60 866.21 L 641.88 866.03 L 642.03 865.92 L 642.27 865.76 L 642.34 865.72 L 644.62 865.49 L 647.01 865.41 L 649.71 865.51 L 652.21 865.79 L 654.60 866.28 L 656.64 866.90 L 658.29 867.65 L 659.17 868.21 L 659.93 869.01 L 659.15 869.79 L 658.27 870.35 L 656.61 871.09 L 656.61 871.09 Z" fill="#ffffff" fill-opacity="0.2628112" fill-rule="nonzero" group-id="6,15" id="形状" node-id="56" stroke="none" target-height="77.22998" target-width="77.20996" target-x="588.26" target-y="830.4"></path></svg>